<?xml version="1.0" encoding="UTF-8" standalone="no"?>
<svg
   xmlns="http://www.w3.org/2000/svg"
   xmlns:xlink="http://www.w3.org/1999/xlink"
   version="1.1"
   id="svg2"
   viewBox="0 0 1040 721"
   height="204mm"
   width="294mm">
   
   <style type="text/css">
      <![CDATA[
      rect {fill: white;}

      [id*=tekst_]{display:none;}
      .show {display:block;}   
   
   tspan {font-style: normal;
      font-weight: normal;
      font-size: 30px;
      line-height:150%;
      font-family:sans-serif;
      text-align:center;
      letter-spacing:0px;
      word-spacing:0px;
      text-anchor:middle;
      fill:#000000;
      fill-opacity:1;
      stroke:none;
      position: relative;
   }
   
   path, circle {
      fill:transparent;
      stroke:none;
   }
   path:hover, circle:hover {
      cursor: pointer;
      stroke:rgb(102, 255, 255);
      stroke-width:5px;
      stroke-linecap:butt;
      stroke-linejoin:
      miter;
      stroke-opacity:1"
   }
      ]]>
   </style>
   <script type="text/javascript">
      <![CDATA[
function toggle (event) {
//console.log('toggle ()');
 var target = event.target;
 //console.log('target: ', target);
   var target_id = target.id;
   var text_element_id = target_id.replace(/^interaksjon_/g,"tekst_");
   var text_element = document.getElementById(text_element_id);
   if(text_element.getAttribute('class') != "show") {
      text_element.setAttribute('class', "show");
   } else {
      text_element.setAttribute('class', "");
   }

  // console.log("toggle: " + text_element_id);
}

function svginit() {
    var interaction_elements = document.querySelectorAll("[id^=interaksjon_]");
    console.log(interaction_elements);

    for (var i = 0; i < interaction_elements.length; i++) {
       var current_element = interaction_elements[i];
       current_element.addEventListener("click", function(){
          toggle(event);
       }, false);
    }
}

window.addEventListener("load", svginit, false);
]]>
   </script>
  <defs
     id="defs4">
    
       
  </defs>
   <g
     
     id="layer3">
    <image
       xlink:href="oversiktsbilde-kapittel01.jpg"
       transform="matrix(0.998,0,0,0.998,368,-48.3)"
       y="48.3"
       x="-368"
       id="image4144"
       
       preserveAspectRatio="none"
       height="723"
       width="1040" />
  </g>
  <g
     transform="translate(368,-48.3)"
     id="layer1">
    <circle
       r="89.1"
       cy="201"
       cx="-133"
       id="interaksjon_romskip">
      <title
         id="title4149">Romskip</title>
    </circle>
    <path
       onmouseover="console.log('musen over hestehov');"
       id="interaksjon_hestehov"
       transform="matrix(0.998,0,0,0.998,-368,48)"
       d="m 192,536 a 8.08,8.08 0 0 0 -8,8 8.08,8.08 0 0 0 8,8 8.08,8.08 0 0 0 8,-8 8.08,8.08 0 0 0 -8,-8 z m -34,5 a 10.1,10.1 0 0 0 -10,10 10.1,10.1 0 0 0 10,10 10.1,10.1 0 0 0 10,-10 10.1,10.1 0 0 0 -10,-10 z m 362,4 a 12.1,12.1 0 0 0 -12,12 12.1,12.1 0 0 0 12,12 12.1,12.1 0 0 0 12,-12 12.1,12.1 0 0 0 -12,-12 z m -236,4 a 9.6,9.6 0 0 0 -9,9 9.6,9.6 0 0 0 9,10 9.6,9.6 0 0 0 10,-10 9.6,9.6 0 0 0 -10,-9 z m 210,0 a 12.1,12.1 0 0 0 -12,12 12.1,12.1 0 0 0 12,12 12.1,12.1 0 0 0 12,-12 12.1,12.1 0 0 0 -12,-12 z m -245,6 a 19.7,19.7 0 0 0 -20,20 19.7,19.7 0 0 0 20,20 19.7,19.7 0 0 0 20,-20 19.7,19.7 0 0 0 -20,-20 z m 144,41 a 12.1,12.1 0 0 0 -12,12 12.1,12.1 0 0 0 12,12 12.1,12.1 0 0 0 12,-12 12.1,12.1 0 0 0 -12,-12 z m -217,30 a 9.6,9.6 0 0 0 -10,9 9.6,9.6 0 0 0 10,10 9.6,9.6 0 0 0 10,-10 9.6,9.6 0 0 0 -10,-9 z m 137,8 a 10.6,10.6 0 0 0 -10,11 10.6,10.6 0 0 0 10,11 10.6,10.6 0 0 0 11,-11 10.6,10.6 0 0 0 -11,-11 z m -76,23 a 10.1,10.1 0 0 0 -10,10 10.1,10.1 0 0 0 10,10 10.1,10.1 0 0 0 10,-10 10.1,10.1 0 0 0 -10,-10 z m 35,10 a 10.1,10.1 0 0 0 -11,10 10.1,10.1 0 0 0 8,10 22.1,22.1 0 0 0 0,2 22.1,22.1 0 0 0 22,22 22.1,22.1 0 0 0 22,-22 22.1,22.1 0 0 0 -22,-22 22.1,22.1 0 0 0 -12,3 10.1,10.1 0 0 0 -7,-3 z m -132,1 a 17.8,17.8 0 0 0 -18,18 17.8,17.8 0 0 0 18,18 17.8,17.8 0 0 0 17,-18 17.8,17.8 0 0 0 -17,-18 z m 115,21 a 9.1,9.1 0 0 0 -9,9 9.1,9.1 0 0 0 9,9 9.1,9.1 0 0 0 9,-9 9.1,9.1 0 0 0 -9,-9 z" />
    <path
       id="interaksjon_selje"
       d="m 599,580 c -24,7 31,75 -2,43 -19,-15 -7,34 12,29 11,16 41,79 4,71 -19,21 57,68 47,28 -10,-21 -10,-46 -10,-69 0,-30 -20,-60 -40,-82 5,-11 4,-19 -11,-20 z m -788,23 c -33,13 -2,47 16,55 4,14 3,61 -12,31 -8,14 5,55 -11,57 -23,-26 -37,32 -1,19 36,15 76,-52 32,-52 -23,-10 27,-47 23,-43 -41,-6 -11,-56 -47,-67 z m -52,16 c -34,8 -1,49 -32,57 -21,14 4,50 1,46 -31,-3 -11,60 14,43 5,-23 -6,-50 25,-56 21,-17 -3,-45 -14,-40 18,-9 39,-45 6,-50 z m -87,48 c -6,5 -2,22 5,38 6,17 6,18 11,38 7,19 18,44 21,15 4,-26 -8,-39 -14,-66 -7,-28 -18,-30 -23,-25 z"/>
    <path
       id="interaksjon_krokus"
       transform="matrix(0.998,0,0,0.998,-368,48)"
       d="m 448,391 a 38.4,22.8 0 0 0 -38,23 38.4,22.8 0 0 0 38,23 38.4,22.8 0 0 0 38,-23 38.4,22.8 0 0 0 -38,-23 z m -65,60 a 38.4,22.8 0 0 0 -39,23 38.4,22.8 0 0 0 39,23 38.4,22.8 0 0 0 38,-23 38.4,22.8 0 0 0 -38,-23 z" />
    <path
       id="interaksjon_sukkererter"
       transform="matrix(0.998,0,0,0.998,-368,48)"
       d="m 643,597 a 52.4,28.8 0 0 0 -52,29 52.4,28.8 0 0 0 35,27 33.2,28.1 0 0 0 -11,21 33.2,28.1 0 0 0 33,28 33.2,28.1 0 0 0 31,-18 50,28.8 0 0 0 27,5 50,28.8 0 0 0 50,-29 50,28.8 0 0 0 -50,-29 50,28.8 0 0 0 -12,1 52.4,28.8 0 0 0 1,-6 52.4,28.8 0 0 0 -52,-29 z"/>
    <path
       onclick="toggle(tekst_jenny)"
       id="interaksjon_jenny"
       transform="matrix(0.998,0,0,0.998,-368,48)"
       d="m 845,459 c -18,0 -35,10 -48,25 -23,29 -22,69 1,91 3,2 6,4 9,6 -1,3 -2,7 -2,10 0,2 0,5 1,7 -34,10 -58,47 -58,91 0,10 1,21 4,30 l 140,2 c 3,-10 5,-21 5,-32 0,-44 -24,-82 -58,-92 0,-2 0,-4 0,-6 0,-1 0,-3 0,-4 16,-2 31,-11 42,-25 23,-29 22,-69 -1,-91 -10,-8 -22,-13 -35,-12 z" />
    <path
       id="interaksjon_samir"
       transform="matrix(0.998,0,0,0.998,-368,48)"
       d="m 691,425 c -16,0 -33,8 -45,22 -20,24 -18,64 1,79 7,5 15,9 24,9 0,0 0,0 0,1 -20,10 -32,30 -32,52 44,8 85,19 117,40 5,-9 -3,-37 -3,-48 -10,-45 -22,-55 -52,-58 0,-2 -1,-3 -1,-5 5,-4 10,-8 14,-13 20,-24 20,-56 1,-71 -7,-5 -15,-8 -24,-8 z" />
    <path
       id="interaksjon_bjork"
       d="m 164,-0.773 a 15.8,15.8 0 0 1 0,0.04 L 123,2.06 a 15.8,15.8 0 0 1 -1,0 c 0,0 -1,0.28 -1,0.68 L 95,44.1 a 15.8,15.8 0 0 1 0,0.1 c -0.5,0.7 -0.2,1.8 0.6,2.1 L 135,64 a 15.8,15.8 0 0 1 1,1 l 34,21.3 c 1,0.3 1,0.2 2,-0.2 l 20,-16.9 a 15.8,15.8 0 0 1 0,-0.6 c 1,-0.1 1,-0.2 1,-0.3 l 14,-24.7 0,0 c 1,-0.8 0,-2 0,-2.2 A 15.8,15.8 0 0 1 196,21.9 l 1,-3.5 a 15.8,15.8 0 0 1 0,-1.6 c 1,-0.7 0,-1.6 0,-1.9 L 165,-0.609 a 15.8,15.8 0 0 1 0,-0.04 c 0,-0.09 0,-0.113 -1,-0.127 z M 87,115 c -0.6,1 -1,1 -1.2,2 a 15.8,15.8 0 0 1 -6.1,12 c -2.3,2 -2.5,2 -2.8,2 a 15.8,15.8 0 0 1 0.1,0 c 0.2,0 0.4,0 0.6,0 -0.2,0 -0.5,0 -0.5,0 0.2,0 0.3,0 0.5,0 -0.1,0 -0.4,0 -0.4,0 0.1,0 0.3,0 0.4,0 -0.1,0 -0.3,0 -0.3,0 a 15.8,15.8 0 0 1 0,1 c 0.6,-1 1,-1 1.8,-2 -0.2,1 -0.5,1 -0.4,1 l 1.4,6 a 15.8,15.8 0 0 1 0.1,1 15.8,15.8 0 0 1 0.1,1 15.8,15.8 0 0 1 0.1,1 15.8,15.8 0 0 1 0.1,0 15.8,15.8 0 0 1 0,1 15.8,15.8 0 0 1 0,1 15.8,15.8 0 0 1 -0.1,1 15.8,15.8 0 0 1 -0.1,0 15.8,15.8 0 0 1 -0.2,1 15.8,15.8 0 0 1 -0.1,1 15.8,15.8 0 0 1 -0.3,1 15.8,15.8 0 0 1 -0.2,0 15.8,15.8 0 0 1 -0.3,1 15.8,15.8 0 0 1 -0.3,1 15.8,15.8 0 0 1 -0.4,1 15.8,15.8 0 0 1 -0.3,0 15.8,15.8 0 0 1 -0.5,1 15.8,15.8 0 0 1 -0.4,1 15.8,15.8 0 0 1 -0.6,0 15.8,15.8 0 0 1 -0.4,1 15.8,15.8 0 0 1 -0.6,0 15.8,15.8 0 0 1 -0.6,1 15.8,15.8 0 0 1 -0.6,0 15.8,15.8 0 0 1 -0.6,1 15.8,15.8 0 0 1 -0.4,0 c -0.5,0 -0.1,0 -0.6,0 a 15.8,15.8 0 0 1 -0.1,1 c -0.1,0 -0.1,0 -0.1,0 l 0,0 a 15.8,15.8 0 0 1 -0.4,0 c 0,0 0,0 -0.1,0 -7,4 -6.7,4 -3.1,2 -2.2,2 -1.4,2 2.5,-1 0,0 -0.1,1 0,1 l 3.9,9 A 15.8,15.8 0 0 1 75,179 l -4.2,8 a 15.8,15.8 0 0 1 -0.1,0 c -0.3,1 -0.2,2 0.2,2 a 15.8,15.8 0 0 1 0.1,0 l 13,14 c 0,0 0,0 0,0 0.1,0 0.3,0 0.5,0 a 15.8,15.8 0 0 1 21.5,18 l -14.3,63 a 15.8,15.8 0 0 1 0,1 c -0.1,0 -0.1,1 0.1,1 a 15.8,15.8 0 0 1 0.2,0 l 22,39 c 1,0 1,0 2,0 l 52,-7 a 15.8,15.8 0 0 1 11,3 l 67,48 a 15.8,15.8 0 0 1 6,10 c 23,102 54,198 96,290 1,2 2,3 3,3 2,1 4,1 4,1 a 15.8,15.8 0 0 1 3,0 c 2,1 4,1 9,-1 3,-1 7,-4 10,-6 3,-3 5,-7 5,-10 a 15.8,15.8 0 0 1 0,-1 c 0,0 0,0 0,0 -31,-69 -64,-135 -86,-210 a 15.8,15.8 0 0 1 -1,-4 c -1,-17 6,-34 19,-45 14,-14 34,-25 61,-35 l -1,0 c 1,0 1,0 1,-1 6,-44 -4,-85 -8,-127 a 15.8,15.8 0 0 1 19,-17 c 0,0 1,0 1,-1 l 10,-4 a 15.8,15.8 0 0 1 1,-1 c 0,0 0,0 0,0 a 15.8,15.8 0 0 1 19,-7 l 12,4 c 0,0 1,0 1,0 l 18,-14 a 15.8,15.8 0 0 1 1,-1 c 0,0 0,-2 -1,-2 a 15.8,15.8 0 0 1 0,-1 l -34,-20 c 0,0 0,0 0,0 a 15.8,15.8 0 0 1 -1,0 l -33,-6 c 0,-1 -1,0 -1,0 l -11,15 a 15.8,15.8 0 0 1 -10,6 l -18,4 a 15.8,15.8 0 0 1 -1,1 l -27,7 c 0,0 0,0 0,1 0,0 0,0 0,0 l -39,36 a 15.8,15.8 0 0 1 -1,2 l -13,18 a 15.8,15.8 0 0 1 -28,-3 l -6,-14 c 0,0 0,-1 -1,-1 l -15,-5 c -1,0 -1,0 -2,0 a 15.8,15.8 0 0 1 -18,-2 l -13,-12 a 15.8,15.8 0 0 1 0,-1 l -20,-21 a 15.8,15.8 0 0 1 -5,-9 l -4,-31 c 0,0 0,-1 0,-1 l -27,-32 c 0,0 -1,0 -1,0 l -31.7,-5 c -0.1,-1 -0.2,-1 -0.3,-1 z m 114,150 a 15.8,15.8 0 0 1 11,5 l 2,2 a 15.8,15.8 0 0 1 4,3 l 1,1 a 15.8,15.8 0 0 1 4,6 l 8,26 a 15.8,15.8 0 0 1 -24,18 l -17,-12 a 15.8,15.8 0 0 1 -7,-15 l 2,-20 a 15.8,15.8 0 0 1 16,-14 z"
       transform="matrix(0.998,0,0,0.998,-368,48)" />
    <path
       id="interaksjon_katt"
       transform="matrix(0.998,0,0,0.998,-368,48)"
       d="m 407,30.8 a 10.4,37 0.79 0 0 -11,37.4 10.4,37 0.79 0 0 5,31.7 16.3,31 49.9 0 0 -3,5.1 20.1,38.6 38.2 0 0 -3,-1 14.5,29.2 0 0 0 1,-11.8 14.5,29.2 0 0 0 -14,-29.1 14.5,29.2 0 0 0 -15,29.1 14.5,29.2 0 0 0 5,19.8 20.1,38.6 38.2 0 0 -8,7 20.1,38.6 38.2 0 0 -15,27 27.4,12.1 0 0 0 -24,12 27.4,12.1 0 0 0 9,9 8,24.1 30.7 0 0 -9,24 8,24.1 30.7 0 0 15,-4 8,24.1 30.7 0 0 10,-17 27.4,12.1 0 0 0 3,0 8,24.1 30.7 0 0 -3,14 8,24.1 30.7 0 0 14,-3 8,24.1 30.7 0 0 10,-15 27.4,12.1 0 0 0 5,-4 20.1,38.6 38.2 0 0 9,-8 20.1,38.6 38.2 0 0 15,-25 16.3,31 49.9 0 0 24,-9 16.3,31 49.9 0 0 17,-33.4 16.3,31 49.9 0 0 -29,0.8 10.4,37 0.79 0 0 2,-20 10.4,37 0.79 0 0 -10,-36.6 z"/>
    <path
       id="interaksjon_hen"
       transform="matrix(0.998,0,0,0.998,-368,48)"
       d="m 199,321 a 6.25,23.6 19.4 0 0 -14,21 6.25,23.6 19.4 0 0 -4,18 22.7,22.5 0 0 0 -7,16 22.7,22.5 0 0 0 2,7 20.9,35 26.5 0 0 -10,13 20.9,35 26.5 0 0 -5,30 14.1,55.8 38.8 0 0 -32,31 14.1,55.8 38.8 0 0 -18,27 20.6,12.3 51.5 0 0 -21,-9 20.6,12.3 51.5 0 0 2.7,24 20.6,12.3 51.5 0 0 11.3,9 14.1,55.8 38.8 0 0 1,2 14.1,55.8 38.8 0 0 46,-35 14.1,55.8 38.8 0 0 6,-9 14.1,55.8 19.9 0 0 -2,5 14.1,55.8 19.9 0 0 -9,38 12.3,20.7 48 0 0 -1,13 12.3,20.7 48 0 0 1,1 14.1,55.8 19.9 0 0 4,6 14.1,55.8 19.9 0 0 9,-5 12.3,20.7 48 0 0 10,-6 12.3,20.7 48 0 0 8,-23 12.3,20.7 48 0 0 0,-1 14.1,55.8 19.9 0 0 5,-13 14.1,55.8 19.9 0 0 10,-50 20.9,35 26.5 0 0 11,-14 20.9,35 26.5 0 0 6,-21 22.7,22.5 0 0 0 11,-20 6.25,23.6 35.9 0 0 9,-10 6.25,23.6 35.9 0 0 10,-23 6.25,23.6 35.9 0 0 -19,16 6.25,23.6 35.9 0 0 -3,5 22.7,22.5 0 0 0 -20,-10 22.7,22.5 0 0 0 -3,0 6.25,23.6 19.4 0 0 3,-8 6.25,23.6 19.4 0 0 2,-25 z"/>
    <path
       id="interaksjon_humle"
       transform="matrix(0.998,0,0,0.998,-368,48)"
       d="m 1030,539 a 7.1,16.6 73.8 0 0 -10,2 7.1,16.6 73.8 0 0 -10,4 23.7,15.4 49.2 0 0 -19,-2 23.7,15.4 49.2 0 0 4,29 23.7,15.4 49.2 0 0 25,8 23.7,15.4 49.2 0 0 0,-25 7.1,16.6 73.8 0 0 10,-2 7.1,16.6 73.8 0 0 10,-11 7.1,16.6 73.8 0 0 -10,-3 z m -811,46 a 23.7,15.4 28.4 0 0 -14,6 23.7,15.4 28.4 0 0 14,24 23.7,15.4 28.4 0 0 28,-1 23.7,15.4 28.4 0 0 -14,-25 23.7,15.4 28.4 0 0 -14,-4 z"/>
  </g>
  <g
     
     id="layer2">
    <g id="tekst_romskip">
       
      <rect
         id="rect4155"
         width="142"
         height="43.9"
         x="53.6"
         y="70.5"
         ry="12.9" />
      <text
         xml:space="preserve"
         x="124.32163"
         y="100.98623"
         id="text4151"><tspan
           id="tspan4153"
           x="124.32163"
           y="100.98623">romskip</tspan></text>
    </g>
    <g
       id="tekst_katt">
      <rect
         ry="12.9"
         y="102"
         x="400"
         height="43.9"
         width="82.3"
         id="rect4174"/>
      <text
         id="text4176"
         y="135.12883"
         x="439.64365"
         xml:space="preserve"><tspan
           y="135.12883"
           x="439.64365"
           id="tspan4178">Katt</tspan></text>
    </g>
    <g
       id="tekst_jenny">
      <rect
         ry="12.9"
         y="571"
         x="839"
         height="43.8"
         width="105"
         id="rect4174-1"/>
      <text
         id="text4176-2"
         y="600.4812"
         x="892.90436"
         xml:space="preserve"><tspan
           y="600.4812"
           x="892.90436"
           id="tspan4178-3">Jenny</tspan></text>
    </g>
    <g
       id="tekst_samir">
      <rect
         ry="12.9"
         y="521"
         x="555"
         height="43.8"
         width="108"
         id="rect4174-9"/>
      <text
         id="text4176-0"
         y="553.4812"
         x="607.5603"
         xml:space="preserve"><tspan
           y="553.4812"
           x="607.5603"
           id="tspan4178-4">Samir</tspan></text>
    </g>
    <g
       id="tekst_hen">
      <rect
         id="rect4242"
         width="82.3"
         height="43.9"
         x="175"
         y="416"
         ry="12.9" />
      <text
         xml:space="preserve"
         x="216.13763"
         y="448.98883"
         id="text4244"><tspan
           id="tspan4246"
           x="216.13763"
           y="448.98883">Hen</tspan></text>
    </g>
    <g
       id="tekst_sukkererter">
      <rect
         id="rect4258"
         width="193"
         height="43.8"
         x="525"
         y="642"
         ry="12.9" />
      <text
         xml:space="preserve"
         x="620.2243"
         y="675.44421"
         id="text4260"><tspan
           id="tspan4262"
           x="620.2243"
           y="675.44421">sukkererter</tspan></text>
    </g>
    <g
       id="tekst_bjork">
      <rect
         id="rect4274"
         width="93.7"
         height="43.8"
         x="221"
         y="493"
         ry="12.9" />
      <text
         xml:space="preserve"
         x="266.66434"
         y="522.57678"
         id="text4276"><tspan
           id="tspan4278"
           x="266.66434"
           y="522.57678">bjørk</tspan></text>
    </g>
    <g
       id="tekst_krokus">
      <g
         id="g4813">
        <rect
           ry="12.9"
           y="490"
           x="359"
           height="43.8"
           width="116"
           id="rect4290"/>
        <text
           id="text4292"
           y="522.79846"
           x="416.72372"
           xml:space="preserve"><tspan
             y="522.79846"
             x="416.72372"
             id="tspan4294">krokus</tspan></text>
      </g>
      <g
         id="g4818">
        <rect
           id="rect4314"
           width="47.7"
           height="17.7"
           x="431"
           y="428"
           ry="5.2" />
        <text
           transform="scale(0.5,0.5), translate(460,440)"
           xml:space="preserve"
           x="450.61496"
           y="445.97562"
           id="text4316"><tspan
             id="tspan4318"
             x="450.61496"
             y="445.97562">krokus</tspan></text>
      </g>
    </g>
    <g
       id="tekst_humle">
      <g
         id="g4843">
        <rect
           
           id="rect4322"
           width="89.7"
           height="33.8"
           x="220"
           y="603"
           ry="9.93" />
        <text
           xml:space="preserve"
           
           x="264.2247"
           y="629.85046"
           id="text4324"><tspan
             id="tspan4326"
             x="264.2247"
             y="629.85046">humle</tspan></text>
      </g>
      <g
         id="g4788">
        <rect
           
           id="rect4322-4"
           width="64.4"
           height="24.1"
           x="968"
           y="512"
           ry="7.08" />
        <text
           
           xml:space="preserve"
           transform="translate(505,262), scale(0.5,0.5)"
           x="990.10773"
           y="534.36823"
           id="text4324-1"><tspan
             id="tspan4326-3"
             x="990.10773"
             y="534.36823">humle</tspan></text>
      </g>
    </g>
    <g
       id="tekst_selje">
      <g
         id="g4793">
        <rect
           
           id="rect4174-9-9"
           width="64.4"
           height="32"
           x="942"
           y="621"
           ry="9.43" />
        <text
           transform="scale(1,0.998)"
           xml:space="preserve"
           
           x="972.11279"
           y="644.59833"
           id="text4176-0-4"><tspan
             id="tspan4178-4-4"
             x="972.11279"
             y="644.59833">selje</tspan></text>
      </g>
      <g
         id="g4853">
        <rect
           
           id="rect4174-9-9-3"
           width="64.4"
           height="32"
           x="124"
           y="640"
           ry="9.43" />
        <text
           transform="scale(1,0.998)"
           xml:space="preserve"
           
           x="155.78615"
           y="663.63727"
           id="text4176-0-4-4"><tspan
             id="tspan4178-4-4-2"
             x="155.78615"
             y="663.63727">selje</tspan></text>
      </g>
    </g>
    <g
       id="tekst_hestehov">
      <rect
         
         id="rect4410"
         width="71.6"
         height="20"
         x="239"
         y="646"
         ry="5.9" />
      <text
         xml:space="preserve"
         x="273.16373"
         y="666.46094"
         id="text4412"
         transform="scale(0.5,0.5), translate(280,655)"><tspan
           id="tspan4414"
           x="273.16373"
           y="666.46094">hestehov</tspan></text>
    </g>
  </g>
   
</svg>
