<?xml version="1.0" encoding="UTF-8"?>
<!DOCTYPE svg PUBLIC "-//W3C//DTD SVG 1.0//EN" "http://www.w3.org/TR/2001/REC-SVG-20010904/DTD/svg10.dtd">
<svg xmlns="http://www.w3.org/2000/svg" width="100%" height="100%">
    <desc></desc>
    <defs>
        <symbol id="icon-kort" viewBox="0 0 32 32">
            <title>kort</title>
            <path d="M3 1v30h26v-30zM5 3h22v26h-22z"></path>
            <path d="M7 5v2h18v-2zM7 9v2h18v-2zM7 13v2h18v-2zM7 17v2h18v-2zM7 21v2h18v-2zM7 25v2h18v-2z"></path>
        </symbol>
        <symbol id="icon-lang" viewBox="0 0 32 32">
            <title>lang</title>
            <path d="M3 1v27h3v3h23v-27h-3v-3zM5 3h19v1h-18v22h-1zM8 6h19v23h-19v-3z"></path>
            <path d="M10 7.945v2.109h15v-2.109zM10 10.945v2.109h15v-2.109zM10 13.945v2.109h15v-2.109zM10 18.945v2.109h15v-2.109zM10 21.945v2.109h15v-2.109zM10 24.945v2.109h15v-2.109z"></path>
        </symbol>
        <symbol id="icon-abc" viewBox="0 0 32 32">
            <title>abc</title>
            <path d="M11.027 6.027v17.596h1.889v-1.9c0.392 0.754 0.885 1.316 1.48 1.686 0.603 0.362 1.323 0.543 2.16 0.543 1.387 0 2.51-0.611 3.369-1.832 0.867-1.221 1.301-2.828 1.301-4.818s-0.434-3.595-1.301-4.816c-0.859-1.221-1.982-1.832-3.369-1.832-0.837 0-1.557 0.185-2.16 0.555-0.596 0.362-1.088 0.92-1.48 1.674v-6.854h-1.889zM5.301 10.652c-0.611 0-1.24 0.076-1.889 0.227-0.641 0.143-1.304 0.362-1.99 0.656v1.922c0.573-0.347 1.169-0.606 1.787-0.779s1.25-0.262 1.898-0.262c1.025 0 1.821 0.265 2.387 0.793 0.565 0.52 0.848 1.257 0.848 2.215v0.205h-2.623c-1.704 0-2.986 0.36-3.846 1.084-0.852 0.724-1.277 1.798-1.277 3.223 0 1.221 0.343 2.198 1.029 2.93 0.686 0.724 1.613 1.086 2.781 1.086 0.927 0 1.709-0.181 2.342-0.543 0.641-0.369 1.172-0.938 1.594-1.707v1.922h1.877v-7.227c0-1.93-0.407-3.369-1.221-4.318s-2.046-1.426-3.697-1.426zM27.691 10.652c-1.771 0-3.17 0.592-4.195 1.775-1.018 1.184-1.527 2.808-1.527 4.873 0 2.035 0.506 3.653 1.516 4.852s2.375 1.799 4.094 1.799c0.626 0 1.218-0.069 1.775-0.205 0.565-0.136 1.109-0.338 1.629-0.609v-1.922c-0.528 0.324-1.060 0.569-1.596 0.734-0.528 0.158-1.063 0.236-1.605 0.236-1.221 0-2.167-0.426-2.838-1.277-0.671-0.859-1.006-2.062-1.006-3.607s0.335-2.744 1.006-3.596c0.671-0.859 1.617-1.289 2.838-1.289 0.543 0 1.078 0.084 1.605 0.25 0.535 0.158 1.068 0.399 1.596 0.723v-1.943c-0.513-0.264-1.045-0.462-1.596-0.59-0.55-0.136-1.115-0.203-1.695-0.203zM16.104 12.395c0.988 0 1.765 0.436 2.33 1.311 0.565 0.867 0.848 2.065 0.848 3.596s-0.282 2.733-0.848 3.607c-0.565 0.867-1.343 1.301-2.33 1.301-0.995 0-1.774-0.434-2.34-1.301-0.565-0.874-0.848-2.077-0.848-3.607s0.282-2.729 0.848-3.596c0.565-0.874 1.345-1.311 2.34-1.311zM6.488 17.256h1.854v0.465c0 1.357-0.314 2.446-0.939 3.268-0.626 0.814-1.458 1.221-2.498 1.221-0.754 0-1.35-0.215-1.787-0.645-0.437-0.437-0.656-1.025-0.656-1.764 0-0.927 0.291-1.582 0.871-1.967 0.588-0.384 1.641-0.578 3.156-0.578z"></path>
        </symbol>
        <symbol id="icon-snutt" viewBox="0 0 32 32">
            <title>snutt</title>
            <path d="M3 1v30h26v-30zM5 3h22v26h-22z"></path>
            <path d="M7 19v2h18v-2zM7 22v2h18v-2zM7 25v2h18v-2z"></path>
            <path d="M7 4.055v13.445h18v-13.445h-18zM8 5.055h16v10.945l-5-3-3 1-5-5-3 3v-6.945z"></path>
            <path d="M21.688 9.063c0 0.828-0.672 1.5-1.5 1.5s-1.5-0.672-1.5-1.5c0-0.828 0.672-1.5 1.5-1.5s1.5 0.672 1.5 1.5z"></path>
        </symbol>
        <symbol id="icon-kviss" viewBox="0 0 32 32">
            <title>kviss</title>
            <path d="M5.492 7.565c0 1.734 1.156 2.89 2.732 2.89 1.681 0 2.732-1.366 2.732-2.732 0-0.473-0.158-0.998-0.368-1.419 0.893-0.893 2.68-1.208 4.834-1.208 2.995 0 5.727 0.63 6.515 1.944 0.105 0.263 0.105 0.368 0.105 0.683s0 0.42-0.105 0.683c-0.263 0.368-0.683 0.788-1.261 1.103-4.203 2.154-6.83 4.939-7.618 8.196-0.21 0.841-0.263 1.261-0.263 2.89v0.873c0 1.108 0.736 1.806 2.364 1.806s2.469-0.737 2.469-1.912v-0.873c0.053-1.524 0.053-1.629 0.158-2.102 0.63-2.049 2.417-3.941 5.149-5.412 0.736-0.42 0.946-0.525 1.524-0.998 1.261-1.051 2.049-2.522 2.049-4.256 0-1.576-0.841-3.258-2.154-4.308-1.944-1.629-4.991-2.364-8.827-2.364-5.307 0-10.035 2.102-10.035 6.515zM12.217 27.903c0 1.786 1.103 3.047 2.942 3.047s3.047-1.235 3.047-3.047c0-1.813-1.181-2.942-2.89-2.995s-3.1 1.208-3.1 2.995z"></path>
        </symbol>
        <symbol id="icon-film-neg" viewBox="0 0 32 32">
            <title>film-neg</title>
            <path fill="#000" style="fill: var(--color1, #000)" d="M2 2h28v28h-28z"></path>
            <path fill="#fff" style="fill: var(--color2, #fff)" d="M8 5l19 11-19 11z"></path>
        </symbol>
        <symbol id="icon-film" viewBox="0 0 32 32">
            <title>film</title>
            <path d="M11 8.474l13 7.526-13 7.526z"></path>
            <path d="M6 2c-2.199 0-4 1.801-4 4v20c0 2.199 1.801 4 4 4h20c2.199 0 4-1.801 4-4v-20c0-2.199-1.801-4-4-4zM6 4h20c1.125 0 2 0.875 2 2v20c0 1.125-0.875 2-2 2h-20c-1.125 0-2-0.875-2-2v-20c0-1.125 0.875-2 2-2z"></path>
        </symbol>
        <symbol id="icon-finn" viewBox="0 0 32 32">
            <title>finn</title>
            <path d="M4.521 4.487c-4.688 4.666-4.707 12.282-0.041 16.971 4.428 4.449 11.508 4.684 16.226 0.71l7.403 8.857 2.835-2.822-8.821-7.446c3.997-4.699 3.796-11.78-0.632-16.229-4.666-4.688-12.282-4.707-16.971-0.041zM6.060 6.033c3.853-3.834 10.051-3.819 13.885 0.033s3.819 10.051-0.033 13.885c-3.853 3.834-10.051 3.819-13.885-0.033s-3.819-10.051 0.033-13.885z"></path>
        </symbol>
        <symbol id="icon-romskip" viewBox="0 0 32 32">
            <title>romskip</title>
            <path d="M16 1c-8.272 0-15 6.728-15 15s6.728 15 15 15c8.272 0 15-6.728 15-15s-6.728-15-15-15zM16 3c7.192 0 13 5.808 13 13s-5.808 13-13 13c-7.192 0-13-5.808-13-13s5.808-13 13-13zM15.969 3.438l-0.297 0.004-0.318 0.012-0.002 0.002-0.32 0.020-0.314 0.027h-0.004l-0.309 0.037h-0.008l-0.309 0.043h-0.004l-0.305 0.051h-0.002l-0.004 0.002-0.303 0.057-0.002 0.002h-0.004l-0.299 0.064-0.002 0.002h-0.004l-0.297 0.072-0.002 0.002h-0.004l-0.293 0.080h-0.004l-0.002 0.002-0.291 0.086h-0.004l-0.002 0.002-0.287 0.094h-0.004l-0.002 0.002-0.010 0.002-0.145 0.137v0.199l0.145 0.135 0.168 0.002 0.002-0.002h0.002l0.004-0.002 0.281-0.092 0.285-0.084 0.281-0.076h0.002l0.004-0.002 0.291-0.070 0.287-0.063 0.301-0.059 0.293-0.047 0.002-0.002h0.004l0.295-0.041h0.006l0.303-0.035 0.305-0.027 0.303-0.020 0.314-0.012 0.283-0.004 0.182-0.082 0.064-0.188-0.094-0.176-0.158-0.055zM18.004 3.598l-0.193 0.049-0.096 0.174 0.063 0.189 0.146 0.080 0.209 0.035 0.301 0.059 0.287 0.063h0.002l0.004 0.002 0.285 0.068h0.004l0.002 0.002 0.281 0.076 0.006 0.002 0.279 0.082 0.287 0.094 0.273 0.096 0.004 0.002h0.002l0.27 0.104 0.271 0.111h0.002l0.004 0.002 0.264 0.115 0.266 0.123 0.266 0.133h0.002l0.129 0.068 0.199 0.016 0.146-0.135 0.002-0.199-0.113-0.123-0.135-0.072h-0.004l-0.002-0.002-0.268-0.133-0.002-0.002h-0.004l-0.273-0.129h-0.002l-0.275-0.121h-0.002l-0.004-0.002-0.277-0.113-0.004-0.002h-0.002l-0.281-0.107-0.004-0.002h-0.002l-0.285-0.1-0.002-0.002h-0.004l-0.287-0.094-0.002-0.002h-0.004l-0.291-0.086-0.002-0.002h-0.004l-0.293-0.080-0.004-0.002h-0.002l-0.297-0.072h-0.002l-0.004-0.002-0.299-0.064h-0.004l-0.002-0.002-0.303-0.057-0.004-0.002h-0.002l-0.217-0.035zM15.996 4.688l-0.137 0.002-0.182 0.082-0.064 0.188 0.096 0.176 0.158 0.055 0.137-0.002 0.271 0.004 0.078 0.002 0.186-0.072 0.074-0.186-0.086-0.18-0.154-0.061-0.078-0.004h-0.006l-0.293-0.004zM14.334 4.811l-0.053 0.008h-0.006l-0.273 0.045h-0.004l-0.004 0.002-0.164 0.031-0.166 0.113-0.029 0.195 0.123 0.158 0.166 0.023 0.166-0.031 0.26-0.043h0.002l0.053-0.008 0.17-0.104 0.039-0.195-0.115-0.162-0.164-0.033zM17.895 4.846l-0.193 0.049-0.096 0.176 0.063 0.188 0.146 0.082 0.098 0.016 0.27 0.053 0.111 0.023 0.195-0.039 0.104-0.168-0.051-0.193-0.143-0.088-0.115-0.025h-0.004l-0.002-0.002-0.271-0.051-0.004-0.002h-0.002l-0.105-0.018zM10.26 4.887l-0.166 0.023-0.080 0.043h-0.002l-0.002 0.002-0.26 0.146h-0.004l-0.002 0.002-0.256 0.152h-0.002l-0.004 0.002-0.252 0.158h-0.002l-0.002 0.002-0.248 0.164-0.002 0.002h-0.004l-0.242 0.17-0.002 0.002-0.004 0.002-0.238 0.174-0.002 0.002-0.004 0.002-0.234 0.18-0.004 0.004-0.23 0.186-0.002 0.002-0.004 0.002-0.225 0.189-0.002 0.002-0.004 0.002-0.225 0.201-0.221 0.205-0.215 0.211-0.211 0.215-0.041 0.045-0.066 0.189 0.092 0.176 0.191 0.053 0.148-0.076 0.037-0.041 0.004-0.002v-0.002l0.203-0.207 0.207-0.203 0.211-0.197 0.217-0.191 0.217-0.184 0.002-0.002 0.004-0.002 0.221-0.178 0.004-0.004 0.23-0.176 0.23-0.168 0.004-0.004 0.238-0.164 0.244-0.16 0.24-0.15 0.002-0.002 0.004-0.002 0.25-0.148 0.25-0.139 0.006-0.002 0.072-0.039 0.125-0.156-0.029-0.197-0.162-0.113zM12.346 5.291l-0.232 0.082-0.004 0.002h-0.002l-0.238 0.090-0.143 0.141 0.004 0.199 0.15 0.133 0.166-0.004 0.232-0.090h0.002l0.004-0.002 0.227-0.078 0.145-0.137 0.002-0.199-0.146-0.137h-0.166zM19.869 5.367l-0.199 0.014-0.125 0.154 0.027 0.197 0.131 0.105 0.018 0.006 0.24 0.092 0.195 0.080 0.199-0.004 0.133-0.148-0.018-0.199-0.125-0.111-0.195-0.080h-0.002l-0.004-0.002-0.252-0.096-0.002-0.002h-0.004l-0.018-0.006zM23.385 5.932l-0.168 0.109-0.035 0.195 0.092 0.141 0.172 0.131 0.004 0.004 0.221 0.178 0.002 0.002 0.004 0.002 0.217 0.184 0.217 0.191 0.004 0.004 0.211 0.197 0.207 0.203 0.203 0.207 0.195 0.209 0.002 0.004 0.191 0.215 0.184 0.217 0.002 0.004 0.002 0.002 0.178 0.221 0.004 0.004 0.176 0.23 0.168 0.23 0.004 0.004 0.127 0.186 0.17 0.105 0.191-0.053 0.094-0.176-0.043-0.162-0.133-0.189-0.002-0.002-0.002-0.004-0.174-0.238-0.002-0.002-0.002-0.004-0.18-0.234-0.004-0.004-0.186-0.23-0.002-0.002-0.002-0.004-0.189-0.225-0.004-0.004-0.197-0.223-0.004-0.004-0.205-0.221-0.211-0.215-0.215-0.211-0.221-0.205-0.221-0.195-0.004-0.002-0.002-0.002-0.225-0.191-0.004-0.002-0.002-0.002-0.23-0.186-0.004-0.004-0.176-0.135-0.193-0.049zM10.646 6.096l-0.164 0.027-0.111 0.063h-0.002l-0.002 0.002-0.23 0.137-0.002 0.002h-0.004l-0.090 0.057-0.113 0.164 0.043 0.195 0.172 0.102 0.164-0.037 0.084-0.053h0.002l0.004-0.002 0.219-0.131 0.002-0.002h0.004l0.105-0.061 0.121-0.158-0.033-0.195-0.168-0.109zM21.521 6.215l-0.152 0.127-0.012 0.199 0.107 0.129 0.139 0.082 0.004 0.002h0.002l0.217 0.135 0.004 0.004 0.051 0.033 0.195 0.033 0.16-0.119 0.020-0.199-0.102-0.133-0.055-0.037h-0.002l-0.002-0.002-0.227-0.143h-0.002l-0.004-0.002-0.145-0.086-0.197-0.023zM8.951 7.219l-0.156 0.061-0.195 0.164-0.004 0.002-0.002 0.002-0.182 0.162-0.084 0.182 0.074 0.184 0.188 0.072 0.154-0.063 0.178-0.158 0.004-0.004 0.191-0.162 0.088-0.178-0.070-0.188-0.184-0.076zM23.188 7.367l-0.172 0.102-0.045 0.193 0.084 0.145 0.020 0.016 0.004 0.004 0.189 0.168 0.15 0.139 0.188 0.066 0.176-0.092 0.055-0.191-0.078-0.148-0.148-0.139-0.004-0.002-0.002-0.002-0.197-0.178-0.004-0.002-0.002-0.002-0.021-0.018-0.191-0.059zM7.49 8.631l-0.143 0.084-0.074 0.086-0.002 0.004-0.002 0.002-0.168 0.207-0.004 0.004-0.072 0.096-0.049 0.193 0.109 0.166 0.197 0.035 0.139-0.090 0.070-0.092 0.004-0.004 0.162-0.203 0.070-0.082 0.057-0.191-0.1-0.172-0.195-0.043zM24.625 8.801l-0.189 0.066-0.080 0.182 0.057 0.158 0.092 0.115 0.004 0.004 0.203 0.268 0.172 0.1 0.189-0.057 0.090-0.178-0.049-0.16-0.047-0.064-0.002-0.002-0.002-0.004-0.16-0.211-0.004-0.004-0.098-0.119-0.176-0.094zM5.727 8.869l-0.137 0.096-0.006 0.008v0.004l-0.002 0.002-0.164 0.248-0.002 0.002v0.002l-0.158 0.252-0.002 0.004-0.002 0.002-0.15 0.256-0.002 0.002-0.002 0.004-0.145 0.26-0.002 0.002v0.002l-0.141 0.264v0.004l-0.002 0.002-0.133 0.268-0.002 0.002v0.004l-0.127 0.27-0.002 0.004v0.002l-0.121 0.275-0.002 0.002v0.004l-0.113 0.277-0.002 0.002v0.004l-0.107 0.281-0.002 0.002v0.004l-0.102 0.285v0.002l-0.002 0.004-0.092 0.287-0.002 0.002v0.004l-0.088 0.291v0.006l-0.027 0.096 0.029 0.197 0.164 0.113 0.195-0.043 0.094-0.137 0.025-0.096h0.002l0.082-0.279 0.092-0.281v-0.002l0.002-0.004 0.096-0.273 0.002-0.004v-0.002l0.104-0.27 0.111-0.273 0.002-0.004 0.115-0.264 0.123-0.266 0.133-0.266v-0.002l0.135-0.252 0.002-0.006 0.139-0.25 0.148-0.25 0.002-0.004 0.002-0.002 0.15-0.24 0.16-0.244 0.004-0.008 0.039-0.195-0.115-0.162-0.197-0.023zM6.301 10.279l-0.127 0.111-0.119 0.215-0.004 0.004-0.117 0.225-0.016 0.199 0.135 0.146 0.199 0.002 0.123-0.113 0.115-0.219 0.002-0.002 0.002-0.004 0.117-0.209 0.020-0.199-0.131-0.15-0.199-0.006zM25.777 10.467l-0.197 0.033-0.109 0.166 0.029 0.166 0.008 0.016 0.002 0.002 0.119 0.225 0.094 0.191 0.152 0.129 0.199-0.025 0.117-0.16-0.021-0.166-0.094-0.191-0.002-0.002v-0.002l-0.125-0.238-0.004-0.004-0.010-0.018-0.158-0.121zM27.238 10.561l-0.197 0.020-0.121 0.158 0.016 0.166 0.063 0.135 0.115 0.264 0.002 0.004 0.111 0.273 0.104 0.27v0.002l0.002 0.004 0.096 0.273 0.002 0.004v0.002l0.092 0.281 0.082 0.279h0.002v0.006l0.076 0.281 0.002 0.002v0.004l0.070 0.291 0.063 0.287 0.059 0.301 0.049 0.293v0.006l0.041 0.295v0.002l0.002 0.004 0.021 0.193 0.1 0.174 0.193 0.043 0.166-0.111 0.037-0.162-0.021-0.199-0.002-0.004v-0.004l-0.043-0.307v-0.006l-0.051-0.305v-0.002l-0.002-0.004-0.057-0.303-0.002-0.002v-0.004l-0.064-0.299-0.002-0.002v-0.004l-0.072-0.297-0.002-0.002v-0.004l-0.080-0.293v-0.004l-0.002-0.002-0.086-0.291v-0.004l-0.002-0.002-0.094-0.287v-0.004l-0.002-0.002-0.1-0.285v-0.002l-0.002-0.004-0.107-0.281v-0.002l-0.002-0.004-0.113-0.277-0.002-0.004v-0.002l-0.121-0.275v-0.002l-0.002-0.002-0.063-0.137-0.15-0.131zM5.629 12.088l-0.197 0.027-0.105 0.131-0.043 0.123-0.002 0.002v0.004l-0.084 0.258-0.002 0.004v0.002l-0.027 0.094 0.023 0.197 0.16 0.117 0.197-0.037 0.098-0.135 0.025-0.088h0.002l0.080-0.252 0.002-0.002v-0.004l0.043-0.117-0.016-0.199-0.154-0.125zM26.418 12.311l-0.141 0.143-0.004 0.166 0.055 0.168 0.074 0.256 0.014 0.043 0.123 0.156 0.199 0.016 0.146-0.135 0.014-0.168-0.014-0.049-0.002-0.004v-0.002l-0.078-0.262v-0.002l-0.002-0.004-0.055-0.168-0.131-0.148-0.199-0.006zM5.098 14.016l-0.189 0.063-0.082 0.146-0.008 0.049v0.004l-0.002 0.004-0.037 0.275-0.002 0.002v0.004l-0.020 0.17 0.059 0.189 0.18 0.088 0.186-0.070 0.074-0.15 0.018-0.164v-0.002l0.002-0.004 0.035-0.264 0.002-0.004v-0.002l0.008-0.043-0.049-0.193-0.174-0.098zM26.908 14.244l-0.162 0.115-0.035 0.164 0.014 0.096 0.002 0.004v0.002l0.031 0.271 0.010 0.111 0.094 0.176 0.193 0.049 0.168-0.107 0.043-0.162-0.012-0.115v-0.008l-0.031-0.277-0.002-0.002v-0.004l-0.014-0.102-0.104-0.17-0.195-0.041zM3.768 14.438l-0.186 0.072-0.072 0.15-0.008 0.053v0.006l-0.027 0.313v0.006l-0.022 0.313v0.008l-0.012 0.314v0.008l-0.004 0.316v0.008l0.004 0.316v0.008l0.012 0.314v0.006l0.022 0.314v0.006l0.027 0.313v0.006l0.035 0.309 0.002 0.004v0.004l0.043 0.307v0.006l0.051 0.305v0.002l0.002 0.004 0.057 0.303 0.002 0.002v0.004l0.039 0.182 0.117 0.162 0.197 0.025 0.154-0.127 0.021-0.166-0.039-0.178-0.059-0.301-0.049-0.293v-0.006l-0.041-0.295v-0.004l-0.002-0.002-0.033-0.301v-0.002l-0.027-0.305-0.020-0.303-0.012-0.314-0.004-0.305v-0.008l0.004-0.305 0.012-0.314 0.020-0.303 0.027-0.305v-0.002l0.006-0.051-0.059-0.191-0.18-0.088zM27.049 15.75l-0.178 0.090-0.059 0.156-0.004 0.279-0.008 0.215 0.072 0.186 0.186 0.074 0.18-0.086 0.063-0.154 0.008-0.215v-0.006l0.004-0.285-0.078-0.184-0.186-0.070zM28.299 15.75l-0.178 0.090-0.059 0.156-0.004 0.313-0.012 0.314v0.002l-0.020 0.301-0.027 0.305v0.002l-0.033 0.301-0.002 0.004v0.002l-0.041 0.295v0.006l-0.049 0.293-0.059 0.301-0.063 0.287v0.002l-0.002 0.004-0.068 0.285v0.004l-0.002 0.002-0.076 0.281-0.002 0.006-0.082 0.279-0.088 0.27 0.020 0.199 0.158 0.121 0.195-0.033 0.104-0.133 0.086-0.27 0.002-0.002v-0.004l0.086-0.291 0.002-0.002v-0.004l0.080-0.293v-0.004l0.002-0.002 0.072-0.297v-0.002l0.002-0.004 0.064-0.299v-0.004l0.002-0.002 0.057-0.303 0.002-0.004v-0.002l0.051-0.305v-0.006l0.043-0.307v-0.004l0.002-0.004 0.035-0.309v-0.006l0.027-0.313v-0.006l0.021-0.313v-0.008l0.012-0.314v-0.008l0.004-0.316-0.076-0.184-0.188-0.070zM4.92 16.008l-0.176 0.096-0.053 0.158v0.033l0.010 0.283v0.004l0.002 0.004 0.012 0.188 0.090 0.178 0.191 0.055 0.172-0.104 0.045-0.16-0.012-0.182v-0.002l-0.010-0.283v-0.021l-0.082-0.182-0.189-0.064zM26.914 17.74l-0.191 0.059-0.084 0.143-0.047 0.24-0.053 0.244 0.039 0.195 0.17 0.105 0.191-0.053 0.088-0.143 0.055-0.248v-0.004l0.002-0.002 0.045-0.24-0.043-0.195-0.172-0.102zM5.096 18.002l-0.154 0.127-0.021 0.166 0.057 0.256v0.004l0.002 0.002 0.057 0.232 0.119 0.158 0.199 0.021 0.15-0.133 0.016-0.166-0.055-0.225v-0.004l-0.002-0.002-0.053-0.25-0.117-0.162-0.197-0.025zM26.422 19.674l-0.197 0.023-0.109 0.127-0.051 0.137-0.1 0.244-0.002 0.002-0.002 0.004-0.027 0.066-0.002 0.199 0.146 0.137 0.199-0.014 0.113-0.123 0.031-0.070 0.002-0.004v-0.002l0.104-0.25v-0.002l0.002-0.004 0.053-0.143-0.008-0.199-0.152-0.129zM5.834 19.92l-0.199 0.010-0.129 0.152 0.008 0.166 0.063 0.152v0.002l0.002 0.004 0.107 0.246 0.002 0.004v0.002l0.029 0.061 0.148 0.131 0.199-0.018 0.121-0.158-0.016-0.166-0.025-0.055-0.002-0.002-0.104-0.24-0.002-0.004-0.002-0.002-0.059-0.146-0.143-0.139zM4.654 20.34l-0.199 0.010-0.129 0.152 0.008 0.166 0.090 0.219 0.002 0.004v0.002l0.121 0.275v0.002l0.002 0.002 0.127 0.271v0.004l0.002 0.002 0.133 0.268 0.002 0.002v0.004l0.141 0.264v0.002l0.002 0.002 0.145 0.26 0.002 0.004 0.002 0.002 0.15 0.256 0.002 0.002 0.002 0.004 0.158 0.252v0.002l0.002 0.002 0.164 0.248 0.002 0.002v0.002l0.17 0.244 0.002 0.002 0.002 0.004 0.174 0.238 0.002 0.002 0.002 0.004 0.18 0.234 0.004 0.004 0.186 0.23 0.002 0.002 0.002 0.004 0.127 0.148 0.178 0.088 0.188-0.070 0.074-0.184-0.059-0.156-0.123-0.145-0.002-0.002-0.002-0.004-0.178-0.221-0.004-0.004-0.176-0.23-0.172-0.234-0.164-0.238-0.16-0.244-0.15-0.24-0.002-0.002-0.002-0.004-0.148-0.25-0.139-0.25-0.002-0.006-0.135-0.252v-0.002l-0.133-0.266-0.123-0.266-0.115-0.264-0.002-0.004v-0.002l-0.088-0.213-0.143-0.139zM25.389 21.475l-0.127 0.107-0.014 0.021-0.002 0.004v0.002l-0.135 0.215-0.004 0.006-0.107 0.164-0.035 0.197 0.121 0.158 0.197 0.021 0.133-0.102 0.113-0.17v-0.002l0.002-0.002 0.143-0.227v-0.004l0.002-0.002 0.016-0.025 0.025-0.199-0.129-0.152-0.199-0.012zM26.783 21.535l-0.123 0.113-0.053 0.098-0.002 0.006-0.139 0.25-0.148 0.25-0.002 0.004-0.002 0.002-0.15 0.24-0.16 0.244-0.166 0.238-0.002 0.004-0.168 0.23-0.176 0.23-0.004 0.004-0.178 0.221-0.002 0.004-0.002 0.002-0.184 0.217-0.191 0.217-0.004 0.004-0.197 0.211-0.203 0.207-0.207 0.203-0.020 0.018-0.080 0.184 0.078 0.182 0.189 0.068 0.152-0.066 0.025-0.023 0.004-0.004 0.215-0.211 0.211-0.215 0.205-0.221 0.195-0.221 0.002-0.004 0.002-0.002 0.191-0.225 0.002-0.004 0.002-0.002 0.186-0.23 0.004-0.004 0.18-0.234 0.002-0.004 0.002-0.002 0.174-0.238 0.002-0.002 0.002-0.004 0.17-0.242v-0.004l0.002-0.002 0.164-0.248 0.002-0.002v-0.002l0.158-0.252 0.002-0.004v-0.002l0.152-0.256 0.002-0.002v-0.004l0.146-0.26 0.002-0.002v-0.002l0.055-0.104 0.016-0.199-0.135-0.146-0.199-0.002zM6.707 21.684l-0.195 0.043-0.1 0.172 0.035 0.162 0.021 0.035 0.002 0.002v0.002l0.146 0.223 0.002 0.002 0.002 0.004 0.111 0.158 0.17 0.105 0.191-0.053 0.094-0.176-0.045-0.16-0.107-0.156v-0.002l-0.002-0.002-0.141-0.213-0.021-0.033-0.164-0.113zM24.254 23.072l-0.146 0.082-0.102 0.113-0.18 0.191-0.002 0.004-0.049 0.049-0.070 0.188 0.088 0.178 0.191 0.059 0.148-0.074 0.059-0.059 0.18-0.193 0.002-0.004 0.002-0.002 0.105-0.117 0.063-0.189-0.096-0.176-0.193-0.049zM7.879 23.26l-0.182 0.080-0.068 0.188 0.066 0.154 0.113 0.121 0.004 0.004 0.186 0.189 0.002 0.004 0.002 0.002 0.051 0.047 0.186 0.070 0.18-0.088 0.057-0.189-0.074-0.15-0.045-0.043-0.002-0.004-0.002-0.002-0.176-0.18-0.002-0.004-0.002-0.002-0.109-0.117-0.184-0.080zM22.844 24.441l-0.158 0.057-0.008 0.006-0.004 0.004-0.203 0.154-0.174 0.129-0.102 0.172 0.057 0.191 0.18 0.088 0.16-0.047 0.174-0.129 0.004-0.002 0.002-0.002 0.211-0.162h0.002l0.002-0.002 0.014-0.012 0.092-0.176-0.064-0.189-0.184-0.080zM9.32 24.604l-0.168 0.107-0.033 0.197 0.090 0.139 0.020 0.016 0.004 0.002 0.002 0.002 0.215 0.156 0.004 0.004 0.172 0.119 0.195 0.039 0.162-0.117 0.025-0.197-0.098-0.135-0.166-0.115-0.004-0.004h-0.002l-0.225-0.166-0.193-0.047zM8.010 25.145l-0.172 0.1-0.043 0.195 0.084 0.145 0.127 0.107 0.004 0.002 0.002 0.002 0.23 0.186 0.004 0.004 0.234 0.18 0.004 0.002 0.002 0.002 0.238 0.174 0.004 0.002 0.002 0.002 0.242 0.17h0.004l0.002 0.002 0.248 0.164 0.002 0.002h0.002l0.252 0.158 0.004 0.002 0.002 0.002 0.256 0.15 0.002 0.002 0.004 0.002 0.26 0.145 0.002 0.002h0.002l0.264 0.141h0.004l0.002 0.002 0.268 0.133 0.002 0.002h0.004l0.273 0.129h0.002l0.275 0.121 0.002 0.002h0.004l0.244 0.1 0.199-0.004 0.133-0.148-0.018-0.199-0.125-0.111-0.24-0.098-0.004-0.002-0.264-0.115-0.266-0.123-0.266-0.133h-0.002l-0.252-0.135-0.006-0.002-0.25-0.139-0.25-0.148-0.004-0.002-0.002-0.002-0.24-0.15-0.244-0.16-0.238-0.164-0.004-0.004-0.23-0.168-0.23-0.176-0.004-0.004-0.221-0.178-0.004-0.002-0.002-0.002-0.123-0.105-0.191-0.057zM21.219 25.537l-0.166 0.023-0.127 0.068-0.24 0.119-0.068 0.031-0.133 0.148 0.020 0.199 0.158 0.121 0.166-0.016 0.074-0.035h0.002l0.004-0.002 0.24-0.119 0.002-0.002h0.002l0.135-0.070 0.123-0.156-0.027-0.197-0.164-0.113zM10.973 25.666l-0.145 0.139 0.004 0.199 0.117 0.119 0.146 0.074h0.002l0.244 0.115h0.002l0.004 0.002 0.064 0.027 0.199 0.002 0.137-0.146-0.014-0.199-0.123-0.113-0.063-0.029h-0.002l-0.232-0.107-0.143-0.072-0.199-0.010zM22.934 25.939l-0.162 0.043-0.029 0.021-0.244 0.16-0.24 0.15-0.002 0.002-0.004 0.002-0.25 0.148-0.25 0.139-0.006 0.002-0.252 0.135h-0.002l-0.266 0.133-0.266 0.123-0.268 0.117h-0.002l-0.271 0.111-0.27 0.104h-0.002l-0.004 0.002-0.279 0.098-0.281 0.092-0.279 0.082v0.002h-0.006l-0.063 0.018-0.156 0.125-0.014 0.197 0.135 0.146 0.166 0.014 0.068-0.020h0.006l0.291-0.088h0.004l0.002-0.002 0.287-0.092 0.004-0.002h0.002l0.285-0.102h0.002l0.004-0.002 0.281-0.107h0.002l0.004-0.002 0.277-0.113h0.004l0.002-0.002 0.275-0.121h0.002l0.002-0.002 0.271-0.127h0.004l0.002-0.002 0.268-0.133 0.002-0.002h0.004l0.264-0.141h0.002l0.002-0.002 0.264-0.146 0.002-0.002 0.256-0.15 0.002-0.002 0.004-0.002 0.252-0.158h0.002l0.002-0.002 0.248-0.164 0.002-0.002h0.002l0.031-0.021 0.105-0.17-0.053-0.193-0.176-0.092zM19.25 26.314l-0.037 0.012v0.002l-0.256 0.074-0.176 0.049-0.156 0.125-0.014 0.197 0.135 0.146 0.166 0.014 0.182-0.049 0.004-0.002h0.002l0.262-0.078h0.002l0.004-0.002 0.037-0.012 0.148-0.133 0.006-0.199-0.143-0.139-0.166-0.006zM12.99 26.389l-0.197 0.023-0.117 0.16 0.037 0.195 0.137 0.1 0.051 0.016h0.002l0.004 0.002 0.264 0.070 0.004 0.002h0.002l0.168 0.041 0.197-0.033 0.109-0.168-0.049-0.193-0.139-0.092-0.162-0.039h-0.004l-0.002-0.002-0.252-0.068-0.053-0.014zM17.348 26.729l-0.244 0.027v0.002l-0.248 0.021-0.174 0.096-0.051 0.191 0.107 0.168 0.162 0.043 0.252-0.023h0.008l0.244-0.027 0.172-0.1 0.045-0.195-0.111-0.164-0.162-0.039zM14.902 26.758l-0.189 0.063-0.082 0.182 0.076 0.184 0.152 0.070 0.27 0.023h0.004l0.23 0.016 0.188-0.068 0.078-0.184-0.080-0.182-0.154-0.066-0.23-0.014-0.262-0.023zM13.416 27.785l-0.195 0.037-0.105 0.17 0.053 0.193 0.143 0.088 0.154 0.033h0.004l0.002 0.002 0.303 0.057 0.004 0.002h0.002l0.305 0.051h0.006l0.307 0.043h0.004l0.004 0.002 0.311 0.035h0.004l0.314 0.027h0.004l0.32 0.021 0.322 0.012 0.324 0.004 0.324-0.004 0.32-0.012 0.32-0.021 0.314-0.027h0.004l0.082-0.010 0.172-0.1 0.045-0.195-0.111-0.164-0.162-0.037-0.080 0.008h-0.002l-0.305 0.027-0.303 0.020-0.314 0.012-0.313 0.004-0.305-0.004-0.314-0.012-0.303-0.020-0.307-0.027-0.301-0.033-0.004-0.002h-0.002l-0.295-0.041h-0.006l-0.293-0.049-0.301-0.059-0.15-0.031z"></path>
        </symbol>
        <symbol id="icon-ert" viewBox="0 0 32 32">
            <title>ert</title>
            <path d="M16.123 2.018c-0 0-0 0-0 0-8.314 0-15.054 6.236-15.055 13.928 0 0 0 0.001 0 0.002 0 7.693 6.74 13.929 15.055 13.929 0 0 0 0 0 0 5.928-0.008 11.052-3.185 13.501-7.797-0.77-1.168-1.657-2.303-2.652-3.464-3.002-3.503-6.611-6.993-8.668-8.165-0.892-0.508-1.544-0.807-2.106-1.215s-1.013-1.015-1.212-1.796c-0.272-1.067-0.070-2.098 0.517-2.765s1.423-0.962 2.312-1.060c1.778-0.196 3.913 0.376 5.564 1.56 3.823 2.742 6.075 7.004 7.749 11.7 0.026-0.267 0.044-0.589 0.051-0.915-0-7.705-6.74-13.941-15.054-13.941-0 0-0 0-0 0zM17.974 5.245c-0.656 0.072-1.124 0.299-1.344 0.549s-0.327 0.534-0.153 1.218c0.121 0.476 0.223 0.602 0.593 0.871s1.026 0.591 1.962 1.124c2.485 1.416 6.014 4.926 9.081 8.504 0.866 1.010 1.531 1.945 2.254 2.908-0.019 0.061-0.005 0.025 0.009-0.011-1.7-5.7-3.767-10.938-7.862-13.875-1.308-0.938-3.229-1.431-4.54-1.287z"></path>
        </symbol>
        <symbol id="icon-spire" viewBox="0 0 32 32">
            <title>spire</title>
            <path d="M15.016 0.97c-0.165 0.015-0.307 0.11-0.426 0.257-0.436 0.538 0.535 1.417 0.246 2.042-0.572 1.238-3.098 1.009-3.434 2.327-0.197 0.775-0.403 2.043 0.14 2.773 0.434 0.582 0.567 0.66 0.842 0.714-2.314 1.126-3.755 3.288-3.758 5.638 0.001 2.602 1.761 4.946 4.459 5.94 0.045 0.181 0.102 0.368 0.141 0.527 0.085 0.352 0.326 0.901 0.613 1.129 0.591 0.471 1.005 0.601 1.748 0.774 0.762 0.126 1.527-0.378 1.953-0.026 0.422 0.348 0.749 0.951 0.66 1.483-0.069 0.415-0.883 0.539-1.26 0.887-0.295 0.273-0.566 0.582-0.77 0.929-0.428 0.725-0.293 1.791-0.922 2.35-0.521 0.463-1.333 0.427-2.023 0.529-0.419 0.062-0.846 0.048-1.27 0.049-0.542 0.002-1.091-0.139-1.625-0.049-0.411 0.069-0.792 0.266-1.168 0.445-0.388 0.184-0.704 0.52-1.117 0.643-0.276 0.082-0.748-0.208-0.861 0.049s0.277 0.585 0.559 0.643c0.904 0.184 1.579-1.043 2.486-1.186 1.113-0.176 2.228 0.533 3.352 0.445 0.965-0.076 1.945-0.343 2.783-0.827 0.482-0.278 0.871-0.708 1.212-1.148 0.564-0.73 0.706-2.139 1.335-2.423 0.183-0.082-0.118 0.494-0.090 0.741 0.035 0.308 0.078 0.675 0.314 0.876 0.814 0.691 2.099 0.395 3.15 0.58 0.403 0.071 0.82 0.086 1.212 0.204 0.483 0.145 0.948 0.356 1.383 0.61 0.325 0.19 0.583 0.874 0.905 0.678 0.044-0.027 0.003-0.11-0.026-0.152-0.413-0.618-1.224-1.068-1.926-1.467-0.378-0.215-0.798-0.352-1.211-0.489-0.471-0.157-1.113-0.008-1.441-0.381-0.464-0.528 0.142-1.523-0.273-2.090-0.199-0.272-0.562-0.453-0.915-0.427-0.024 0.002-0.020-0.036-0.023-0.055-0.107-0.725 0.375-1.474 0.209-2.187-0.11-0.471-0.4-0.913-0.762-1.234-0.241-0.215-0.565-0.313-0.879-0.409 2.727-0.981 4.514-3.338 4.516-5.959 0-3.551-3.23-6.431-7.215-6.431-0.464 0.002-0.926 0.043-1.381 0.124 0.127-0.456 0.032-0.71-0.209-0.972-0.456-0.495-1.493-0.988-1.365-1.489 0.31-1.216 2.642-1.004 3.17-2.147 0.087-0.189 0.15-0.407 0.195-0.631 0.311 0.356 1.216 0.223 1.709 0.566 0.174 0.121 0.222 0.555 0.398 0.495 0.153-0.006 0.318-0.178 0.313-0.327-0.047-1.183-1.808-2.824-2.646-2.476-0.179-0.065-0.347-0.168-0.467-0.26-0.15-0.115-0.351-0.221-0.543-0.204z"></path>
        </symbol>
        <symbol id="icon-blomst" viewBox="0 0 32 32">
            <title>blomst</title>
            <path d="M15.689 1.034c-2.166 0.305-3.231 2.702-3.267 4.675-0.206 0.763 0.663 3.185-0.274 1.511-1.29-1.751-3.64-3.239-5.855-2.411-1.999 0.829-2.145 3.567-1.026 5.174 0.369 1.144 2.598 2.567 2.648 2.703-2.202-0.645-5.031-0.212-6.436 1.757-1.044 1.529-0.17 3.621 1.4 4.383 1.598 0.857 3.621 1.024 5.321 0.384-2.12 1.107-4.022 3.473-3.543 5.99 0.368 2.049 3.021 2.783 4.701 1.839 1.418-0.32 3.054-2.658 3.322-2.93-0.599 2.302-0.198 5.379 2.112 6.584 1.808 0.943 3.818-0.546 4.365-2.286 0.536-1.418 0.553-3.005 0.129-4.455 1.166 2.030 3.466 3.884 5.935 3.385 2.078-0.409 2.724-3.006 1.828-4.711-0.6-1.361-1.668-2.488-2.94-3.246 2.304 0.519 5.249 0.137 6.55-2.070 0.891-1.614-0.175-3.543-1.733-4.243-1.678-0.809-3.738-0.897-5.454-0.149 1.761-0.698 3.171-2.285 3.764-4.075 0.608-1.612-0.123-3.727-1.902-4.173-2.549-0.551-4.966 1.348-6.105 3.497 0.667-2.252 0.427-5.209-1.649-6.653-0.555-0.359-1.229-0.548-1.89-0.479zM15.999 10.921c3.293-0.125 5.94 3.473 4.852 6.579-0.854 3.181-5.072 4.652-7.719 2.691-2.788-1.756-2.946-6.22-0.289-8.17 0.889-0.709 2.020-1.103 3.157-1.1zM15.999 12.19c-2.623-0.11-4.628 2.921-3.508 5.292 0.921 2.457 4.492 3.128 6.241 1.17 1.906-1.805 1.13-5.355-1.352-6.204-0.439-0.171-0.909-0.259-1.38-0.259z"></path>
        </symbol>
        <symbol id="icon-humle" viewBox="0 0 32 32">
            <title>humle</title>
            <path d="M22.485 6.479l-0.382 0.465-0.278-0.285-0.005 0.004c0.002-0.006 0.017-0.047 0.017-0.047l-0.246 0.271 0.071-0.397-0.304 0.31c0 0 0.028-0.285 0.051-0.401 0.003-0.014 0.001-0.020-0.004-0.018-0.037 0.011-0.249 0.367-0.269 0.425-0.023 0.066-0.069-0.255-0.059-0.353s-0.425 0.465-0.472 0.496c-0.046 0.031-0.12-0.396-0.13-0.498s-0.184 0.414-0.213 0.458-0.094-0.33-0.095-0.421c-0.002-0.091-0.238 0.283-0.238 0.283s-0.061-0.243-0.070-0.396c-0.009-0.152-0.427 0.375-0.427 0.375l-0.076-0.316-0.119 0.337c0 0-0.192-0.29-0.213-0.334s-0.149 0.341-0.149 0.341c0 0-0.331-0.298-0.379-0.358s-0.142 0.252-0.142 0.252l-0.159-0.253-0.157 0.229-0.4-0.302-0.055 0.32c0 0-0.174-0.237-0.236-0.383 0.033 0.158 0.091 0.488 0.091 0.488s-0.37-0.476-0.459-0.664c0.047 0.2 0.169 0.832 0.169 0.832s-0.419-0.454-0.647-0.585c-0.229-0.132 0.233 0.672 0.233 0.672l-0.768-0.411 0.292 0.797c0 0-0.479-0.438-0.587-0.602s0.101 0.9 0.133 1.020c0.032 0.12-0.523-0.361-0.827-0.679s0.482 0.737 0.482 0.737c0 0-0.615-0.083-0.805-0.263-0.153-0.145 0.197 0.376 0.454 0.613-0.196-0.091-0.49-0.218-0.711-0.324-0.268-0.128 0.126 0.222 0.515 0.486l-0.561-0.148 0.047 0.277-0.084-0.181-0.015 0.247-0.137-0.174 0.095 0.252-0.392-0.235 0.122 0.163-0.41-0.144 0.142 0.193-0.179-0.097-0 0.129-0.109-0.057-0.050 0.205-0.083-0.396c0 0-0.098 0.609-0.096 0.687s-0.101-0.434-0.101-0.434l-0.063 0.651-0.156-0.42 0.137 0.769-0.032-0.351 0.096 0.080 0.049-0.456 0.087 0.293 0.093-0.585 0.059 0.305 0.102-0.29 0.132 0.113-0.008-0.174 0.202 0.11-0.089-0.199 0.404 0.177-0.076-0.136 0.306 0.191-0.089-0.199 0.053 0.080 0.043-0.129 0.096 0.123-0.049-0.312 0.519 0.071c0.132 0.090 0.264 0.169 0.368 0.217-0.247-0.041-0.653-0.101-0.8-0.148-0.209-0.067 0.382 0.264 0.633 0.352-0.143-0.022-0.41-0.062-0.677-0.134-0.431-0.116 1.166 0.549 1.357 0.587 0.163 0.033-0.601-0.060-1.044-0.238 0.31 0.18 0.821 0.477 0.989 0.511 0.273 0.055 0.583 0.203 0.583 0.203s-0.295 0.196-0.443 0.222c-0.147 0.027 0.228 0.273 0.441 0.345s-0.295 0.196-0.404 0.173c-0.109-0.022 0.282 0.568 0.282 0.568s-0.202 0.158-0.294-0.088c-0.092-0.246-0.23 0.294-0.258 0.43s-0.206-0.524-0.26-0.677c-0.054-0.153-0.301 0.506-0.301 0.506s0.051-0.529 0.177-0.872c0.126-0.343-0.508 0.266-0.612 0.358s-0.015-0.485-0.015-0.485l-0.177-0.944c0 0-0.423 0.964-0.478 1.095s-0.079-0.867-0.112-0.988c-0.032-0.117-0.112 0.673-0.030 0.807-0.075-0.097-0.476-0.597-0.494-0.743-0.021-0.175-0.143 0.425-0.034 0.589s-0.506-0.585-0.663-0.929c-0.157-0.344 0.085 0.84 0.085 0.84s-0.445-0.601-0.554-0.765c-0.109-0.164 0.134 0.879 0.134 0.879s-0.408-0.508-0.44-0.629c-0.032-0.12-0.068 0.894-0.068 0.894l-0.255-0.704-0.228 0.532c0 0-0.356-0.452-0.389-0.572s0.178 0.802 0.178 0.802l-0.686-0.536 0.483 0.694-0.671-0.051c0 0 0.097 0.044 0.216 0.086-0 0.001-0 0.001-0 0.002l0.187 0.073c0 0-0.011-0.011-0.025-0.024 0.056 0.015 0.11 0.026 0.156 0.028 0.196 0.011-0.507 0.124-0.617 0.102s0.523 0.22 0.665 0.22c0.142 0-0.284 0.141-0.464 0.19s0.611 0.067 0.731 0.035c0.12-0.032-0.639 0.211-0.639 0.211l0.54 0.138-0.453 0.135 0.562 0.029c0 0-0.939 0.434-1.103 0.542s1.456 0.239 1.456 0.239l-1.081 0.433 0.556 0.056-0.939 0.434 0.698 0.056-0.912 0.439c0 0 0.344-0.015 0.524-0.064s-0.743 0.445-0.743 0.445l-0.682 0.004c0 0 0.437-0.337 0.628-0.44s-0.753 0.074-0.753 0.074l0.366-0.266-0.747-0.095c0 0 0.48-0.13 0.606-0.189s-0.518-0.105-0.654-0.133c-0.136-0.028 0.306-0.108 0.306-0.108l-0.497-0.303 0.256-0.058-0.306-0.013-0.065-0.304 0.631-0.001-0.37-0.221 0.338-0.049-0.229-0.368 0.389 0.142 0.038-0.42 0.191-0.044c0 0-0.268-0.233-0.379-0.276-0.023-0.009 0.444 0.005 0.444 0.005l-0.035-0.265 0.391 0.435-0.105-0.644c0 0 0.345 0.18 0.434 0.223s-0.192-0.411-0.192-0.411l0.558 0.29-0.091-0.315 0.418 0.188c0 0-0.002-0.064 0.016-0.155l-0.19-0.074 0.087 0.137-0.487-0.245 0.177 0.329-0.651-0.278 0.219 0.361-0.365-0.123 0.118 0.572-0.441-0.54 0.064 0.403-0.455 0.078 0.355 0.291-0.15 0.018-0.001 0.366-0.501-0.175 0.247 0.465-0.45 0.055 0.504 0.221-0.641-0.030 0.099 0.35-0.282-0.172 0.217 0.47-0.616-0.040c0 0 0.615 0.323 0.724 0.346s-0.671 0.091-0.671 0.091l0.763 0.297-0.851-0.002 0.594 0.291-0.758 0.101 0.452 0.432-0.824 0.003 0.425 0.143-0.65 0.266 0.545 0.252-0.562 0.113 0.751 0.493-1.025 0.019 0.692 0.367-0.71 0.282 0.496 0.214-0.672 0.233 0.665 0.22c0 0-0.71 0.282-0.835 0.341s1.199 0.243 1.199 0.243l-0.459 0.162c0 0 0.703 0.029 0.851 0.002s-0.667 0.489-0.667 0.489l0.731 0.035-0.481 0.271 0.589 0.176c0 0-0.333 0.245-0.459 0.304s0.333 0.039 0.496 0.072c0.164 0.033-0.58 0.478-0.58 0.478l0.693-0.2c0 0 0.586-1.683 1.163-2.331 0.414-0.465 1.565-1.022 1.565-1.022s-1.186 0.694-1.597 1.224c-0.499 0.644-0.957 2.25-0.957 2.25s-0.274 0.715-0.248 1.085c0.069 0.985 0.693 1.85 1.056 2.768 0.233 0.591 0.721 1.764 0.721 1.764l1.086-0.319 0.194-1.096-0.374-0.672 0.435 0.372 1.012-1.072c0 0-0.751-0.493-0.849-0.57s0.915 0.384 0.915 0.384l0.401-0.997c0 0-1.035-0.636-1.138-0.685s1.33 0.44 1.33 0.44l0.624-0.98-1.023-0.69 1.182 0.467 0.785-1.629 0.128 0.309c0 0 0.416 0.325 0.6 0.603s-0.047-0.461-0.171-0.787c-0.124-0.326 0.533 0.59 0.671 0.748s-0.23-1.14-0.268-1.299c-0.038-0.158 0.499 0.653 0.682 0.941s0.11-0.79 0.113-1.001c0.002-0.21 0.441 0.942 0.474 0.979s0.194-1.696 0.196-1.806c0.002-0.11 0.416 0.867 0.493 1.033s0.147-0.723 0.106-0.771c-0.040-0.048 0.086-0.574 0.086-0.574l0.297 0.813c0 0 0.032-0.455-0.116-0.716s0.57 0.256 0.643 0.241c0.057-0.012-0.2-0.421-0.366-0.676l0.001 0.005-0.003-0.008c-0.046-0.071-0.090-0.137-0.111-0.17-0.018-0.027-0-0.033 0.038-0.027l-0.443-1.183 0.083 0.767c0 0-0.534-1.796-0.525-1.993s-0.122 0.425-0.122 0.425l-0.010-1.34-0.206 0.408 0.297-1.505c0 0-0.261 0.276-0.287 0.338s0.344-1.046 0.434-1.174l0.041-0.056-0.279 0.89 0.22-0.22-0.288 1.308 0.218-0.129-0.074 1.012 0.138-0.199 0.287 1.51 0.101-0.287 0.303 0.986 0.038-0.222 0.373 0.466c0 0-0.051-0.186-0.056-0.261s0.526 0.494 0.526 0.494l-0.415-0.191 0.112 0.317c0.023 0.010 0.018 0.026 0.040 0.036l0.504 0.594-0.105 0.42 0.351-0.049 0.135-0.173c0 0-0.23 1.037-0.176 0.968s0.259-0.289 0.259-0.289l-0.099 0.783 0.248-0.231-0.156 0.771 0.143-0.111-0.102 0.501-0.422 0.496-0.020 0.297 0.468-0.527 0.328 0.066 0.029 0.548 0.233-0.354-0.149-0.351 0.094-0.362-0.13-0.347 0.074-0.366 0.135 0.128-0.299-0.803 0.223 0.085-0.206-0.764 0.189 0.058 0.016-0.937c0.043-0.037 0.103-0.489 0.089-0.768-0.016-0.314 0.304 0.875 0.366 0.967s0.323-0.506 0.36-0.539c0.037-0.033-0.123 0.607-0.044 0.663 0.036 0.026 0.197-0.082 0.367-0.211l0.072 0.737 0.081 2.117 0.179 0.519-0.252 0.261 0.103 0.191-0.181 0.19 0.218 0.186-0.215 0.779 0.070 0.213-0.334 0.386 0.377-0.179 0.3 0.061 0.234 0.104-0.27-1.19 0.137-0.114-0.108-0.306 0.316-0.021c0 0-0.119-0.251-0.092-0.387s0.131 0.055 0.131 0.055l0.214-0.638 0.211-1.461 0.062-1.583c0.023 0.171 0.046 0.353 0.059 0.361 0.027 0.015 0.426-0.516 0.455-0.56s0.067 0.264 0.082 0.237c0.015-0.027 0.177-0.526 0.191-0.694s0.395 0.823 0.395 0.823c0 0 0.292-0.452 0.343-0.653s0.21 0.253 0.21 0.253c0 0 0.030-0.245 0.040-0.443s0.229 0.357 0.259 0.404 0.174-0.316 0.202-0.451c0.027-0.135 0.177 0.317 0.24 0.35s0.127-0.526 0.135-0.565c0.008-0.039 0.095 0.471 0.095 0.471l0.146-0.322c0 0 0.472 0.296 0.514 0.335s-0.324-0.828-0.422-0.938c-0.098-0.11 0.624 0.287 0.624 0.287s-0.234-0.429-0.294-0.481c-0.060-0.052 0.672 0.347 0.672 0.347s-0.34-0.55-0.399-0.603c-0.060-0.052 0.526 0.227 0.584 0.239s-0.332-0.439-0.332-0.439l0.519 0.065c0 0-0.439-0.41-0.529-0.509s0.8 0.112 0.8 0.112c0 0-0.429-0.358-0.458-0.414s0.734 0.189 0.775 0.187c0.041-0.002-0.688-0.443-0.74-0.59-0.005-0.014 0.41 0.091 0.531 0.086s-0.454-0.283-0.495-0.331 0.725-0.014 0.725-0.014c0 0-0.181-0.068-0.353-0.132 0.051-0.029 0.218-0.079 0.303-0.154 0.109-0.096 0.174-0.234 0.244-0.362 0.037-0.068 0.093-0.212 0.093-0.212s0.094 0.117 0.146 0.17c0.262 0.265 0.582 0.468 0.838 0.738 0.224 0.236 0.42 0.499 0.606 0.766 0.146 0.209 0.257 0.441 0.399 0.653 0.098 0.145 0.149 0.361 0.313 0.423 0.041 0.016 0.104 0.008 0.129-0.027 0.059-0.084-0.009-0.208-0.041-0.306-0.041-0.123-0.121-0.228-0.19-0.338-0.202-0.319-0.41-0.638-0.654-0.926-0.353-0.418-0.809-0.74-1.165-1.156-0.072-0.085-0.116-0.193-0.196-0.27-0.061-0.059-0.127-0.132-0.212-0.143-0.071-0.010-0.152 0.019-0.205 0.069-0.041 0.039-0.042 0.105-0.062 0.158-0.050 0.133-0.070 0.28-0.142 0.403-0.087 0.15-0.34 0.392-0.34 0.392l-0.036 0.058c-0.194-0.075-0.382-0.149-0.424-0.175-0.098-0.060 0.374-0.065 0.374-0.065s-0.225-0.176-0.4-0.302c-0.175-0.126 0.492 0.050 0.621 0.056s-0.819-0.266-0.88-0.309 0.615-0.016 0.804-0.058c0.189-0.042-0.603-0.142-0.719-0.166s0.459-0.087 0.695-0.11c0.235-0.023-0.466-0.125-0.619-0.166s0.652-0.098 0.805-0.158c0.153-0.059-0.461-0.103-0.607-0.173s0.489-0.232 0.575-0.265c0.087-0.033-0.617-0.075-0.733-0.098s0.77-0.235 0.822-0.295c0.052-0.060-0.654 0.008-0.8-0.012s0.367-0.377 0.474-0.456-0.438 0.032-0.556 0.068c-0.118 0.036 0.232-0.254 0.364-0.358s-0.739 0.281-0.739 0.281l0.172-0.848c0.031-0.154-0.187 0.032-0.187 0.032s-0.007 0.004-0.008 0.005l-0.049-0.55-0.305 0.244c0.027-0.094 0.072-0.247 0.098-0.377 0.003-0.013 0.004-0.024 0.002-0.037s-0.009-0.029-0.023-0.039-0.030-0.009-0.041-0.007c-0.011 0.002-0.021 0.006-0.030 0.011-0.038 0.019-0.080 0.056-0.125 0.098-0.031 0.029-0.035 0.036-0.062 0.064l0.121-0.35-0.469 0.335 0.161-0.512-0.282 0.212 0.085-0.42c0.002-0.011 0.004-0.021 0.001-0.034-0.001-0.007-0.004-0.015-0.011-0.023s-0.018-0.013-0.027-0.015c-0.019-0.003-0.028 0.004-0.036 0.009s-0.015 0.010-0.023 0.017c-0.021 0.019-0.049 0.052-0.075 0.084l0.061-0.139-0.552 0.004 0.112-0.553-0.461 0.257 0.012-0.339-0.43 0.243 0.24-0.471-0.56 0.345 0.081-0.397-0.39 0.308zM14.751 9.037c-0.194-0.113-0.328-0.191-0.193-0.098 0.051 0.035 0.118 0.068 0.193 0.098zM16.98 6.107c-0.012-0.050-0.020-0.081-0.019-0.057 0.001 0.013 0.008 0.033 0.019 0.057zM17.348 6.283c-0.014-0.066-0.024-0.108-0.022-0.074 0.001 0.019 0.010 0.046 0.022 0.074zM22.405 6.695l-0.012 0.593 0.354-0.279-0.074 0.366 0.479-0.296-0.232 0.455 0.531-0.3-0.012 0.338 0.435-0.242-0.098 0.483 0.528-0.004-0.136 0.312 0.065 0.037c0 0 0.079-0.111 0.154-0.204 0.020-0.025 0.035-0.039 0.053-0.059l-0.109 0.539 0.253-0.19-0.158 0.502 0.46-0.328-0.099 0.286 0.064 0.038c0 0 0.091-0.101 0.177-0.181 0.033-0.031 0.060-0.051 0.084-0.067-0.037 0.167-0.118 0.453-0.118 0.453l-0.034 0.115 0.377-0.303 0.040 0.445c-0.068 0.040-0.153 0.090-0.183 0.11-0.046 0.031 0.030-0.245 0.036-0.324s-0.321 0.196-0.321 0.196c0 0-0.067-0.315-0.076-0.367s-0.244 0.362-0.244 0.362-0.156-0.022-0.146-0.12c0.010-0.098-0.301 0.2-0.301 0.2l-0.304 0.31c0 0-0.318 0.036-0.357 0.028s0.043-0.262 0.055-0.32c0.012-0.058-0.045-0.471-0.045-0.471l-0.272 0.105-0.345 0.712-0.187 0.133c0 0-0.119-0.054-0.223-0.186s-0.344 0.161-0.344 0.161l-0.302-0.392c0 0-0.327-0.909-0.325-0.969s0.078-1.028 0.099-1.084c0.018-0.046 0.148-0.403 0.203-0.553l0.314 0.322zM23.985 10.816c0.076 0.013 0.155 0.042 0.224 0.062 0.172 0.050 0.401 0.089 0.474 0.252 0.041 0.093-0.123 0.207-0.074 0.297 0.036 0.066 0.167 0.012 0.212 0.071s0.064 0.133 0.068 0.211c0.074 0.199 0.212 0.618 0.15 0.855-0.217 0.83-0.941 1.51-1.676 1.952-0.108 0.065-0.259 0.142-0.37 0.083-0.097-0.051-0.119-0.196-0.121-0.305-0.004-0.246 0.056-0.514 0.137-0.754 0.028-0.082 0.14-0.444 0.4-0.93 0.159-0.297 0.36-0.597 0.512-0.816-0.052 0.023-0.102 0.041-0.142 0.017-0.127-0.076-0.151-0.267-0.157-0.415-0.008-0.19-0.002-0.441 0.154-0.55 0.059-0.042 0.133-0.044 0.209-0.031zM17.926 10.374l0.778 1.261-0.23-0.736c0 0 0.87 1.659 0.899 1.855s0.038-0.441 0.038-0.441l0.268 1.313 0.124-0.44-0.001 1.534c0 0 0.203-0.321 0.216-0.387s-0.136 1.093-0.199 1.235l-0.030 0.063 0.102-0.927-0.173 0.258 0.030-1.338-0.189 0.168-0.123-1.008-0.097 0.222-0.573-1.426-0.044 0.301-0.488-0.909 0.006 0.225-0.456-0.386c0 0 0.086 0.172 0.105 0.245s-0.612-0.383-0.612-0.383l0.444 0.107-0.158-0.325 0.582 0.532zM24.87 11.906c-0.006 0.028-0.013 0.056-0.021 0.082-0.037 0.123-0.117 0.25-0.233 0.307-0.127 0.063-0.305 0.074-0.425-0.001-0.084-0.053-0.118-0.169-0.13-0.268-0.011-0.087 0.113-0.195 0.052-0.259-0.037-0.040-0.094-0.017-0.154 0.011-0.356 0.504-0.787 1.358-0.833 1.561 0.052-0.063 0.074-0.074 0.135-0.122 0.404-0.32 1.144-0.092 1.466-0.495 0.142-0.177 0.155-0.549 0.143-0.816zM27.124 13.362c-0.248-0.049-0.502-0.063-0.753-0.088l0.635 0.502c0 0 0.327-0.073 0.481-0.028 0.131 0.038 0.23 0.148 0.333 0.238 0.684 0.6 1.298 1.281 1.863 1.993 0.261 0.329 0.509 0.672 0.701 1.045 0.096 0.186 0.222 0.587 0.222 0.587l0.175 0.026 0.087-0.133c0 0-0.042-0.244-0.088-0.359-0.112-0.283-0.277-0.544-0.451-0.794-0.163-0.234-0.362-0.439-0.55-0.653-0.211-0.242-0.429-0.478-0.648-0.713-0.21-0.226-0.419-0.452-0.636-0.671-0.246-0.248-0.46-0.54-0.756-0.725-0.186-0.116-0.404-0.174-0.616-0.226zM18.387 13.629l0.172 0.474 0.226-0.271 0.045 0.497 0.093 0.263-0.54 0.378 0.099-0.248-0.399 0.163 0.104-0.271c0 0-0.469 0.149-0.422 0.036s0.169-0.234 0.169-0.234l-0.248-0.099 0.427-0.060c0.108-0.051 0.274-0.627 0.274-0.627zM24.263 16.019l-0.215 0.294-0.119-0.187-0.074 0.097-0.138 0.090-0.116-0.189-0.419 0.728-0.196-0.421 0.409 2.14 0.463-0.107-0.079 0.787 0.401 0.001 0.634 2.216 0.208 0.163 0.444 1.174 0.193 0.039 0.151 1.235 0.449-0.431-0.353-0.834 0.186-0.123-0.63-1.051 0.163-0.408-0.137-0.71-0.713-1.63-0.363 0.007 0.217-0.478-0.398-1.19-0.165-0.68zM22.405 16.528l-0.267 0.315-0.003 0.877-0.141 0.853-0.036 0.572 0.455 0.707 0.145 0.15 0.084 0.278 0.1-0.296 0.080 0.272 0.005 0.347 0.185-0.098 0.075 0.251-0.060 0.494 0.144-0.091-0.113 0.629 0.149 0.005-0.158 0.976-0.092 0.132 0.18-0.069 0.392 0.12 0.267-0.056-0.255-0.077-0.212-1.081 0.114 0.058 0.032-0.255-0.096-0.27 0.119 0.034-0.037-0.163-0.129-0.453c0 0 0.098-0.035 0.101-0.055s-0.044-0.45-0.060-0.469c-0.016-0.018-0.176-0.272-0.176-0.272l0.119 0.034 0.021-0.302-0.671-1.39-0.475-1.276zM17.528 15.657l0.068 0.45c0.758 0.449 0.21-0.073-0.068-0.45zM14.040 18.554l-0.729 1.498-0.753 1.195 0.114 0.349 0.296 0.571-0.080 0.395-0.327 0.005-0.021 0.805 0.109 1.072 0.38 0.786 0.783 0.968 0.604-0.53-0.079 0.949 0.059 0.267 0.314-0.149-0.223 0.82 0.092 0.246 0.227-0.351-0.264 0.812 0.188 0.052-0.459 1.212 0.045 0.407 0.424 0.497-0.132-0.538 0.232 0.047-0.198-0.352 0.211-1.249 0.202 0.055-0.080-0.726 0.164-0.038-0.232-0.813 0.164-0.038-0.31-1.269 0.15-0.111-0.226-1.053-0.869-2.361-0.209-0.227 0.558 0.255-0.441-0.416 0.030-0.15 0.213 0.072 0.352 0.015-0.33-0.124-0.128-0.14 0.286-0.013-0.165-0.445 0.166 0.090-0.22-0.456 0.316 0.192-0.114-0.349c0 0 0.272 0.268 0.245 0.192s-0.195-0.65-0.195-0.65l0.245 0.121-0.291-0.456 0.221 0.101-0.176-0.39 0.037-0.39zM11.168 23.406l-0.323 0.332-0.195 1.38-0.371 0.081 0.013 0.357 0.176 0.532 0.259-0.089-0.211 0.199 0.178 0.802 0.257-0.147-0.219 0.239 0.042 0.491 0.333 0.039-0.308 0.051 0.107 0.873 0.062 0.396-0.085 0.139 0.221 0.031 0.769 0.128-0.474-0.252-0.127-0.281-0.186-0.974 0.188-0.090-0.282-0.71 0.295-0.054-0.195-0.295-0.25-0.519 0.265-0.116-0.396-0.776 0.080-0.253 0.253 0.080-0.201-0.41 0.126-0.060-0.117-0.194z"></path>
            <path d="M3.763 1.203c-0.418-0.087-0.847-0.137-1.296-0.144-0.346-0.005-0.767 0.108-0.96 0.395-0.614 0.911-0.515 2.317-0.016 3.296 0.804 1.574 2.705 2.35 4.311 3.088 0.325 0.149 0.698 0.293 1.1 0.432-1.707-0.005-3.826-0.202-4.69 1.159-0.355 0.559 0.113 1.358 0.429 1.939 0.166 0.304 0.412 0.601 0.73 0.738 2.15 0.92 4.68 0.27 7.014 0.129 0.906-0.055 1.793-0.284 2.696-0.378 2.178-0.228 0.753-0.469 3.052-0.383-2.415-0.204-1.131 0.074-3.446 0.154-0.002 0-0.004 0-0.006 0-0.039-0.253 0.053-0.671 0.077-0.75 0.375-0.126 0.8 0.093 1.158-0.117 0.091-0.108 0.181-0.216 0.273-0.324-0.135-0.017-0.271-0.014-0.376-0.025-0.152-0.016-0.468-0.295-0.693-0.328-0.45-0.066-0.953-0.288-1.506-0.384-0.459-0.080-0.89-0.158-1.26-0.226l0.782-0.103c0.595 0.123 1.218 0.236 1.714 0.326l-0.115-0.406-0.236-0.1 0.589-0.128 0.043-0.109 0.085 0.278 0.056-0.497c-0.415-0.13-0.875-0.257-1.417-0.378l0.275-0.293c0.52 0.226 1.042 0.401 1.568 0.551l-0.031-0.056c-0.523-0.161-1.035-0.346-1.526-0.571-0.44-0.919-1.148-1.79-1.944-2.644 0.691 0.54 1.384 1.073 2.091 1.553 1.638 1.113 0.566 0.641 2.869 1.394-1.586-0.837-0.989-0.481-2.661-1.644-1.281-0.891-2.318-1.832-3.472-2.651-1.876-1.333-3.452-2.414-5.261-2.792zM3.403 1.377c0.677 0.144 1.325 0.378 1.955 0.673l-0.394-0.016-1.572-0.56-1.648-0.037c0.212-0.165 0.534-0.218 0.799-0.193 0.292 0.028 0.579 0.072 0.861 0.132zM3.377 1.55c0.529 0.165 1.058 0.332 1.559 0.555l1.651 1.455c-0.151 0.099-0.466 0.165-0.705 0.246l0.040 0.503-0.595-0.194c-0.736-0.142-1.45-0.388-2.172-0.602l-1.888-0.028c-0.102-0.683-0.018-1.394 0.348-1.917 0.014-0.020 0.030-0.039 0.047-0.058 0.575 0.007 1.178-0.019 1.714 0.038zM5.532 2.133c1.221 0.599 2.368 1.429 3.499 2.302l-0.954 0.056c-0.262-0.076-0.495-0.229-0.734-0.366-0.802-0.6-1.522-1.341-2.283-2.012zM6.651 3.617l0.635 0.56c0.061 0.227 0.108 0.443 0.091 0.609l-1.375-0.449c-0.039-0.166-0.001-0.313-0.004-0.469zM9.054 4.509l0.452 0.294c0.034 0.026 0.068 0.053 0.101 0.079-0.008 0.003-0.015 0.005-0.024 0.009-0.055 0.021-0.118 0.048-0.177 0.073-0.101 0.044-0.164 0.073-0.19 0.085-0.008-0.005-0.017-0.009-0.026-0.010-0.060-0.012-0.214-0.038-0.365-0.069-0.075-0.015-0.15-0.032-0.21-0.048s-0.109-0.034-0.121-0.042c-0.034-0.023-0.14-0.12-0.229-0.209-0.058-0.057-0.079-0.079-0.109-0.11zM7.37 4.223l0.677 0.337c0.004 0.004 0.077 0.079 0.164 0.165 0.090 0.089 0.187 0.182 0.241 0.218 0.033 0.021 0.080 0.035 0.143 0.052s0.138 0.033 0.215 0.049c0.153 0.031 0.309 0.058 0.365 0.069 0.007 0.001 0.007 0.002 0.008 0.004s0.004 0.007 0.004 0.017c0.001 0.019-0.006 0.052-0.017 0.085-0.017 0.050-0.039 0.091-0.050 0.112l-0.644-0.017-0.648-0.452-0.37-0.056zM3.145 3.589l2.16 0.599 0.652 0.213 0.074 0.095-0.060 0.493 0.569 0.557-0.044 0.303-1.877 0.192-1.504 0.172c-0.609-0.413-1.132-0.908-1.468-1.545-0.173-0.328-0.301-0.711-0.369-1.106 0.62-0.004 1.234-0.059 1.865 0.028zM9.678 4.938c0.1 0.078 0.199 0.156 0.299 0.234l0.296 0.403-0.358 0.033-0.718-0.258c0.014-0.027 0.031-0.063 0.045-0.105 0.013-0.037 0.023-0.076 0.021-0.114-0-0.006-0.002-0.011-0.003-0.017 0.031-0.014 0.083-0.038 0.176-0.079 0.059-0.026 0.121-0.052 0.174-0.072 0.025-0.010 0.047-0.018 0.067-0.024zM6.086 4.443l1.384 0.452-0.001-0.010 0.33 0.050 0.612 0.426-0.193 0.274 0.944 1.072-0.226 0.262 0.066 0.342-0.189 0.073-1.256-1.049-0.984-0.475 0.050-0.342-0.57-0.557 0.059-0.487zM10.322 5.641c0.773 0.712 1.295 1.466 1.679 2.284l-2.765-1.249-0.921-1.046 0.169-0.24 0.652 0.017 0.769 0.277 0.417-0.038zM6.524 5.922l0.992 0.478 1.247 1.041-0.218 0.672 0.943 0.268c-0.712-0.081-1.383-0.126-1.961-0.118-0.615-0.204-1.182-0.418-1.652-0.638-0.87-0.407-1.836-0.808-2.659-1.348l1.414-0.162zM9.223 6.754l2.831 1.278-0.338 0.36c0.589 0.111 1.081 0.249 1.535 0.396l-0.053 0.348-0.074-0.212c-0.004-0.011-0.010 0.045-0.022 0.043-0.986-0.197-2.081-0.391-3.129-0.528l-1.333-0.378 0.196-0.604 0.252-0.097-0.071-0.368zM12.959 9.053l-0.587 0.077-0.048-0.023-1.186-0.337c0.62 0.086 1.238 0.183 1.821 0.283zM10.616 8.701l1.589 0.451-0.975 0.128c-0.962-0.226-2.007-0.494-2.983-0.789 0.723 0.026 1.539 0.105 2.368 0.21zM12.36 9.208l0.343 0.164 0.086 0.258c-0.41-0.088-0.866-0.188-1.35-0.3zM7.564 8.484c1.056 0.323 2.244 0.606 3.347 0.839l-0.582 0.077-3.332-0.478-2.083-0.224-0.873-0.134c1.049-0.18 2.312-0.038 3.327-0.075 0.063-0.002 0.129-0.003 0.195-0.004zM14.033 10.503l-0.164 0.194c-0.358 0.224-0.776 0-1.139 0.108-0.443-0.038-1.677-0.252-2.649-0.465l-0.515 0.778-2.566-0.365c-0.332 0.203-0.842 0.545-1.165 0.726-0.306 0.17-0.616 0.344-0.856 0.483-0.12 0.070-0.223 0.13-0.299 0.178-0.038 0.024-0.070 0.044-0.094 0.061-0.022 0.015-0.037 0.026-0.049 0.039-0.346-0.065-0.687-0.155-1.023-0.277-0.307-0.112-0.556-0.38-0.727-0.66-0.053-0.086-0.109-0.18-0.166-0.276l3.929-1.686 2.109 0.42 0.786-0.38c0.012 0.002 1.053 0.2 2.154 0.391 0.554 0.096 1.057 0.319 1.508 0.385 0.226 0.033 0.543 0.313 0.697 0.329 0.095 0.010 0.169 0.016 0.228 0.017zM9.364 9.337l-0.715 0.345-2.122-0.435c-1.302 0.673-2.629 1.142-3.944 1.713-0.265-0.459-0.505-0.991-0.257-1.396 0.33-0.538 0.867-0.817 1.499-0.958l1.080 0.166 2.083 0.224zM12.669 10.888l-0.064 0.741c-1.015 0.042-2.049 0.209-3.083 0.375l0.098-0.83 0.58-0.685c1.322 0.196 1.356 0.21 2.034 0.326zM9.541 11.192l-0.097 0.825c-1.631 0.261-3.259 0.508-4.806 0.242 0.022-0.015 0.049-0.032 0.083-0.053 0.075-0.047 0.178-0.107 0.297-0.177 0.239-0.139 0.549-0.313 0.854-0.483 0.606-0.338 1.189-0.655 1.199-0.66z"></path>
        </symbol>
        <symbol id="icon-mark" viewBox="0 0 32 32">
            <title>mark</title>
            <path d="M7.885 6.191c-0.579 0.065-1.144 0.223-1.682 0.445-0.575 0.249-1.114 0.585-1.586 0.999-0.423 0.369-0.803 0.79-1.123 1.252-0.365 0.525-0.675 1.089-0.915 1.682-0.222 0.533-0.369 1.093-0.528 1.647-0.166 0.587-0.321 1.18-0.384 1.788-0.081 0.623-0.136 1.25-0.135 1.878-0.010 0.613 0.006 1.226 0.031 1.838 0.059 1.401 0.172 2.8 0.25 4.2 0.059 0.47-0.013 1.027 0.342 1.396 0.186 0.191 0.545 0.088 0.596-0.173 0.094-0.597 0.101-1.213 0.126-1.82 0.028-0.759 0.066-1.518 0.098-2.277 0.066-0.654 0.142-1.308 0.231-1.959 0.16-1.015 0.351-2.024 0.564-3.029 0.137-0.651 0.288-1.299 0.459-1.941 0.161-0.57 0.379-1.127 0.673-1.642 0.295-0.506 0.66-0.971 1.098-1.36 0.397-0.377 0.894-0.647 1.424-0.782 0.557-0.128 1.137-0.167 1.707-0.119 0.511 0.039 0.996 0.292 1.296 0.713 0.304 0.409 0.468 0.898 0.632 1.374 0.188 0.583 0.28 1.19 0.394 1.791 0.24 1.29 0.454 2.586 0.687 3.877 0.105 0.625 0.247 1.243 0.394 1.86 0.138 0.626 0.338 1.237 0.554 1.84 0.211 0.632 0.487 1.241 0.827 1.814 0.331 0.573 0.741 1.101 1.207 1.57 0.446 0.45 0.954 0.835 1.495 1.162 0.552 0.319 1.137 0.585 1.75 0.766 0.569 0.171 1.156 0.28 1.748 0.334 0.586 0.061 1.176 0.027 1.763-0.011 0.563-0.043 1.12-0.162 1.66-0.325 0.548-0.161 1.070-0.404 1.563-0.691 0.49-0.285 0.945-0.628 1.362-1.011 0.487-0.465 0.936-0.967 1.407-1.449 0.082-0.121 0.258-0.054 0.373-0.126 0.463-0.138 0.848-0.461 1.151-0.829 0.359-0.431 0.659-0.91 0.896-1.418 0.242-0.516 0.427-1.062 0.54-1.621 0.114-0.532 0.166-1.078 0.135-1.622 0.018-0.566-0.279-1.063-0.527-1.552-0.276-0.413-0.241-0.922-0.203-1.393-0.005-1.051-0.009-2.102-0.014-3.152-0.029-0.444-0.019-0.917-0.234-1.32-0.162-0.267-0.597-0.162-0.664 0.131-0.17 0.508-0.143 1.057-0.265 1.577-0.141 0.877-0.281 1.754-0.422 2.63-0.072 0.334-0.153 0.666-0.248 0.994-0.55 0.311-1.006 0.768-1.371 1.28-0.36 0.481-0.62 1.031-0.816 1.597-0.177 0.51-0.303 1.038-0.361 1.575-0.050 0.604-0.001 1.21 0.023 1.814-0.401 0.421-0.846 0.799-1.328 1.124-0.486 0.3-1.014 0.537-1.574 0.658-0.558 0.133-1.139 0.174-1.711 0.129-0.544-0.035-1.086-0.141-1.598-0.331-0.523-0.186-1.012-0.462-1.432-0.826-0.439-0.394-0.792-0.877-1.056-1.403-0.261-0.531-0.45-1.094-0.628-1.657-0.308-0.955-0.573-1.923-0.86-2.885-0.243-0.82-0.477-1.644-0.725-2.462-0.257-0.789-0.521-1.575-0.812-2.352-0.219-0.539-0.483-1.060-0.799-1.549-0.337-0.509-0.746-0.969-1.215-1.362-0.464-0.381-0.991-0.684-1.552-0.897-0.551-0.211-1.137-0.333-1.725-0.373-0.321-0.036-0.641-0.022-0.963-0.016z"></path>
        </symbol>
        <symbol id="icon-spredning" viewBox="0 0 32 32">
            <title>spredning</title>
            <path d="M23.012 6.386c-0.14-0.115-0.351-0.072-0.435 0.089-0.977 1.786-2.244 3.19-3.498 4.718 0.779-1.889 1.597-3.547 2.095-5.845 0.025-0.106-0.012-0.218-0.096-0.288-0.169-0.143-0.429-0.051-0.471 0.166-0.494 2.283-1.218 3.716-2.018 5.671 0.105-2.408 0.238-4.362-0.007-7.136-0.006-0.075-0.042-0.144-0.1-0.192-0.193-0.161-0.484-0.006-0.459 0.244 0.22 2.496 0.107 4.522 0.004 6.735-0.54-2.69-0.889-4.99-2.085-8.357-0.016-0.047-0.058-0.077-0.092-0.109-0.216-0.195-0.573 0.017-0.467 0.309 1.164 3.278 1.526 5.354 2.058 8.013-1.442-3.121-2.59-5.773-4.757-9.19-0.016-0.025-0.035-0.047-0.057-0.066-0.253-0.221-0.617 0.093-0.435 0.376 2.013 3.174 3.319 5.919 4.676 8.851-0.728-0.972-1.676-2.23-2.591-3.409-1.065-1.372-2.144-2.736-2.985-3.752-0.42-0.508-0.782-0.929-1.054-1.224-0.136-0.147-0.249-0.262-0.344-0.346-0.047-0.042-0.089-0.076-0.138-0.107-0.025-0.015-0.051-0.030-0.091-0.043s-0.105-0.031-0.194 0.001c-0.252 0.086-0.231 0.449 0.030 0.505 0.012 0.009 0.021 0.016 0.046 0.038 0.070 0.062 0.178 0.169 0.307 0.31 0.259 0.281 0.616 0.697 1.033 1.201 0.835 1.008 1.913 2.371 2.976 3.741 0.941 1.212 1.816 2.366 2.553 3.351-1.035-0.989-2.065-1.978-3.13-2.959-1.734-1.597-3.559-3.162-5.637-4.624-0.286-0.202-0.589 0.227-0.303 0.429 3.248 2.286 5.979 4.904 8.647 7.454-2.998-1.98-6.086-4.046-9.437-5.681-0.314-0.154-0.545 0.318-0.23 0.471 3.379 1.649 6.544 3.742 9.608 5.763-2.734-1.151-5.599-2.43-8.554-2.992-0.356-0.083-0.458 0.463-0.097 0.515 3.088 0.587 5.815 1.892 8.768 3.116-2.44-0.349-4.717-0.74-7.348-0.589-0.349 0.019-0.32 0.543 0.029 0.524 2.795-0.16 5.066 0.37 7.76 0.728-2.071 0.569-3.731 1.225-5.896 1.402-0.371 0.007-0.326 0.574 0.042 0.522 2.199-0.179 4.199-0.834 6.208-1.393-1.565 1-2.952 2.18-4.71 2.715-0.335 0.102-0.182 0.604 0.153 0.502 1.778-0.541 3.389-1.916 4.811-2.862-3.559 4.376-7.777 8.504-11.708 12.331-0.272-0.093-0.583-0.032-0.8 0.181l-3.634 3.031c-1.065 0.962 0.432 2.535 1.445 1.519l3.266-3.417c0.282-0.26 0.312-0.666 0.125-0.974 3.736-3.636 8.148-8.171 11.59-12.313-0.633 1.271-1.888 3.356-2.677 4.195-0.246 0.256 0.145 0.62 0.383 0.358 0.988-1.051 1.96-2.829 2.677-4.282-0.365 1.796-0.812 3.4-1.68 5.21-0.223 0.426 0.436 0.741 0.628 0.3 1.011-2.111 1.070-3.366 1.468-5.292 0.331 2.522 0.741 4.854 0.606 6.871-0.056 0.375 0.526 0.415 0.521 0.036 0.124-1.849-0.331-4.445-0.642-6.643 0.94 2.584 2.074 5.541 2.416 7.777 0.052 0.346 0.571 0.268 0.519-0.078-0.347-2.277-1.489-5.108-2.41-7.621 1.91 3.186 4.125 6.455 5.063 9.102 0.117 0.33 0.613 0.154 0.495-0.176-0.96-2.711-3.169-5.912-5.052-9.036 2.71 3.055 5.209 5.545 7.665 9.141 0.222 0.326 0.711-0.008 0.489-0.334-2.579-3.775-4.971-5.919-7.762-9.083 3.415 2.499 6.014 4.082 9.496 7.539 0.279 0.278 0.695-0.14 0.416-0.418-3.531-3.505-6.201-5.171-9.611-7.666 3.582 1.604 6.425 2.988 10.364 5.241 0.3 0.178 0.606-0.219 0.358-0.464-0.019-0.018-0.040-0.034-0.064-0.047-4.060-2.322-6.966-3.648-10.657-5.295 3.093 0.521 5.611 0.807 9.005 1.986 0.315 0.118 0.552-0.296 0.291-0.508-0.029-0.023-0.061-0.041-0.097-0.052-3.597-1.25-6.132-1.52-9.334-2.065 2.485-0.343 4.418-0.769 7.063-0.489 0.276 0.036 0.437-0.303 0.235-0.495-0.047-0.045-0.108-0.073-0.173-0.078-2.75-0.291-4.784 0.197-7.254 0.541 1.856-0.872 3.24-1.722 5.389-2.115 0.235-0.039 0.326-0.327 0.157-0.494-0.068-0.067-0.166-0.097-0.26-0.078-1.999 0.366-4.015 1.521-5.652 2.299 1.318-0.983 3.022-2.191 4.684-3.424 0.15-0.107 0.16-0.326 0.021-0.448-0.102-0.090-0.254-0.094-0.362-0.011-1.779 1.319-3.294 2.488-4.704 3.54 1.183-1.423 2.716-2.98 3.674-4.73 0.063-0.112 0.044-0.252-0.046-0.343-0.007-0.007-0.014-0.014-0.021-0.020z"></path>
        </symbol>
        <symbol id="icon-ertebelg" viewBox="0 0 32 32">
            <title>ertebelg</title>
            <path d="M28.837 1.373c0 0-22.726 9.036-27.483 19.43-1.441 3.148 0.855 10.437 0.855 10.437s20.211-10.271 26.655-18.772c1.865-2.461 0.208-6.791 0.159-10.028-0.002-0.116 0.78-0.768 1.433-0.838 0.11-0.012 0.217 0.202 0.315 0.397 0.093 0.184 0.179 0.353 0.254 0.299 0.39-0.278 0.144-1.52 0.143-1.608-0.005-0.304-1.404 0.319-2.33 0.684zM24.701 5.447c1.444-0.066 2.669 1.051 2.736 2.495s-1.052 2.67-2.497 2.736c-1.445 0.066-2.67-1.052-2.736-2.497s1.053-2.668 2.497-2.734zM18.764 9.396c1.724-0.079 3.186 1.255 3.264 2.979s-1.255 3.186-2.979 3.264c-1.724 0.078-3.184-1.256-3.263-2.979s1.254-3.185 2.977-3.264zM11.982 13.939c1.875-0.086 3.466 1.364 3.552 3.24s-1.365 3.467-3.242 3.552c-1.876 0.086-3.467-1.365-3.552-3.241s1.366-3.465 3.242-3.55zM5.871 19.093c1.875-0.085 3.465 1.366 3.55 3.242s-1.365 3.464-3.24 3.55c-1.875 0.086-3.466-1.364-3.552-3.24s1.365-3.467 3.241-3.552z"></path>
        </symbol>
        <symbol id="icon-blad" viewBox="0 0 32 32">
            <title>blad</title>
            <path d="M25.465 5.11l-1.955 0.582-0.779-0.87-2.724 1.032-1.295-0.672-1.522 0.999c-0.886-0.165-1.633-0.563-2.764-0.32 0.062 0.871-0.545 1.359-1.093 1.882-1.267 0.024-2.452-0.44-3.803 0.087-0.049 0.83-0.726 1.409-1.187 2.075-1.369 0.476-3.035 0.207-4.080 1.495 0.495 0.828 0.403 1.46 0.377 2.114-1.312 0.409-2.694 0.609-3.839 1.519 0.762 0.47 1.246 1.079 1.649 1.728-0.479 0.444-0.978 0.856-1.155 1.764 1.152 0.125 1.749 0.647 2.279 1.217-0.302 0.458-0.631 0.9-0.319 1.708 1.725-0.452 3.039 0.328 4.558 0.492l0.345 0.221c0 0-4.268 2.597-5.775 4.957-0.133 0.336-0.107 0.795 0.118 1.078 0.336 0.423 0.988 0.518 1.528 0.539 0.705 0.027 1.46-0.151 2.044-0.546 1.046-2.737 3.844-5.821 4.064-5.454l0.521 0.032c1.112 0.596 2.813 0.771 3.326 1.795 1.066-0.091 1.612-0.702 2.352-1.118 1.224-0.023 2.803-0.303 3.104 0.345 0.883-0.126 1.315-1.003 1.957-1.531 1.185-0.18 2.402-0.556 3.503-0.233 0.587-0.941 0.134-1.753 0.066-2.613 1.147-0.419 2.371-1.028 3.353-1.032 0.429-0.704 0.053-1.753-0.107-2.709 0.746-0.9 1.565-1.359 2.4-1.723-0.555-0.905-1.309-1.31-2.037-1.781 0.723-0.843 1.446-1.264 2.168-1.57-0.576-0.472-1.152-0.941-1.977-0.917 0.035-0.73 0.304-1.072 0.606-1.357-0.869-0.561-1.264-0.293-1.799-0.27l-0.019-1.828-1.805 0.064z"></path>
        </symbol>
        <symbol id="icon-skrin" viewBox="0 0 32 32">
            <title>skrin</title>
            <path d="M15.971 1.973c-1.092 0.016-1.971 0.906-1.971 2 0 0.010 0 0.019 0 0.029l-0 4.999h-3.258c-0.095-0.158-0.203-0.293-0.328-0.414l-6.001-6.001c-0.364-0.374-0.872-0.605-1.434-0.605-0.001 0-0.001 0-0.002 0-1.103 0.001-1.998 0.896-1.998 2 0 0.562 0.232 1.070 0.605 1.433l4.014 4.014c-2.687 0.976-4.6 3.54-4.6 6.572h10.023v-2.191c0-0.448 0.362-0.809 0.811-0.809h8.357c0.448 0 0.809 0.36 0.809 0.809v2.191h10.023c0-3.039-1.921-5.607-4.617-6.578l4.008-4.008c0.374-0.364 0.606-0.872 0.606-1.434 0-1.105-0.896-2-2-2-0.021 0-0.041 0-0.062 0.001-0.538 0.017-1.022 0.245-1.372 0.605l-6 6c-0.125 0.121-0.233 0.257-0.323 0.405l-3.263 0.009v-5c0-0.008 0-0.018 0-0.027 0-1.105-0.896-2-2-2-0.010 0-0.021 0-0.031 0zM15.984 2.986c0.005-0 0.010-0 0.016-0 0.552 0 1 0.448 1 1 0 0.005-0 0.010-0 0.014v5.999c0 0.004 0 0.009 0 0.014 0 0.552-0.448 1-1 1s-1-0.448-1-1c0-0.005 0-0.010 0-0.015v-5.999c-0-0.004-0-0.009-0-0.014 0-0.547 0.439-0.991 0.984-1zM2.99 2.99c0.281 0 0.535 0.116 0.717 0.302l6 6c0.19 0.182 0.308 0.438 0.308 0.722 0 0.552-0.448 1-1 1-0.283 0-0.539-0.118-0.721-0.307l-6-6c-0.187-0.182-0.303-0.436-0.303-0.717 0-0.552 0.448-1 1-1zM28.98 2.99c0.009-0 0.019-0 0.029-0 0.552 0 1 0.448 1 1 0 0.281-0.116 0.535-0.303 0.717l-6 6c-0.182 0.19-0.438 0.307-0.721 0.307-0.552 0-1-0.448-1-1 0-0.283 0.118-0.539 0.307-0.721l6-6c0.175-0.18 0.417-0.294 0.686-0.303zM12.834 14c-0.448 0-0.811 0.36-0.811 0.809v3.383c0 0.448 0.362 0.809 0.811 0.809h6.357c0.448 0 0.809-0.36 0.809-0.809v-3.383c0-0.448-0.36-0.809-0.809-0.809zM1.809 17c-0.448 0-0.809 0.36-0.809 0.809v12.383c0 0.448 0.36 0.809 0.809 0.809h28.406c0.448 0 0.809-0.36 0.809-0.809v-12.383c0-0.448-0.36-0.809-0.809-0.809h-9.215v2.191c0 0.448-0.36 0.809-0.809 0.809h-8.357c-0.448 0-0.811-0.36-0.811-0.809v-2.191z"></path>
        </symbol>
        <symbol id="icon-diamond" viewBox="0 0 32 32">
            <title>diamond</title>
            <path d="M13.799 5.492h-5.823l-1.349 0.61-5.914 5.729 15.008 14.677 15.567-14.693-6.446-5.735-1.358-0.588h-5.823zM8.803 7.102h4.924l-3.496 3.346zM17.732 7.102h4.924l-1.427 3.346zM15.73 7.413l3.776 3.616h-7.556zM24.175 7.643l3.805 3.386h-5.248zM7.303 7.69l1.424 3.339h-4.874zM3.841 12.639h5.572l3.987 9.351zM11.164 12.639h9.131l-4.565 10.703zM22.043 12.639h6.028l-10.087 9.518z"></path>
        </symbol>
        <symbol id="icon-diamond-neg" viewBox="0 0 32 32">
            <title>diamond-neg</title>
            <path d="M5 2c-1.662 0-3 1.338-3 3v22c0 1.662 1.338 3 3 3h22c1.662 0 3-1.338 3-3v-22c0-1.662-1.338-3-3-3h-22zM10.018 8.166h11.563l1.012 0.438 4.807 4.275-11.607 10.955-11.189-10.943 4.41-4.271 1.006-0.453zM10.633 9.365l1.064 2.494 2.607-2.494h-3.672zM17.291 9.365l2.607 2.494 1.064-2.494h-3.672zM15.799 9.598l-2.818 2.695h5.633l-2.814-2.695zM22.096 9.77l-1.076 2.523h3.912l-2.836-2.523zM9.516 9.805l-2.572 2.488h3.635l-1.063-2.488zM6.934 13.494l7.127 6.973-2.973-6.973h-4.154zM12.395 13.494l3.404 7.98 3.404-7.98h-6.809zM20.506 13.494l-3.027 7.096 7.521-7.096h-4.494z"></path>
        </symbol>
        <symbol id="icon-headphones" viewBox="0 0 32 32">
            <title>headphones</title>
            <path d="M9 18h-2v14h2c0.55 0 1-0.45 1-1v-12c0-0.55-0.45-1-1-1z"></path>
            <path d="M23 18c-0.55 0-1 0.45-1 1v12c0 0.55 0.45 1 1 1h2v-14h-2z"></path>
            <path d="M32 16c0-8.837-7.163-16-16-16s-16 7.163-16 16c0 1.919 0.338 3.759 0.958 5.464-0.609 1.038-0.958 2.246-0.958 3.536 0 3.526 2.608 6.443 6 6.929v-13.857c-0.997 0.143-1.927 0.495-2.742 1.012-0.168-0.835-0.258-1.699-0.258-2.584 0-7.18 5.82-13 13-13s13 5.82 13 13c0 0.885-0.088 1.749-0.257 2.584-0.816-0.517-1.745-0.87-2.743-1.013v13.858c3.392-0.485 6-3.402 6-6.929 0-1.29-0.349-2.498-0.958-3.536 0.62-1.705 0.958-3.545 0.958-5.465z"></path>
        </symbol>
        <symbol id="icon-book" viewBox="0 0 32 32">
            <title>book</title>
            <path d="M28 4v26h-21c-1.657 0-3-1.343-3-3s1.343-3 3-3h19v-24h-20c-2.2 0-4 1.8-4 4v24c0 2.2 1.8 4 4 4h24v-28h-2z"></path>
            <path d="M7.002 26v0c-0.001 0-0.001 0-0.002 0-0.552 0-1 0.448-1 1s0.448 1 1 1c0.001 0 0.001-0 0.002-0v0h18.997v-2h-18.997z"></path>
        </symbol>
        <symbol id="icon-users" viewBox="0 0 36 32">
            <title>users</title>
            <path d="M24 24.082v-1.649c2.203-1.241 4-4.337 4-7.432 0-4.971 0-9-6-9s-6 4.029-6 9c0 3.096 1.797 6.191 4 7.432v1.649c-6.784 0.555-12 3.888-12 7.918h28c0-4.030-5.216-7.364-12-7.918z"></path>
            <path d="M10.225 24.854c1.728-1.13 3.877-1.989 6.243-2.513-0.47-0.556-0.897-1.176-1.265-1.844-0.95-1.726-1.453-3.627-1.453-5.497 0-2.689 0-5.228 0.956-7.305 0.928-2.016 2.598-3.265 4.976-3.734-0.529-2.39-1.936-3.961-5.682-3.961-6 0-6 4.029-6 9 0 3.096 1.797 6.191 4 7.432v1.649c-6.784 0.555-12 3.888-12 7.918h8.719c0.454-0.403 0.956-0.787 1.506-1.146z"></path>
        </symbol>
        <symbol id="icon-hour-glass" viewBox="0 0 32 32">
            <title>hour-glass</title>
            <path d="M22.781 16c4.305-2.729 7.219-7.975 7.219-14 0-0.677-0.037-1.345-0.109-2h-27.783c-0.072 0.655-0.109 1.323-0.109 2 0 6.025 2.914 11.271 7.219 14-4.305 2.729-7.219 7.975-7.219 14 0 0.677 0.037 1.345 0.109 2h27.783c0.072-0.655 0.109-1.323 0.109-2 0-6.025-2.914-11.271-7.219-14zM5 30c0-5.841 2.505-10.794 7-12.428v-3.143c-4.495-1.634-7-6.587-7-12.428v0h22c0 5.841-2.505 10.794-7 12.428v3.143c4.495 1.634 7 6.587 7 12.428h-22zM19.363 20.925c-2.239-1.27-2.363-2.918-2.363-3.918v-2.007c0-1 0.119-2.654 2.367-3.927 1.203-0.699 2.244-1.761 3.033-3.073h-12.799c0.79 1.313 1.832 2.376 3.036 3.075 2.239 1.27 2.363 2.918 2.363 3.918v2.007c0 1-0.119 2.654-2.367 3.927-2.269 1.318-3.961 3.928-4.472 7.073h15.677c-0.511-3.147-2.204-5.758-4.475-7.075z"></path>
        </symbol>
        <symbol id="icon-search" viewBox="0 0 32 32">
            <title>search</title>
            <path d="M31.008 27.231l-7.58-6.447c-0.784-0.705-1.622-1.029-2.299-0.998 1.789-2.096 2.87-4.815 2.87-7.787 0-6.627-5.373-12-12-12s-12 5.373-12 12 5.373 12 12 12c2.972 0 5.691-1.081 7.787-2.87-0.031 0.677 0.293 1.515 0.998 2.299l6.447 7.58c1.104 1.226 2.907 1.33 4.007 0.23s0.997-2.903-0.23-4.007zM12 20c-4.418 0-8-3.582-8-8s3.582-8 8-8 8 3.582 8 8-3.582 8-8 8z"></path>
        </symbol>
        <symbol id="icon-enlarge" viewBox="0 0 32 32">
            <title>enlarge</title>
            <path d="M32 0h-13l5 5-6 6 3 3 6-6 5 5z"></path>
            <path d="M32 32v-13l-5 5-6-6-3 3 6 6-5 5z"></path>
            <path d="M0 32h13l-5-5 6-6-3-3-6 6-5-5z"></path>
            <path d="M0 0v13l5-5 6 6 3-3-6-6 5-5z"></path>
        </symbol>
        <symbol id="icon-shrink" viewBox="0 0 32 32">
            <title>shrink</title>
            <path d="M18 14h13l-5-5 6-6-3-3-6 6-5-5z"></path>
            <path d="M18 18v13l5-5 6 6 3-3-6-6 5-5z"></path>
            <path d="M14 18h-13l5 5-6 6 3 3 6-6 5 5z"></path>
            <path d="M14 14v-13l-5 5-6-6-3 3 6 6-5 5z"></path>
        </symbol>
        <symbol id="icon-menu" viewBox="0 0 32 32">
            <title>menu</title>
            <path d="M2 6h28v6h-28zM2 14h28v6h-28zM2 22h28v6h-28z"></path>
        </symbol>
        <symbol id="icon-star-empty" viewBox="0 0 32 32">
            <title>star-empty</title>
            <path d="M32 12.408l-11.056-1.607-4.944-10.018-4.944 10.018-11.056 1.607 8 7.798-1.889 11.011 9.889-5.199 9.889 5.199-1.889-11.011 8-7.798zM16 23.547l-6.983 3.671 1.334-7.776-5.65-5.507 7.808-1.134 3.492-7.075 3.492 7.075 7.807 1.134-5.65 5.507 1.334 7.776-6.983-3.671z"></path>
        </symbol>
        <symbol id="icon-star-half" viewBox="0 0 32 32">
            <title>star-half</title>
            <path d="M32 12.408l-11.056-1.607-4.944-10.018-4.944 10.018-11.056 1.607 8 7.798-1.889 11.011 9.889-5.199 9.889 5.199-1.889-11.011 8-7.798zM16 23.547l-0.029 0.015 0.029-17.837 3.492 7.075 7.807 1.134-5.65 5.507 1.334 7.776-6.983-3.671z"></path>
        </symbol>
        <symbol id="icon-star-full" viewBox="0 0 32 32">
            <title>star-full</title>
            <path d="M32 12.408l-11.056-1.607-4.944-10.018-4.944 10.018-11.056 1.607 8 7.798-1.889 11.011 9.889-5.199 9.889 5.199-1.889-11.011 8-7.798z"></path>
        </symbol>
        <symbol id="icon-point-down" viewBox="0 0 32 32">
            <title>point-down</title>
            <path d="M30 13v5c0 1.654-1.346 3-3 3-0.535 0-1.037-0.14-1.472-0.387-0.534 0.833-1.468 1.387-2.528 1.387-0.768 0-1.469-0.29-2-0.766-0.531 0.476-1.232 0.766-2 0.766-0.35 0-0.687-0.060-1-0.171v7.171c0 1.654-1.346 3-3 3s-3-1.346-3-3v-12.334l-5.501 2.932c-0.454 0.262-0.973 0.401-1.499 0.401-1.654 0-3-1.346-3-3 0-0.824 0.327-1.592 0.921-2.163 0.008-0.007 0.015-0.015 0.023-0.022l7.474-6.815h-1.419c-0.552 0-1-0.448-1-1v-6c0-0.552 0.448-1 1-1h20c0.552 0 1 0.448 1 1v6c0 0.552-0.448 1-1 1h-1.382l2.276 4.553c0.070 0.139 0.106 0.292 0.106 0.447zM28 5c0-0.552-0.448-1-1-1s-1 0.448-1 1 0.448 1 1 1 1-0.448 1-1zM28 13.236l-2.618-5.236h-11.995l-9.088 8.287c-0.193 0.19-0.299 0.443-0.299 0.713 0 0.551 0.449 1 1 1 0.171 0 0.332-0.041 0.479-0.122 0.017-0.010 0.033-0.020 0.051-0.029l7-3.732c0.31-0.165 0.684-0.156 0.985 0.025s0.485 0.506 0.485 0.857v14c0 0.551 0.449 1 1 1s1-0.449 1-1v-10c0-0.552 0.448-1 1-1s1 0.448 1 1c0 0.551 0.449 1 1 1s1-0.449 1-1c0-0.552 0.448-1 1-1s1 0.448 1 1c0 0.551 0.449 1 1 1s1-0.449 1-1v-1c0-0.552 0.448-1 1-1s1 0.448 1 1c0 0.551 0.449 1 1 1s1-0.449 1-1v-4.764z"></path>
        </symbol>
        <symbol id="icon-plus" viewBox="0 0 32 32">
            <title>plus</title>
            <path d="M31 12h-11v-11c0-0.552-0.448-1-1-1h-6c-0.552 0-1 0.448-1 1v11h-11c-0.552 0-1 0.448-1 1v6c0 0.552 0.448 1 1 1h11v11c0 0.552 0.448 1 1 1h6c0.552 0 1-0.448 1-1v-11h11c0.552 0 1-0.448 1-1v-6c0-0.552-0.448-1-1-1z"></path>
        </symbol>
        <symbol id="icon-minus" viewBox="0 0 32 32">
            <title>minus</title>
            <path d="M0 13v6c0 0.552 0.448 1 1 1h30c0.552 0 1-0.448 1-1v-6c0-0.552-0.448-1-1-1h-30c-0.552 0-1 0.448-1 1z"></path>
        </symbol>
        <symbol id="icon-cross" viewBox="0 0 32 32">
            <title>cross</title>
            <path d="M31.708 25.708c-0-0-0-0-0-0l-9.708-9.708 9.708-9.708c0-0 0-0 0-0 0.105-0.105 0.18-0.227 0.229-0.357 0.133-0.356 0.057-0.771-0.229-1.057l-4.586-4.586c-0.286-0.286-0.702-0.361-1.057-0.229-0.13 0.048-0.252 0.124-0.357 0.228 0 0-0 0-0 0l-9.708 9.708-9.708-9.708c-0-0-0-0-0-0-0.105-0.104-0.227-0.18-0.357-0.228-0.356-0.133-0.771-0.057-1.057 0.229l-4.586 4.586c-0.286 0.286-0.361 0.702-0.229 1.057 0.049 0.13 0.124 0.252 0.229 0.357 0 0 0 0 0 0l9.708 9.708-9.708 9.708c-0 0-0 0-0 0-0.104 0.105-0.18 0.227-0.229 0.357-0.133 0.355-0.057 0.771 0.229 1.057l4.586 4.586c0.286 0.286 0.702 0.361 1.057 0.229 0.13-0.049 0.252-0.124 0.357-0.229 0-0 0-0 0-0l9.708-9.708 9.708 9.708c0 0 0 0 0 0 0.105 0.105 0.227 0.18 0.357 0.229 0.356 0.133 0.771 0.057 1.057-0.229l4.586-4.586c0.286-0.286 0.362-0.702 0.229-1.057-0.049-0.13-0.124-0.252-0.229-0.357z"></path>
        </symbol>
        <symbol id="icon-checkmark" viewBox="0 0 32 32">
            <title>checkmark</title>
            <path d="M27 4l-15 15-7-7-5 5 12 12 20-20z"></path>
        </symbol>
        <symbol id="icon-play2" viewBox="0 0 32 32">
            <title>play2</title>
            <path d="M16 0c-8.837 0-16 7.163-16 16s7.163 16 16 16 16-7.163 16-16-7.163-16-16-16zM16 29c-7.18 0-13-5.82-13-13s5.82-13 13-13 13 5.82 13 13-5.82 13-13 13zM12 9l12 7-12 7z"></path>
        </symbol>
        <symbol id="icon-pause" viewBox="0 0 32 32">
            <title>pause</title>
            <path d="M16 0c-8.837 0-16 7.163-16 16s7.163 16 16 16 16-7.163 16-16-7.163-16-16-16zM16 29c-7.18 0-13-5.82-13-13s5.82-13 13-13 13 5.82 13 13-5.82 13-13 13zM10 10h4v12h-4zM18 10h4v12h-4z"></path>
        </symbol>
        <symbol id="icon-stop" viewBox="0 0 32 32">
            <title>stop</title>
            <path d="M16 0c-8.837 0-16 7.163-16 16s7.163 16 16 16 16-7.163 16-16-7.163-16-16-16zM16 29c-7.18 0-13-5.82-13-13s5.82-13 13-13 13 5.82 13 13-5.82 13-13 13zM10 10h12v12h-12z"></path>
        </symbol>
        <symbol id="icon-previous" viewBox="0 0 32 32">
            <title>previous</title>
            <path d="M16 0c-8.837 0-16 7.163-16 16s7.163 16 16 16 16-7.163 16-16-7.163-16-16-16zM16 29c-7.18 0-13-5.82-13-13s5.82-13 13-13 13 5.82 13 13-5.82 13-13 13z"></path>
            <path d="M14 16l8-6v12z"></path>
            <path d="M10 10h4v12h-4v-12z"></path>
        </symbol>
        <symbol id="icon-next" viewBox="0 0 32 32">
            <title>next</title>
            <path d="M16 0c8.837 0 16 7.163 16 16s-7.163 16-16 16-16-7.163-16-16 7.163-16 16-16zM16 29c7.18 0 13-5.82 13-13s-5.82-13-13-13-13 5.82-13 13 5.82 13 13 13z"></path>
            <path d="M18 16l-8-6v12z"></path>
            <path d="M22 10h-4v12h4v-12z"></path>
        </symbol>
        <symbol id="icon-play3" viewBox="0 0 32 32">
            <title>play3</title>
            <path d="M6 4l20 12-20 12z"></path>
        </symbol>
        <symbol id="icon-pause2" viewBox="0 0 32 32">
            <title>pause2</title>
            <path d="M4 4h10v24h-10zM18 4h10v24h-10z"></path>
        </symbol>
        <symbol id="icon-stop2" viewBox="0 0 32 32">
            <title>stop2</title>
            <path d="M4 4h24v24h-24z"></path>
        </symbol>
        <symbol id="icon-first" viewBox="0 0 32 32">
            <title>first</title>
            <path d="M4 28v-24h4v11l10-10v10l10-10v22l-10-10v10l-10-10v11z"></path>
        </symbol>
        <symbol id="icon-last" viewBox="0 0 32 32">
            <title>last</title>
            <path d="M28 4v24h-4v-11l-10 10v-10l-10 10v-22l10 10v-10l10 10v-11z"></path>
        </symbol>
        <symbol id="icon-volume-medium" viewBox="0 0 32 32">
            <title>volume-medium</title>
            <path d="M22.485 25.985c-0.384 0-0.768-0.146-1.061-0.439-0.586-0.586-0.586-1.535 0-2.121 4.094-4.094 4.094-10.755 0-14.849-0.586-0.586-0.586-1.536 0-2.121s1.536-0.586 2.121 0c2.55 2.55 3.954 5.94 3.954 9.546s-1.404 6.996-3.954 9.546c-0.293 0.293-0.677 0.439-1.061 0.439v0zM17.157 23.157c-0.384 0-0.768-0.146-1.061-0.439-0.586-0.586-0.586-1.535 0-2.121 2.534-2.534 2.534-6.658 0-9.192-0.586-0.586-0.586-1.536 0-2.121s1.535-0.586 2.121 0c3.704 3.704 3.704 9.731 0 13.435-0.293 0.293-0.677 0.439-1.061 0.439z"></path>
            <path d="M13 30c-0.26 0-0.516-0.102-0.707-0.293l-7.707-7.707h-3.586c-0.552 0-1-0.448-1-1v-10c0-0.552 0.448-1 1-1h3.586l7.707-7.707c0.286-0.286 0.716-0.372 1.090-0.217s0.617 0.519 0.617 0.924v26c0 0.404-0.244 0.769-0.617 0.924-0.124 0.051-0.254 0.076-0.383 0.076z"></path>
        </symbol>
        <symbol id="icon-checkbox-checked" viewBox="0 0 32 32">
            <title>checkbox-checked</title>
            <path d="M28 0h-24c-2.2 0-4 1.8-4 4v24c0 2.2 1.8 4 4 4h24c2.2 0 4-1.8 4-4v-24c0-2.2-1.8-4-4-4zM14 24.828l-7.414-7.414 2.828-2.828 4.586 4.586 9.586-9.586 2.828 2.828-12.414 12.414z"></path>
        </symbol>
        <symbol id="icon-radio-checked" viewBox="0 0 32 32">
            <title>radio-checked</title>
            <path d="M16 0c-8.837 0-16 7.163-16 16s7.163 16 16 16 16-7.163 16-16-7.163-16-16-16zM16 28c-6.627 0-12-5.373-12-12s5.373-12 12-12c6.627 0 12 5.373 12 12s-5.373 12-12 12zM10 16c0-3.314 2.686-6 6-6s6 2.686 6 6c0 3.314-2.686 6-6 6s-6-2.686-6-6z"></path>
        </symbol>
        <symbol id="icon-radio-unchecked" viewBox="0 0 32 32">
            <title>radio-unchecked</title>
            <path d="M16 0c-8.837 0-16 7.163-16 16s7.163 16 16 16 16-7.163 16-16-7.163-16-16-16zM16 28c-6.627 0-12-5.373-12-12s5.373-12 12-12c6.627 0 12 5.373 12 12s-5.373 12-12 12z"></path>
        </symbol>
    </defs>
    <g alignment-baseline="baseline"></g>
</svg>