<?xml version="1.0" encoding="UTF-8" standalone="no"?>
<svg
   xmlns:dc="http://purl.org/dc/elements/1.1/"
   xmlns:cc="http://creativecommons.org/ns#"
   xmlns:rdf="http://www.w3.org/1999/02/22-rdf-syntax-ns#"
   xmlns:svg="http://www.w3.org/2000/svg"
   xmlns="http://www.w3.org/2000/svg"
   version="1.1"
   width="32"
   height="32"
   viewBox="0 0 32 32"
   id="svg5975">
  <metadata
     id="metadata5981">
    <rdf:RDF>
      <cc:Work
         rdf:about="">
        <dc:format>image/svg+xml</dc:format>
        <dc:type
           rdf:resource="http://purl.org/dc/dcmitype/StillImage" />
        <dc:title></dc:title>
      </cc:Work>
    </rdf:RDF>
  </metadata>
  <defs
     id="defs5979" />
  <g
     transform="translate(0,-480)"
     id="icomoon-ignore" />
  <g
     id="text4511"
     style="font-style:normal;font-variant:normal;font-weight:normal;font-stretch:semi-condensed;font-size:23.15765381px;line-height:1.25;font-family:'DejaVu Sans';-inkscape-font-specification:'DejaVu Sans, Semi-Condensed';font-variant-ligatures:normal;font-variant-caps:normal;font-variant-numeric:normal;font-feature-settings:normal;text-align:start;letter-spacing:0px;word-spacing:0px;writing-mode:lr-tb;text-anchor:start;fill:#000000;fill-opacity:1;stroke:none;stroke-width:0.5789547"
     aria-label="abc">
    <path
       id="path4515"
       d="M 11.027344 6.0273438 L 11.027344 23.623047 L 12.916016 23.623047 L 12.916016 21.722656 C 13.308008 22.476486 13.800959 23.038826 14.396484 23.408203 C 14.999548 23.770042 15.719889 23.951172 16.556641 23.951172 C 17.943687 23.951172 19.066415 23.340345 19.925781 22.119141 C 20.792686 20.897937 21.226562 19.290893 21.226562 17.300781 C 21.226562 15.310671 20.792686 13.705579 19.925781 12.484375 C 19.066415 11.26317 17.943687 10.652344 16.556641 10.652344 C 15.719889 10.652344 14.999548 10.837655 14.396484 11.207031 C 13.800959 11.568869 13.308008 12.127029 12.916016 12.880859 L 12.916016 6.0273438 L 11.027344 6.0273438 z M 5.3007812 10.652344 C 4.6901791 10.652344 4.0604031 10.72814 3.4121094 10.878906 C 2.771354 11.022134 2.1078602 11.241162 1.421875 11.535156 L 1.421875 13.457031 C 1.9947857 13.110269 2.5908439 12.851115 3.2089844 12.677734 C 3.8271249 12.504354 4.4591282 12.416016 5.1074219 12.416016 C 6.1326305 12.416016 6.9287682 12.681304 7.4941406 13.208984 C 8.059513 13.729127 8.3417969 14.466464 8.3417969 15.423828 L 8.3417969 15.628906 L 5.71875 15.628906 C 4.0150945 15.628906 2.7324129 15.989214 1.8730469 16.712891 C 1.0212191 17.436567 0.59570312 18.510808 0.59570312 19.935547 C 0.59570312 21.156751 0.93901481 22.134019 1.625 22.865234 C 2.3109852 23.588911 3.2378137 23.951172 4.40625 23.951172 C 5.3334608 23.951172 6.1148298 23.770042 6.7480469 23.408203 C 7.3888023 23.038826 7.9196521 22.470078 8.3417969 21.701172 L 8.3417969 23.623047 L 10.21875 23.623047 L 10.21875 16.396484 C 10.21875 14.46668 9.8121834 13.027951 8.9980469 12.078125 C 8.1839106 11.1283 6.9516687 10.652344 5.3007812 10.652344 z M 27.691406 10.652344 C 25.919906 10.652344 24.521302 11.244222 23.496094 12.427734 C 22.478423 13.611248 21.96875 15.235288 21.96875 17.300781 C 21.96875 19.336122 22.474243 20.953754 23.484375 22.152344 C 24.494507 23.350933 25.859392 23.951172 27.578125 23.951172 C 28.203804 23.951172 28.795682 23.881783 29.353516 23.746094 C 29.918888 23.610404 30.462279 23.408097 30.982422 23.136719 L 30.982422 21.214844 C 30.454741 21.538991 29.921938 21.783376 29.386719 21.949219 C 28.859038 22.107523 28.324007 22.185547 27.78125 22.185547 C 26.560045 22.185547 25.614268 21.760031 24.943359 20.908203 C 24.272451 20.048837 23.9375 18.846133 23.9375 17.300781 C 23.9375 15.755431 24.272451 14.556906 24.943359 13.705078 C 25.614268 12.845712 26.560045 12.416016 27.78125 12.416016 C 28.324007 12.416016 28.859038 12.500173 29.386719 12.666016 C 29.921938 12.82432 30.454741 13.064525 30.982422 13.388672 L 30.982422 11.445312 C 30.469817 11.181472 29.937015 10.98362 29.386719 10.855469 C 28.836423 10.719779 28.271856 10.652344 27.691406 10.652344 z M 16.103516 12.394531 C 17.091033 12.394531 17.868222 12.830635 18.433594 13.705078 C 18.998966 14.571982 19.28125 15.770507 19.28125 17.300781 C 19.28125 18.831056 18.998966 20.03376 18.433594 20.908203 C 17.868222 21.775108 17.091033 22.208984 16.103516 22.208984 C 15.10846 22.208984 14.329045 21.775108 13.763672 20.908203 C 13.198299 20.03376 12.916016 18.831056 12.916016 17.300781 C 12.916016 15.770507 13.198299 14.571982 13.763672 13.705078 C 14.329045 12.830635 15.10846 12.394531 16.103516 12.394531 z M 6.4882812 17.255859 L 8.3417969 17.255859 L 8.3417969 17.720703 C 8.3417969 19.077597 8.0280225 20.166607 7.4023438 20.988281 C 6.7766649 21.802417 5.9445821 22.208984 4.9042969 22.208984 C 4.150467 22.208984 3.5544088 21.994136 3.1171875 21.564453 C 2.6799662 21.127232 2.4609375 20.539535 2.4609375 19.800781 C 2.4609375 18.873571 2.7515822 18.218438 3.3320312 17.833984 C 3.9200185 17.449532 4.9730832 17.255859 6.4882812 17.255859 z "
       style="font-style:normal;font-variant:normal;font-weight:normal;font-stretch:semi-condensed;font-size:23.15765381px;font-family:'DejaVu Sans';-inkscape-font-specification:'DejaVu Sans, Semi-Condensed';font-variant-ligatures:normal;font-variant-caps:normal;font-variant-numeric:normal;font-feature-settings:normal;text-align:start;writing-mode:lr-tb;text-anchor:start;stroke-width:0.5789547" />
  </g>
</svg>
