<?xml version="1.0" encoding="UTF-8" standalone="no"?>
<svg
   xmlns:dc="http://purl.org/dc/elements/1.1/"
   xmlns:cc="http://creativecommons.org/ns#"
   xmlns:rdf="http://www.w3.org/1999/02/22-rdf-syntax-ns#"
   xmlns:svg="http://www.w3.org/2000/svg"
   xmlns="http://www.w3.org/2000/svg"
   xmlns:sodipodi="http://sodipodi.sourceforge.net/DTD/sodipodi-0.dtd"
   xmlns:inkscape="http://www.inkscape.org/namespaces/inkscape"
   version="1.1"
   width="32"
   height="32"
   viewBox="0 0 32 32"
   id="svg5975"
   sodipodi:docname="ikon-blad.svg"
   inkscape:version="0.92.1 unknown">
  <sodipodi:namedview
     pagecolor="#ffffff"
     bordercolor="#666666"
     borderopacity="1"
     objecttolerance="10"
     gridtolerance="10"
     guidetolerance="10"
     inkscape:pageopacity="0"
     inkscape:pageshadow="2"
     inkscape:window-width="1920"
     inkscape:window-height="1176"
     id="namedview4546"
     showgrid="false"
     inkscape:zoom="11.313708"
     inkscape:cx="-0.067493387"
     inkscape:cy="22.346278"
     inkscape:window-x="1920"
     inkscape:window-y="0"
     inkscape:window-maximized="1"
     inkscape:current-layer="layer2"
     inkscape:snap-global="true"
     showguides="true">
    <inkscape:grid
       type="xygrid"
       id="grid5201" />
  </sodipodi:namedview>
  <metadata
     id="metadata5981">
    <rdf:RDF>
      <cc:Work
         rdf:about="">
        <dc:format>image/svg+xml</dc:format>
        <dc:type
           rdf:resource="http://purl.org/dc/dcmitype/StillImage" />
        <dc:title></dc:title>
      </cc:Work>
    </rdf:RDF>
  </metadata>
  <defs
     id="defs5979" />
  <g
     id="icomoon-ignore"
     transform="translate(0,-480)" />
  <g
     inkscape:groupmode="layer"
     id="layer1"
     inkscape:label="Layer 1" />
  <g
     inkscape:groupmode="layer"
     id="layer2"
     inkscape:label="Layer 2">
    <path
       style="opacity:1;vector-effect:none;fill:#000000;fill-opacity:1;stroke:none;stroke-width:0.40604186;stroke-linecap:round;stroke-linejoin:miter;stroke-miterlimit:4;stroke-dasharray:none;stroke-dashoffset:0;stroke-opacity:1;paint-order:markers stroke fill"
       d="M 25.465176,5.1098532 23.510391,5.6921809 22.731561,4.8224839 20.007047,5.8546917 18.712487,5.182261 17.190548,6.1811707 C 16.304402,6.015896 15.557758,5.6181177 14.426453,5.8614424 14.488722,6.7325084 13.881062,7.2207562 13.333011,7.7430669 12.066149,7.7672736 10.880691,7.3030593 9.5299723,7.8304003 9.4806035,8.660564 8.803502,9.2396327 8.3431821,9.905415 6.974489,10.381513 5.307899,10.112868 4.2636042,11.399962 c 0.4950799,0.827859 0.4033151,1.460104 0.3769576,2.11415 -1.3121076,0.408643 -2.6936405,0.609011 -3.83867809,1.518865 0.76203989,0.469793 1.24570859,1.07877 1.64933079,1.727772 -0.4787514,0.444064 -0.9782762,0.856294 -1.1545265,1.763958 1.1519763,0.125195 1.7491616,0.64667 2.2785673,1.216559 -0.3018552,0.457571 -0.6308307,0.899646 -0.3187564,1.708035 1.7246451,-0.452254 3.0385191,0.327804 4.5577786,0.491706 l 0.3453548,0.220705 c 0,0 -4.2680845,2.597346 -5.7746273,4.956591 -0.1328009,0.336122 -0.10664,0.794585 0.1178775,1.077792 0.3355534,0.423271 0.9884152,0.517982 1.5281476,0.539028 0.7047822,0.02748 1.4604087,-0.150544 2.0442038,-0.546342 1.0455192,-2.737333 3.8441087,-5.820923 4.0641101,-5.454254 l 0.52134,0.03218 c 1.111847,0.596112 2.813212,0.771138 3.325892,1.795226 1.066042,-0.09073 1.611735,-0.701817 2.352148,-1.118179 1.224322,-0.0235 2.803232,-0.303152 3.104443,0.344967 0.882776,-0.126446 1.315292,-1.003322 1.957271,-1.531095 1.184578,-0.180001 2.401879,-0.556338 3.502613,-0.233272 0.58649,-0.94134 0.133931,-1.753292 0.06629,-2.613175 1.14741,-0.418746 2.371209,-1.028462 3.352637,-1.032254 0.428647,-0.704012 0.05346,-1.752522 -0.107012,-2.709014 0.745826,-0.900013 1.565127,-1.359178 2.40032,-1.722987 -0.554707,-0.904516 -1.30901,-1.310046 -2.036971,-1.781429 0.722777,-0.842927 1.445554,-1.264288 2.168332,-1.569816 C 30.170989,10.124111 29.59425,9.6547011 28.769805,9.6782959 28.805104,8.9478604 29.073778,8.6063731 29.376248,8.3212185 28.50732,7.7597145 28.112487,8.0278797 27.577494,8.050763 l -0.01919,-1.8281152 -1.805353,0.064213 z"
       id="path5277"
       inkscape:connector-curvature="0"
       sodipodi:nodetypes="ccccccccccccccccccccaacccccccccccccccccccc" />
  </g>
</svg>
