<?xml version="1.0" encoding="UTF-8" standalone="no"?>
<svg
   xmlns:dc="http://purl.org/dc/elements/1.1/"
   xmlns:cc="http://creativecommons.org/ns#"
   xmlns:rdf="http://www.w3.org/1999/02/22-rdf-syntax-ns#"
   xmlns:svg="http://www.w3.org/2000/svg"
   xmlns="http://www.w3.org/2000/svg"
   id="svg5975"
   viewBox="0 0 32 32"
   height="32"
   width="32"
   version="1.1">
  <metadata
     id="metadata5981">
    <rdf:RDF>
      <cc:Work
         rdf:about="">
        <dc:format>image/svg+xml</dc:format>
        <dc:type
           rdf:resource="http://purl.org/dc/dcmitype/StillImage" />
        <dc:title></dc:title>
      </cc:Work>
    </rdf:RDF>
  </metadata>
  <defs
     id="defs5979" />
  <g
     id="icomoon-ignore"
     transform="translate(0,-480)" />
  <path
     id="path5157"
     d="M 15.689094,1.0339426 C 13.52297,1.3391945 12.457775,3.7363968 12.421771,5.7089989 12.21594,6.4718991 13.084598,8.8938422 12.14773,7.2195446 10.857245,5.4687023 8.5073391,3.980164 6.2929982,4.8090226 4.2936459,5.6379134 4.1479756,8.3760487 5.2667069,9.9833589 5.6355087,11.126942 7.8644726,12.550746 7.9151026,12.686264 5.7130613,12.0413 2.8845672,12.473804 1.4794411,14.443545 0.43591552,15.972934 1.309225,18.064957 2.8796324,18.82615 c 1.5983184,0.85739 3.6209222,1.024049 5.3206182,0.384357 -2.12004,1.106946 -4.0220455,3.472922 -3.5427895,5.989529 0.3677308,2.049084 3.0208266,2.783277 4.7008321,1.839039 1.4177128,-0.319683 3.0544468,-2.657795 3.3215168,-2.930182 -0.598718,2.301699 -0.19771,5.378566 2.111659,6.584343 1.808179,0.943402 3.81783,-0.546045 4.364713,-2.286313 0.535803,-1.418425 0.552561,-3.005401 0.128549,-4.455135 1.165939,2.030179 3.465708,3.884501 5.934983,3.38484 2.077614,-0.40876 2.723893,-3.005811 1.828473,-4.711453 -0.600394,-1.361241 -1.667785,-2.488086 -2.940343,-3.246046 2.304481,0.519359 5.24868,0.136578 6.549934,-2.070133 0.891101,-1.614175 -0.174692,-3.543419 -1.732894,-4.243372 -1.678457,-0.809036 -3.738404,-0.896719 -5.454336,-0.148721 1.761069,-0.697884 3.171031,-2.284785 3.764293,-4.075442 C 27.842806,7.2294318 27.111756,5.1147511 25.333136,4.6684685 22.783998,4.1170584 20.366973,6.0167872 19.227697,8.1657021 19.895038,5.9137335 19.655118,2.9563861 17.578664,1.5125343 17.024073,1.1537044 16.349769,0.96426251 15.689094,1.0339426 Z m 0.309969,9.8867614 c 3.293391,-0.125046 5.94043,3.473013 4.851702,6.579334 -0.854423,3.181148 -5.072425,4.652317 -7.719254,2.690683 -2.787669,-1.756404 -2.945754,-6.22044 -0.289311,-8.169636 0.888537,-0.708828 2.020391,-1.103209 3.156863,-1.100381 z m 0,1.269632 c -2.622516,-0.109595 -4.627758,2.921195 -3.508225,5.292148 0.920584,2.456952 4.492118,3.128101 6.240559,1.17043 1.905566,-1.804716 1.130391,-5.355268 -1.352151,-6.203722 -0.43872,-0.170828 -0.90948,-0.259053 -1.380183,-0.258856 z"
     style="fill:#000000;fill-opacity:1;stroke:none;stroke-width:2.63997912;stroke-linecap:round;stroke-miterlimit:4;stroke-dasharray:none;stroke-dashoffset:0" />
</svg>
