<?xml version="1.0" encoding="UTF-8" standalone="no"?>
<svg
   xmlns:dc="http://purl.org/dc/elements/1.1/"
   xmlns:cc="http://creativecommons.org/ns#"
   xmlns:rdf="http://www.w3.org/1999/02/22-rdf-syntax-ns#"
   xmlns:svg="http://www.w3.org/2000/svg"
   xmlns="http://www.w3.org/2000/svg"
   id="svg5975"
   viewBox="0 0 32 32"
   height="32"
   width="32"
   version="1.1">
  <metadata
     id="metadata5981">
    <rdf:RDF>
      <cc:Work
         rdf:about="">
        <dc:format>image/svg+xml</dc:format>
        <dc:type
           rdf:resource="http://purl.org/dc/dcmitype/StillImage" />
        <dc:title></dc:title>
      </cc:Work>
    </rdf:RDF>
  </metadata>
  <defs
     id="defs5979" />
  <g
     id="icomoon-ignore"
     transform="translate(0,-480)" />
  <path
     id="path4509"
     d="m 26.944,1.009 c 0,0 -0.277,0.873 -0.630,1.853 -0.170,0.473 -0.373,0.981 -0.558,1.414 0.002,-0.358 0.011,-0.810 0.023,-1.257 0.024,-0.912 0.060,-1.794 0.060,-1.794 L 24.616,1.177 c 0,0 -0.031,0.887 -0.056,1.808 -0.012,0.460 -0.024,0.929 -0.027,1.306 -4.67e-4,0.070 0.001,0.119 0.002,0.183 -0.702,-0.063 -1.479,0.148 -2.339,1.072 -1.864,2.002 -3.797,6.606 -5.148,10.765 -0.872,2.687 -1.641,5.659 -2.085,7.865 -0.776,3.854 -1.297,6.032 0.152,6.652 0.017,0.007 0.035,0.005 0.052,0.011 0.016,0.008 0.029,0.022 0.046,0.029 1.449,0.619 2.662,-1.261 4.912,-4.486 1.287,-1.845 2.906,-4.455 4.246,-6.943 2.072,-3.850 4.063,-8.428 4.222,-11.160 0.084,-1.452 -0.433,-2.183 -1.089,-2.636 l 2.007,-1.664 -0.781,-0.941 -1.718,1.427 c 0.153,-0.388 0.306,-0.787 0.451,-1.189 0.363,-1.006 0.648,-1.900 0.648,-1.900 z m -22.103,1.349 -0.937,0.351 c 0,0 0.263,0.702 0.531,1.511 0.129,0.391 0.256,0.820 0.355,1.193 C 4.610,5.183 4.387,4.888 4.168,4.593 3.723,3.993 3.299,3.408 3.299,3.408 L 2.489,3.995 c 0,0 0.426,0.587 0.876,1.193 0.225,0.302 0.455,0.611 0.644,0.855 0.035,0.045 0.061,0.076 0.093,0.117 -0.484,0.314 -0.878,0.844 -0.964,1.875 -0.188,2.233 0.895,6.175 2.128,9.537 0.797,2.172 1.805,4.475 2.634,6.121 1.449,2.875 2.215,4.541 3.462,4.207 0.014,-0.003 0.026,-0.015 0.041,-0.019 0.014,-0.003 0.030,4.9e-5 0.044,-0.003 1.247,-0.334 1.077,-2.160 0.894,-5.375 C 12.242,20.663 11.965,18.164 11.569,15.884 10.956,12.356 9.922,8.400 8.643,6.560 7.963,5.582 7.260,5.373 6.608,5.413 L 7.059,3.326 6.081,3.115 5.696,4.904 C 5.599,4.576 5.493,4.242 5.383,3.910 5.108,3.078 4.840,2.359 4.840,2.359 Z m 19.511,3.156 c 0.340,0.008 0.764,0.181 1.261,0.392 -0.022,-0.010 -0.087,-0.038 -0.087,-0.039 -0.001,-0.001 0.069,0.027 0.214,0.089 -0.046,-0.020 -0.081,-0.031 -0.126,-0.050 0.035,0.016 0.047,0.021 0.138,0.064 0.024,0.011 0.048,0.021 0.074,0.031 0.094,0.036 0.103,0.042 0.140,0.056 0.496,0.213 0.914,0.400 1.156,0.640 0.140,0.139 0.259,0.299 0.335,0.554 L 25.540,6.435 c -0.748,-0.321 -1.231,0.802 -0.482,1.123 l 2.394,1.021 c 0.011,0.004 0.021,0.008 0.033,0.011 -0.184,1.532 -1.022,3.875 -2.101,6.318 l -3.398,-1.451 c -0.766,-0.365 -1.271,0.823 -0.476,1.123 l 3.390,1.449 c -0.463,0.989 -0.960,1.976 -1.462,2.910 -0.693,1.287 -1.458,2.598 -2.218,3.830 l -2.869,-1.228 c -0.749,-0.319 -1.230,0.805 -0.480,1.125 l 2.669,1.140 c -0.438,0.683 -0.891,1.413 -1.281,1.972 -1.128,1.618 -2.001,2.880 -2.652,3.556 -0.325,0.338 -0.584,0.513 -0.718,0.566 -0.108,0.042 -0.134,0.042 -0.207,0.013 -0.028,-0.013 -0.019,-0.009 -0.058,-0.027 -0.025,-0.012 -0.051,-0.024 -0.078,-0.035 -0.04,-0.015 -0.031,-0.011 -0.060,-0.023 -0.070,-0.032 -0.089,-0.050 -0.132,-0.158 -0.054,-0.133 -0.109,-0.441 -0.089,-0.910 0.023,-0.569 0.164,-1.409 0.345,-2.367 l 1.857,0.794 c 0.749,0.319 1.228,-0.805 0.478,-1.125 l -2.095,-0.894 c 0.055,-0.274 0.092,-0.489 0.152,-0.785 0.355,-1.765 0.936,-4.057 1.605,-6.285 l 1.978,0.843 c 0.766,0.365 1.273,-0.823 0.478,-1.123 l -2.095,-0.896 c 0.030,-0.094 0.057,-0.191 0.087,-0.285 0.858,-2.642 2.004,-5.485 3.130,-7.626 l 3.214,1.374 c 0.749,0.323 1.233,-0.803 0.482,-1.123 L 21.780,7.941 c 0.412,-0.691 0.814,-1.271 1.189,-1.673 0.647,-0.695 1.011,-0.761 1.382,-0.751 z M 6.897,6.285 c 0.160,0.018 0.319,0.061 0.498,0.187 L 5.743,6.915 C 5.098,7.087 5.356,8.054 6.000,7.882 L 8.059,7.329 c 0.009,-0.002 0.018,-0.006 0.027,-0.009 0.656,1.080 1.301,3.013 1.841,5.132 l -2.921,0.783 c -0.678,0.152 -0.403,1.174 0.259,0.964 l 2.917,-0.781 c 0.201,0.871 0.380,1.757 0.529,2.613 0.204,1.179 0.374,2.412 0.507,3.589 l -2.468,0.660 c -0.644,0.173 -0.384,1.139 0.259,0.966 L 11.309,20.634 c 0.063,0.661 0.140,1.360 0.171,1.917 0.091,1.613 0.168,2.868 0.091,3.632 -0.038,0.382 -0.118,0.626 -0.177,0.728 -0.047,0.082 -0.066,0.095 -0.126,0.113 -0.025,0.005 -0.016,0.004 -0.050,0.011 -0.023,0.004 -0.045,0.010 -0.068,0.017 -0.033,0.010 -0.026,0.008 -0.050,0.015 -0.061,0.014 -0.083,0.012 -0.166,-0.035 -0.102,-0.058 -0.293,-0.229 -0.517,-0.541 -0.272,-0.379 -0.606,-0.991 -0.974,-1.699 L 11.038,24.369 c 0.644,-0.173 0.384,-1.139 -0.259,-0.966 L 8.975,23.886 C 8.872,23.681 8.787,23.525 8.676,23.304 8.012,21.987 7.228,20.215 6.532,18.443 L 8.233,17.986 C 8.912,17.834 8.637,16.812 7.973,17.021 l -1.804,0.482 c -0.028,-0.076 -0.060,-0.152 -0.087,-0.228 -0.783,-2.136 -1.481,-4.546 -1.839,-6.496 l 2.765,-0.740 C 7.651,9.867 7.393,8.900 6.749,9.072 L 4.083,9.786 C 3.998,9.132 3.965,8.556 4.002,8.107 4.068,7.331 4.268,7.105 4.512,6.923 4.736,6.757 5.096,6.652 5.524,6.536 c -0.019,0.004 -0.075,0.019 -0.076,0.019 -0.001,2.675e-4 0.058,-0.017 0.183,-0.050 -0.040,0.010 -0.068,0.020 -0.107,0.031 0.031,-0.007 0.040,-0.008 0.121,-0.027 0.021,-0.005 0.043,-0.010 0.064,-0.017 0.079,-0.024 0.088,-0.025 0.119,-0.035 C 6.257,6.343 6.620,6.252 6.897,6.285 Z"/>
</svg>
