<?xml version="1.0" encoding="UTF-8" standalone="no"?>
<svg
   xmlns:dc="http://purl.org/dc/elements/1.1/"
   xmlns:cc="http://creativecommons.org/ns#"
   xmlns:rdf="http://www.w3.org/1999/02/22-rdf-syntax-ns#"
   xmlns:svg="http://www.w3.org/2000/svg"
   xmlns="http://www.w3.org/2000/svg"
   id="svg5975"
   viewBox="0 0 32 32"
   height="32"
   width="32"
   version="1.1">
  <metadata
     id="metadata5981">
    <rdf:RDF>
      <cc:Work
         rdf:about="">
        <dc:format>image/svg+xml</dc:format>
        <dc:type
           rdf:resource="http://purl.org/dc/dcmitype/StillImage" />
        <dc:title></dc:title>
      </cc:Work>
    </rdf:RDF>
  </metadata>
  <defs
     id="defs5979" />
  <path
     id="rect4722"
     d="M 5 2 C 3.338 2 2 3.338 2 5 L 2 27 C 2 28.662 3.338 30 5 30 L 27 30 C 28.662 30 30 28.662 30 27 L 30 5 C 30 3.338 28.662 2 27 2 L 5 2 z M 10.017578 8.1660156 L 14.359375 8.1660156 L 17.238281 8.1660156 L 21.580078 8.1660156 L 22.591797 8.6035156 L 27.398438 12.878906 L 15.791016 23.833984 L 4.6015625 12.890625 L 9.0117188 8.6191406 L 10.017578 8.1660156 z M 10.632812 9.3652344 L 11.697266 11.859375 L 14.304688 9.3652344 L 10.632812 9.3652344 z M 17.291016 9.3652344 L 19.898438 11.859375 L 20.962891 9.3652344 L 17.291016 9.3652344 z M 15.798828 9.5976562 L 12.980469 12.292969 L 18.613281 12.292969 L 15.798828 9.5976562 z M 22.095703 9.7695312 L 21.019531 12.292969 L 24.931641 12.292969 L 22.095703 9.7695312 z M 9.515625 9.8046875 L 6.9433594 12.292969 L 10.578125 12.292969 L 9.515625 9.8046875 z M 6.9335938 13.494141 L 14.060547 20.466797 L 11.087891 13.494141 L 6.9335938 13.494141 z M 12.394531 13.494141 L 15.798828 21.474609 L 19.203125 13.494141 L 12.394531 13.494141 z M 20.505859 13.494141 L 17.478516 20.589844 L 25 13.494141 L 20.505859 13.494141 z "
     style="opacity:1;vector-effect:none;fill:#000000;fill-opacity:1;stroke:none;stroke-width:1;stroke-linecap:butt;stroke-linejoin:bevel;stroke-miterlimit:4;stroke-dasharray:none;stroke-dashoffset:0;stroke-opacity:1;paint-order:markers stroke fill" />
  <g
     id="icomoon-ignore"
     transform="translate(0,-480)" />
</svg>
