<?xml version="1.0" encoding="UTF-8" standalone="no"?>
<svg
   xmlns:dc="http://purl.org/dc/elements/1.1/"
   xmlns:cc="http://creativecommons.org/ns#"
   xmlns:rdf="http://www.w3.org/1999/02/22-rdf-syntax-ns#"
   xmlns:svg="http://www.w3.org/2000/svg"
   xmlns="http://www.w3.org/2000/svg"
   id="svg5975"
   viewBox="0 0 32 32"
   height="32"
   width="32"
   version="1.1">
  <metadata
     id="metadata5981">
    <rdf:RDF>
      <cc:Work
         rdf:about="">
        <dc:format>image/svg+xml</dc:format>
        <dc:type
           rdf:resource="http://purl.org/dc/dcmitype/StillImage" />
        <dc:title></dc:title>
      </cc:Work>
    </rdf:RDF>
  </metadata>
  <defs
     id="defs5979" />
  <g
     transform="translate(0,-480)"
     id="icomoon-ignore" />
  <path
     id="path4594"
     d="M 16.123106,2.0175134 A 15.054654,13.929414 0 0 0 1.0682425,15.945903 15.054654,13.929414 0 0 0 16.123106,29.876754 15.054654,13.929414 0 0 0 29.662986,21.997446 C 28.85385,20.911021 27.966953,19.776697 26.971226,18.614979 23.968802,15.112046 20.359946,11.621994 18.302923,10.450314 17.410584,9.9420393 16.758715,9.643458 16.197234,9.2350861 15.635751,8.8267147 15.184536,8.2205178 14.985711,7.4393027 14.714026,6.3718103 14.915361,5.3417545 15.502287,4.6742886 c 0.586927,-0.6674659 1.42262,-0.9620576 2.311857,-1.0602502 1.778472,-0.1963847 3.913373,0.3755238 5.564207,1.5596255 3.823119,2.7422283 6.074747,7.0041271 7.748656,11.6996501 A 15.054654,13.929414 0 0 0 31.177971,15.945903 15.054654,13.929414 0 0 0 16.123107,2.0175134 Z m 1.850875,3.22749 c -0.655853,0.072421 -1.123746,0.2985931 -1.343564,0.5485749 -0.219817,0.2499814 -0.32701,0.533537 -0.152887,1.2176885 0.121047,0.475611 0.223341,0.6019606 0.593021,0.8708319 0.369678,0.2688711 1.025558,0.5907746 1.962066,1.1242095 2.485249,1.4155978 6.013525,4.9257368 9.080637,8.5041398 0.865744,1.010064 1.531364,1.945427 2.253944,2.907694 a 15.054654,13.929414 0 0 0 0.0417,-0.108243 C 28.675397,14.706648 26.609166,9.468715 22.5143,6.5315713 21.206809,5.5937402 19.285687,5.1001604 17.973981,5.2450034 Z"
     style="fill:#000000;fill-opacity:1;stroke:none;stroke-width:49.15296555;stroke-linecap:round;stroke-miterlimit:4;stroke-dasharray:none;stroke-dashoffset:0" />
</svg>
