<?xml version="1.0" encoding="UTF-8" standalone="no"?>
<svg
   xmlns:dc="http://purl.org/dc/elements/1.1/"
   xmlns:cc="http://creativecommons.org/ns#"
   xmlns:rdf="http://www.w3.org/1999/02/22-rdf-syntax-ns#"
   xmlns:svg="http://www.w3.org/2000/svg"
   xmlns="http://www.w3.org/2000/svg"
   id="svg5975"
   viewBox="0 0 32 32"
   height="32"
   width="32"
   version="1.1">
  <metadata
     id="metadata5981">
    <rdf:RDF>
      <cc:Work
         rdf:about="">
        <dc:format>image/svg+xml</dc:format>
        <dc:type
           rdf:resource="http://purl.org/dc/dcmitype/StillImage" />
        <dc:title></dc:title>
      </cc:Work>
    </rdf:RDF>
  </metadata>
  <defs
     id="defs5979" />
  <g
     id="icomoon-ignore"
     transform="translate(0,-480)" />
  <path
     id="rect4537"
     d="m 28.837227,1.3725561 c 0,0 -22.7256288,9.0360269 -27.4829308,19.4299889 -1.44094963,3.148251 0.8545898,10.436702 0.8545898,10.436702 0,0 20.210951,-10.270722 26.654685,-18.772328 1.865011,-2.460622 0.208061,-6.7913088 0.158738,-10.0283436 -0.0018,-0.1157009 0.779526,-0.7681562 1.432873,-0.8375786 0.110129,-0.011702 0.216622,0.201593 0.315117,0.3966837 0.09312,0.1844419 0.17909,0.3526128 0.254224,0.2990023 0.390173,-0.2783986 0.144098,-1.51998106 0.14276,-1.60792406 -0.0046,-0.3041996 -1.403844,0.31866036 -2.330052,0.68379736 z M 24.70065,5.4466255 c 1.444308,-0.066229 2.669022,1.0505389 2.73596,2.4948141 0.06626,1.4450696 -1.05168,2.6701534 -2.496766,2.7360484 -1.445069,0.06626 -2.670151,-1.0516799 -2.736047,-2.4967656 -0.06515,-1.4443559 1.052529,-2.6682353 2.496853,-2.7340969 z m -5.937129,3.9491559 c 1.724253,-0.079293 3.186087,1.2546966 3.264487,2.9789906 0.07929,1.724252 -1.254696,3.186086 -2.978989,3.264486 -1.72354,0.07818 -3.184169,-1.255547 -3.262535,-2.979078 -0.07926,-1.723491 1.253555,-3.1849549 2.977037,-3.2643986 z m -6.781976,4.5430566 c 1.875371,-0.08605 3.465542,1.364214 3.55208,3.239562 0.08609,1.876132 -1.365353,3.466673 -3.241512,3.552169 -1.876132,0.08609 -3.4666729,-1.365353 -3.5521691,-3.241512 -0.084974,-1.87542 1.3662041,-3.464758 3.2416011,-3.550219 z m -6.1108048,5.15366 c 1.8754196,-0.08497 3.4647574,1.366205 3.5502183,3.241602 0.08494,1.874658 -1.3650643,3.463626 -3.2396503,3.550129 -1.8753703,0.08605 -3.4655417,-1.364213 -3.5520805,-3.239561 -0.086087,-1.876132 1.365353,-3.466674 3.2415125,-3.55217 z"
     style="opacity:1;vector-effect:none;fill:#000000;fill-opacity:1;stroke:none;stroke-width:0.47400707;stroke-linecap:round;stroke-linejoin:miter;stroke-miterlimit:4;stroke-dasharray:none;stroke-dashoffset:0;stroke-opacity:1;paint-order:markers stroke fill" />
</svg>
