<?xml version="1.0" encoding="UTF-8" standalone="no"?>
<svg
   xmlns:dc="http://purl.org/dc/elements/1.1/"
   xmlns:cc="http://creativecommons.org/ns#"
   xmlns:rdf="http://www.w3.org/1999/02/22-rdf-syntax-ns#"
   xmlns:svg="http://www.w3.org/2000/svg"
   xmlns="http://www.w3.org/2000/svg"
   version="1.1"
   width="32"
   height="32"
   viewBox="0 0 32 32"
   id="svg5975">
  <metadata
     id="metadata5981">
    <rdf:RDF>
      <cc:Work
         rdf:about="">
        <dc:format>image/svg+xml</dc:format>
        <dc:type
           rdf:resource="http://purl.org/dc/dcmitype/StillImage" />
        <dc:title></dc:title>
      </cc:Work>
    </rdf:RDF>
  </metadata>
  <defs
     id="defs5979" />
  <g
     transform="translate(0,-480)"
     id="icomoon-ignore" />
  <path
     id="path4708"
     d="M 22.484608,6.4785775 22.102916,6.94388 21.824731,6.6589687 l -0.0045,0.00435 c 0.0021,-0.00573 0.01749,-0.047424 0.01749,-0.047424 L 21.59194,6.8870889 21.66256,6.4901728 21.358923,6.7996964 c 0,0 0.02788,-0.2853334 0.05136,-0.4009754 0.0029,-0.014457 0.0011,-0.01987 -0.0041,-0.018333 -0.0369,0.010757 -0.24865,0.3672002 -0.269057,0.4245159 -0.02331,0.065505 -0.06873,-0.2547292 -0.05881,-0.3530528 0.0099,-0.098323 -0.425435,0.4654557 -0.471806,0.4961819 -0.04637,0.030726 -0.120498,-0.3956792 -0.129856,-0.4979138 -0.0094,-0.1022345 -0.18431,0.4141644 -0.213361,0.4584378 -0.02905,0.044275 -0.09365,-0.3299891 -0.09532,-0.420632 -0.0016,-0.090641 -0.237884,0.2827515 -0.237884,0.2827515 0,0 -0.06104,-0.2431157 -0.07026,-0.3954902 -0.0092,-0.1523735 -0.427262,0.3747735 -0.427264,0.3747732 l -0.07618,-0.3164646 -0.118646,0.3372555 c 0,0 -0.192034,-0.2898811 -0.213124,-0.3342943 -0.0211,-0.044411 -0.149407,0.3409667 -0.149407,0.3409667 0,0 -0.330863,-0.2979087 -0.378909,-0.3578273 -0.04805,-0.059919 -0.141521,0.2522364 -0.14152,0.2522351 L 18.195448,6.4187307 18.038586,6.647797 17.638249,6.3457923 17.583338,6.6658176 c 0,0 -0.174457,-0.2372169 -0.235712,-0.382762 0.0328,0.1579741 0.09075,0.4877188 0.09075,0.4877188 0,0 -0.370466,-0.4755507 -0.458721,-0.6638683 0.04711,0.1996429 0.1691,0.8322175 0.1691,0.8322175 0,0 -0.41873,-0.4538933 -0.647455,-0.5854389 -0.228725,-0.1315442 0.232763,0.6715591 0.232763,0.6715591 l -0.767991,-0.4112857 0.292324,0.7971986 c 0,0 -0.478691,-0.4376511 -0.587325,-0.6015893 -0.108636,-0.1639392 0.101108,0.9001966 0.133505,1.0202877 0.0324,0.1200904 -0.522737,-0.361421 -0.827309,-0.6786329 -0.304571,-0.3172109 0.482404,0.7366867 0.482404,0.7366867 0,0 -0.615045,-0.082572 -0.805452,-0.2631039 -0.152519,-0.1446058 0.196814,0.3764476 0.454054,0.6125531 -0.195791,-0.09062 -0.489839,-0.2184486 -0.711196,-0.3240578 -0.267517,-0.12763 0.126072,0.2218503 0.514633,0.485651 l -0.561371,-0.1475269 0.04728,0.2768192 -0.08395,-0.180807 -0.01548,0.2467364 -0.137164,-0.1742623 0.09544,0.2520566 -0.391974,-0.2347075 0.122152,0.1627709 -0.410428,-0.1437481 0.141894,0.1925638 -0.178569,-0.096552 -4.63e-4,0.1292984 -0.109161,-0.056683 -0.05016,0.2053217 -0.08339,-0.3961935 c 0,0 -0.0979,0.6093828 -0.09646,0.6872502 0.0015,0.077876 -0.101423,-0.434387 -0.101423,-0.434387 l -0.06316,0.6510253 -0.156133,-0.4196987 0.136959,0.7691444 -0.03217,-0.3512686 0.09587,0.079769 0.04945,-0.4555014 0.08689,0.2934507 0.09282,-0.5845353 0.05875,0.3050844 0.101903,-0.2896811 0.132232,0.1130885 -0.0078,-0.1741036 0.201778,0.1100088 -0.08884,-0.1991414 0.40373,0.1767705 -0.07585,-0.1360361 0.305924,0.191311 -0.08886,-0.1989949 0.05276,0.079622 0.04337,-0.1290351 0.09572,0.1228735 -0.04881,-0.3116651 0.519353,0.071442 c 0.132227,0.089647 0.263708,0.1693781 0.3682,0.2166132 -0.247318,-0.041023 -0.653152,-0.1005525 -0.799627,-0.1476099 -0.20864,-0.067025 0.38202,0.2641471 0.6326,0.3516934 -0.143381,-0.021809 -0.409948,-0.061805 -0.676853,-0.133592 -0.430587,-0.1157452 1.165792,0.5486985 1.356594,0.5874111 0.163043,0.03308 -0.60059,-0.060227 -1.043918,-0.2383498 0.310147,0.1803629 0.821018,0.4769367 0.988611,0.5109403 0.272571,0.055304 0.583071,0.2033574 0.583071,0.2033574 0,0 -0.295145,0.1955242 -0.442491,0.2223867 -0.147347,0.026862 0.228268,0.2733976 0.440796,0.3448986 0.212527,0.07149 -0.295036,0.1956 -0.404065,0.17348 -0.10903,-0.02212 0.282122,0.568017 0.282122,0.568017 0,0 -0.202255,0.157648 -0.294299,-0.08806 -0.09204,-0.24571 -0.229886,0.293886 -0.257537,0.430172 -0.02765,0.136287 -0.205875,-0.524205 -0.259994,-0.677085 -0.05413,-0.152877 -0.301375,0.506484 -0.301375,0.506484 0,0 0.05056,-0.528957 0.176974,-0.87224 0.126415,-0.343283 -0.508073,0.265821 -0.611966,0.358261 -0.103898,0.09244 -0.01505,-0.48548 -0.01505,-0.48548 L 14.45871,9.28799 c 0,0 -0.422705,0.964151 -0.477612,1.094906 -0.05491,0.130758 -0.07941,-0.8674438 -0.111801,-0.987533 -0.03162,-0.1171999 -0.112121,0.672731 -0.03008,0.80749 -0.07482,-0.0968 -0.475775,-0.5968985 -0.493687,-0.743501 -0.02134,-0.1746061 -0.143081,0.4250527 -0.03443,0.588992 0.108635,0.163939 -0.505565,-0.5849928 -0.662788,-0.9290669 -0.157227,-0.3440733 0.08485,0.8401561 0.08485,0.8401582 0,0 -0.445514,-0.6011788 -0.554148,-0.7651177 -0.108636,-0.163939 0.1339,0.8786114 0.1339,0.8786114 0,0 -0.407703,-0.5084816 -0.440095,-0.6285709 -0.0324,-0.1200904 -0.0679,0.8943679 -0.0679,0.8943679 L 11.550391,9.6344607 11.322859,10.166483 c 0,0 -0.356295,-0.4519066 -0.388691,-0.5719966 -0.0324,-0.1200903 0.177735,0.8023016 0.177735,0.8023016 l -0.685765,-0.5363597 0.483504,0.6940827 -0.670683,-0.051 c 0,0 0.09687,0.04371 0.216393,0.08629 -1.27e-4,6.31e-4 -2.33e-4,0.0011 -3.61e-4,0.0018 l 0.187355,0.07331 c 0,0 -0.01052,-0.01073 -0.0255,-0.02448 0.05559,0.01462 0.109843,0.02573 0.156065,0.02833 0.196335,0.01141 -0.50747,0.123999 -0.6165,0.101876 -0.109028,-0.02212 0.522915,0.219684 0.664733,0.220077 0.141821,3.29e-4 -0.284032,0.140897 -0.464166,0.189488 -0.180137,0.04859 0.610719,0.06727 0.730812,0.03487 0.12009,-0.0324 -0.638775,0.210914 -0.638775,0.210914 l 0.539662,0.13785 -0.453148,0.135169 0.56179,0.02878 c 0,0 -0.939455,0.433731 -1.1033933,0.542366 -0.1639396,0.108635 1.4557043,0.238656 1.4557043,0.238656 l -1.08112,0.433331 0.556233,0.05616 -0.9394423,0.433722 0.6980813,0.05649 -0.9122139,0.439247 c 0,0 0.3437709,-0.01539 0.5239039,-0.06396 0.180135,-0.04859 -0.7431604,0.445195 -0.7431604,0.445195 l -0.6817612,0.0036 c 0,0 0.4372286,-0.337021 0.628426,-0.440127 0.1912017,-0.103121 -0.7528197,0.07435 -0.7528187,0.07435 l 0.3661805,-0.26622 -0.7469911,-0.09487 c 0,0 0.480254,-0.129587 0.6058722,-0.189236 0.125621,-0.05965 -0.5178203,-0.105062 -0.6541069,-0.132711 -0.136287,-0.02765 0.3057707,-0.10822 0.3057707,-0.10822 l -0.4973217,-0.302661 0.2555753,-0.05779 -0.3063039,-0.01255 -0.064659,-0.304172 0.6313213,-10e-4 -0.3695202,-0.221254 0.3380985,-0.04902 -0.2292606,-0.367731 0.3884953,0.141856 0.037766,-0.419711 0.190698,-0.04425 c 0,0 -0.2681143,-0.233045 -0.3794533,-0.276354 -0.022491,-0.0087 0.443656,0.0053 0.443656,0.0053 l -0.035255,-0.265494 0.390809,0.435191 -0.1046696,-0.643607 c 0,0 0.3449767,0.180435 0.4338901,0.222852 0.088902,0.04242 -0.192216,-0.410583 -0.192216,-0.410583 l 0.5579917,0.289807 -0.09104,-0.315405 0.418075,0.187827 c 0,0 -0.0021,-0.06409 0.01583,-0.155137 l -0.190159,-0.07432 0.08704,0.1374 -0.486719,-0.245107 0.177196,0.328514 -0.6506571,-0.278296 0.2192219,0.361471 -0.3650711,-0.12278 0.117885,0.571793 -0.4413278,-0.539997 0.064467,0.403212 -0.4547281,0.0783 0.3552668,0.291504 -0.1500192,0.01843 -0.00101,0.365495 -0.5008055,-0.174749 0.2470203,0.464531 -0.4499962,0.05498 0.504329,0.221308 -0.6408005,-0.02957 0.098821,0.34986 -0.2818642,-0.171645 0.2168616,0.469722 -0.6162516,-0.03982 c 0,0 0.6154375,0.323481 0.72447,0.345603 0.1090287,0.02212 -0.6711351,0.09094 -0.6711351,0.09094 l 0.7627796,0.296521 -0.8508415,-0.0022 0.5936979,0.290715 -0.7584663,0.101423 0.4515692,0.432287 -0.8237271,0.0032 0.4250706,0.142943 -0.6498528,0.26552 0.5447622,0.252436 -0.5620389,0.112926 0.751276,0.492949 -1.0254186,0.01905 0.6917147,0.367306 -0.7099833,0.281671 0.4958255,0.214159 -0.6715282,0.232618 0.6647333,0.220076 c 0,0 -0.7098585,0.281611 -0.8354795,0.341262 -0.1256199,0.05965 1.1994378,0.243361 1.1994378,0.243361 l -0.4586727,0.1624 c 0,0 0.7034647,0.02923 0.8508139,0.0023 0.147346,-0.02683 -0.6667093,0.489107 -0.6667093,0.489107 l 0.7306958,0.03469 -0.4806561,0.271498 0.5885973,0.176122 c 0,0 -0.3334746,0.244573 -0.4590953,0.304224 -0.1256211,0.05965 0.3327349,0.039 0.4962799,0.07219 0.1635443,0.03319 -0.5796353,0.478376 -0.5796353,0.478376 l 0.6933747,-0.199837 c 0,0 0.5858368,-1.682729 1.1634141,-2.331401 0.4143492,-0.465353 1.5649772,-1.022373 1.5649772,-1.022373 0,0 -1.185937,0.694221 -1.596901,1.224309 -0.4993941,0.644153 -0.9573376,2.250005 -0.9573376,2.250005 0,0 -0.2742335,0.71467 -0.2484354,1.084701 0.068691,0.985248 0.6931,1.849791 1.0558369,2.768405 0.2332664,0.590734 0.7205234,1.763874 0.7205234,1.763874 l 1.0863947,-0.318855 0.193967,-1.095752 -0.374438,-0.671953 0.435301,0.371985 1.012029,-1.071679 c 0,0 -0.751294,-0.493046 -0.849262,-0.569683 -0.09797,-0.07664 0.915196,0.384449 0.915196,0.384449 l 0.401055,-0.99703 c 0,0 -1.034684,-0.635626 -1.138183,-0.685005 -0.103499,-0.04938 1.329787,0.440063 1.329787,0.440063 l 0.62442,-0.980063 -1.023416,-0.690222 1.182266,0.466989 0.78454,-1.628762 0.127631,0.308954 c 0,0 0.415713,0.32521 0.600074,0.603423 0.184358,0.278214 -0.04698,-0.461038 -0.171429,-0.787296 -0.124443,-0.32626 0.532594,0.589589 0.671003,0.748108 0.13841,0.158513 -0.230135,-1.140328 -0.268264,-1.298569 -0.03813,-0.158242 0.499511,0.653241 0.681915,0.94109 0.182405,0.287851 0.11019,-0.790449 0.112705,-1.000645 0.0025,-0.210195 0.44096,0.942331 0.473641,0.979063 0.03268,0.03673 0.193712,-1.69648 0.195946,-1.806397 0.0022,-0.109917 0.416003,0.86708 0.49268,1.033143 0.07667,0.166062 0.146742,-0.722873 0.106405,-0.771192 -0.04036,-0.04831 0.08637,-0.574383 0.08637,-0.574383 l 0.296717,0.812718 c 0,0 0.0321,-0.455056 -0.115658,-0.715811 -0.147767,-0.260755 0.570137,0.256168 0.64346,0.240939 0.05693,-0.01182 -0.199833,-0.420612 -0.365908,-0.676102 l 6.66e-4,0.0048 -0.003,-0.0084 c -0.04645,-0.07142 -0.08965,-0.136992 -0.111496,-0.169958 -0.01821,-0.02748 -2.09e-4,-0.03314 0.03769,-0.02674 l -0.443481,-1.18271 0.08346,0.766734 c 0,0 -0.533549,-1.795749 -0.524528,-1.993292 0.009,-0.197543 -0.121951,0.424954 -0.121951,0.424954 l -0.0096,-1.339877 -0.206461,0.408111 0.297049,-1.504933 c 0,0 -0.261109,0.275528 -0.287079,0.337918 -0.02589,0.0624 0.343955,-1.046265 0.433574,-1.173661 l 0.04151,-0.05598 -0.278993,0.890448 0.219532,-0.219819 -0.288057,1.307543 0.218235,-0.128695 -0.07358,1.012352 0.137613,-0.198888 0.286575,1.510092 0.10126,-0.287246 0.303131,0.986236 0.03754,-0.222208 0.373154,0.466447 c 0,0 -0.05065,-0.185847 -0.05587,-0.261222 -0.0053,-0.07539 0.526441,0.493626 0.526442,0.493626 l -0.414588,-0.190891 0.112362,0.316567 c 0.02262,0.01 0.01823,0.02588 0.04039,0.03579 l 0.503522,0.593939 -0.105315,0.420188 0.351115,-0.04926 0.135409,-0.173098 c 0,0 -0.23029,1.036849 -0.176106,0.967573 0.05419,-0.06929 0.259116,-0.288547 0.259116,-0.288547 l -0.09864,0.78272 0.247533,-0.230724 -0.156424,0.770993 0.143134,-0.111495 -0.101686,0.501153 -0.42192,0.496352 -0.01998,0.296951 0.468122,-0.527089 0.327634,0.06646 0.02926,0.547777 0.232488,-0.35427 -0.149482,-0.351395 0.09356,-0.362251 -0.130075,-0.347455 0.07432,-0.366305 0.13454,0.127735 -0.298512,-0.80313 0.223353,0.08543 -0.206129,-0.764176 0.188874,0.05838 0.01631,-0.936657 c 0.04322,-0.03726 0.103334,-0.489121 0.08869,-0.767849 -0.01647,-0.314387 0.304192,0.874516 0.365646,0.967253 0.06146,0.09273 0.323426,-0.50636 0.360157,-0.539043 0.03673,-0.03268 -0.123154,0.607166 -0.04426,0.663309 0.0364,0.0259 0.196606,-0.08247 0.366984,-0.211466 l 0.07206,0.737428 0.08147,2.116638 0.178582,0.518656 -0.251736,0.26109 0.103119,0.191182 -0.180556,0.190478 0.217709,0.18608 -0.214827,0.779353 0.07021,0.212858 -0.333705,0.386366 0.376808,-0.178861 0.299826,0.06083 0.234315,0.104231 -0.269525,-1.189795 0.136722,-0.114166 -0.108217,-0.305771 0.316426,-0.02099 c 0,0 -0.119298,-0.251177 -0.09165,-0.387464 0.02765,-0.136286 0.130771,0.05489 0.130771,0.05489 l 0.214437,-0.637676 0.211391,-1.461087 0.06157,-1.583325 c 0.02285,0.171072 0.04579,0.352945 0.05922,0.360677 0.02695,0.0155 0.425801,-0.51552 0.454851,-0.559793 0.02905,-0.04426 0.06666,0.264252 0.08215,0.237295 0.0155,-0.02695 0.176973,-0.52583 0.190936,-0.693568 0.01397,-0.167738 0.395007,0.822555 0.395007,0.822555 0,0 0.292414,-0.452319 0.343111,-0.652737 0.05067,-0.200425 0.209524,0.253185 0.209524,0.253185 0,0 0.02956,-0.24484 0.03974,-0.443444 0.01024,-0.1986 0.228636,0.357328 0.25936,0.403698 0.03072,0.04637 0.174305,-0.315788 0.201679,-0.450704 0.02738,-0.134918 0.176604,0.316769 0.240153,0.34973 0.06355,0.03297 0.126792,-0.526048 0.134606,-0.564595 0.0078,-0.03855 0.09509,0.470803 0.09509,0.470803 l 0.145645,-0.321676 c 0,0 0.471662,0.296331 0.51398,0.335015 0.04231,0.03868 -0.32368,-0.828169 -0.421726,-0.938366 -0.09805,-0.110189 0.623968,0.287208 0.623968,0.287208 0,0 -0.234087,-0.428862 -0.293726,-0.481095 -0.05964,-0.05224 0.672148,0.347049 0.672148,0.347049 0,0 -0.339863,-0.550456 -0.399502,-0.602688 -0.05964,-0.05224 0.525904,0.227048 0.583725,0.238781 0.05783,0.01172 -0.33248,-0.438742 -0.33248,-0.438742 l 0.518673,0.06512 c 0,0 -0.438613,-0.410015 -0.528977,-0.508619 -0.09036,-0.09861 0.800043,0.11212 0.800043,0.11212 0,0 -0.42908,-0.357953 -0.457851,-0.413958 -0.02876,-0.05599 0.734175,0.189144 0.774676,0.187343 0.04049,-0.0018 -0.688168,-0.442904 -0.739819,-0.589551 -0.0048,-0.01366 0.409615,0.09097 0.531111,0.0856 0.121506,-0.0055 -0.454356,-0.282783 -0.494719,-0.331107 -0.04035,-0.04831 0.725092,-0.01349 0.725092,-0.01349 0,0 -0.18141,-0.06761 -0.35316,-0.132426 0.05079,-0.02913 0.218386,-0.07923 0.303378,-0.1544 0.108972,-0.09638 0.173746,-0.234484 0.243984,-0.361891 0.03725,-0.06755 0.09321,-0.211821 0.09321,-0.211821 0,0 0.09363,0.116879 0.146158,0.170055 0.261594,0.264825 0.581729,0.468163 0.837903,0.738234 0.224123,0.236282 0.419918,0.499062 0.606279,0.766139 0.145993,0.209225 0.25675,0.441386 0.399418,0.652892 0.09811,0.145452 0.149309,0.360803 0.313416,0.42286 0.04115,0.01556 0.10376,0.0085 0.129084,-0.0275 0.0592,-0.0841 -0.0085,-0.20826 -0.04126,-0.30576 -0.04111,-0.122507 -0.121318,-0.228479 -0.190406,-0.33768 -0.202085,-0.319418 -0.409927,-0.637718 -0.654006,-0.926321 -0.353196,-0.417623 -0.809016,-0.740292 -1.164731,-1.155772 -0.0724,-0.08457 -0.115936,-0.193036 -0.19591,-0.27048 -0.06122,-0.05928 -0.127322,-0.131776 -0.211771,-0.143254 -0.07131,-0.0098 -0.152439,0.0193 -0.20459,0.06887 -0.04101,0.03899 -0.04244,0.10492 -0.06221,0.157939 -0.04972,0.133342 -0.0704,0.279636 -0.141867,0.402669 -0.08705,0.149701 -0.340503,0.392377 -0.340503,0.392377 l -0.03595,0.05755 c -0.194126,-0.07483 -0.381664,-0.149036 -0.424141,-0.175032 -0.09819,-0.06005 0.374288,-0.06461 0.374288,-0.06461 0,0 -0.225199,-0.176162 -0.40034,-0.302004 -0.175141,-0.125833 0.491652,0.04969 0.620844,0.05584 0.129197,0.0062 -0.818832,-0.266478 -0.880423,-0.309078 -0.0616,-0.0426 0.615207,-0.01569 0.804316,-0.05759 0.189103,-0.04189 -0.603213,-0.142445 -0.718855,-0.165912 -0.115641,-0.02346 0.459242,-0.08738 0.694579,-0.10986 0.235336,-0.0225 -0.466361,-0.124853 -0.618595,-0.165782 -0.152229,-0.04096 0.652077,-0.09846 0.804592,-0.157816 0.152516,-0.05936 -0.460609,-0.103385 -0.606982,-0.173219 -0.146369,-0.06984 0.488605,-0.232082 0.575475,-0.264624 0.08688,-0.03254 -0.616903,-0.07495 -0.732547,-0.09841 -0.115642,-0.02346 0.770042,-0.235141 0.822278,-0.294778 0.05223,-0.05964 -0.653669,0.0078 -0.800176,-0.01185 -0.14651,-0.0197 0.367405,-0.376913 0.47369,-0.4556851 0.106276,-0.078773 -0.437886,0.031616 -0.555626,0.06793 -0.117738,0.03632 0.2322,-0.2539041 0.363623,-0.3576758 0.131426,-0.1037726 -0.739489,0.2814138 -0.739489,0.2814138 l 0.172076,-0.8481035 c 0.03129,-0.1541906 -0.187041,0.032175 -0.187041,0.032175 0,0 -0.0072,0.00434 -0.0077,0.00458 L 25.399387,8.610915 25.094481,8.8553355 c 0.02681,-0.093933 0.07218,-0.2472921 0.09845,-0.3766433 0.0026,-0.012798 0.004,-0.024345 0.0021,-0.037118 -0.0018,-0.012775 -0.0089,-0.029092 -0.02325,-0.038498 -0.01432,-0.00942 -0.02986,-0.00939 -0.04119,-0.00732 -0.01132,0.00207 -0.02067,0.00621 -0.03014,0.011076 -0.03792,0.019469 -0.07993,0.055961 -0.124618,0.097621 -0.03072,0.02864 -0.03492,0.035687 -0.06243,0.063942 L 25.034339,8.2183335 24.565274,8.5531074 24.72636,8.0415368 24.444038,8.2534416 24.529278,7.83326 c 0.0023,-0.01098 0.0039,-0.020508 0.0014,-0.03364 -0.0012,-0.00654 -0.004,-0.014748 -0.01067,-0.022524 -0.0068,-0.00782 -0.01788,-0.013421 -0.02717,-0.014712 -0.01857,-0.00259 -0.02804,0.00393 -0.03631,0.00877 -0.0083,0.00483 -0.01537,0.010445 -0.02293,0.017066 -0.02145,0.01881 -0.04867,0.052167 -0.07501,0.083559 l 0.06083,-0.1392176 -0.551708,0.00402 0.11217,-0.5528579 -0.461156,0.2572052 0.01187,-0.3387117 -0.430377,0.2429405 0.24012,-0.4714062 -0.559586,0.3453614 0.0806,-0.3973025 -0.389917,0.3078534 z m -7.733446,2.5584503 c -0.194279,-0.1129812 -0.327569,-0.1907072 -0.193374,-0.097897 0.05068,0.035047 0.117907,0.067574 0.193374,0.097897 z m 2.228472,-2.9301044 c -0.01188,-0.050357 -0.02029,-0.080518 -0.01927,-0.057447 7.06e-4,0.013096 0.0079,0.03319 0.01927,0.057447 z M 17.3476,6.2830737 c -0.01365,-0.065742 -0.02365,-0.1081313 -0.02215,-0.074467 9.03e-4,0.018972 0.01,0.045591 0.02215,0.074467 z m 5.056986,0.4122613 -0.01214,0.5927619 0.353548,-0.2790387 -0.07423,0.365871 0.478754,-0.2955585 -0.231609,0.4547347 0.531228,-0.2999926 -0.01185,0.3378128 0.434602,-0.2422335 -0.09799,0.4829033 0.528463,-0.00392 -0.135947,0.3117284 0.06548,0.036961 c 0,0 0.07904,-0.1110513 0.15395,-0.2043213 0.02046,-0.025469 0.03486,-0.039239 0.0527,-0.059127 l -0.109436,0.5393912 0.25318,-0.1900694 -0.158144,0.5022144 0.460207,-0.3282767 -0.09887,0.2859223 0.064,0.037569 c 0,0 0.09108,-0.101325 0.176702,-0.1811558 0.03329,-0.03104 0.0604,-0.050606 0.08381,-0.066692 -0.03684,0.1667187 -0.118366,0.4525286 -0.118366,0.4525286 l -0.03361,0.1151832 0.377355,-0.3027113 0.03978,0.4454038 c -0.06772,0.039937 -0.152739,0.090433 -0.182852,0.110387 -0.04637,0.030727 0.0297,-0.2448721 0.03571,-0.3239208 0.006,-0.079051 -0.320682,0.1958271 -0.320682,0.1958271 0,0 -0.06662,-0.3145704 -0.07611,-0.3666658 -0.0096,-0.052098 -0.243986,0.3618923 -0.243986,0.3618923 0,0 -0.156127,-0.021681 -0.146211,-0.1199986 0.0099,-0.098324 -0.301418,0.1997367 -0.301418,0.1997367 l -0.303666,0.3096686 c 0,0 -0.318332,0.035697 -0.356879,0.027876 -0.03855,-0.00783 0.04325,-0.2620398 0.05499,-0.3198599 0.01172,-0.057823 -0.04504,-0.4707504 -0.04504,-0.4707504 L 23.217788,8.9127869 22.872511,9.6252571 22.68516,9.7578055 c 0,0 -0.119448,-0.054265 -0.223215,-0.1856888 -0.103767,-0.1314238 -0.34376,0.1609839 -0.34376,0.1609839 L 21.816547,9.3408792 c 0,0 -0.327276,-0.9092196 -0.325181,-0.9689961 0.002,-0.059778 0.07812,-1.0276868 0.0995,-1.0835523 0.01761,-0.045924 0.148205,-0.4031594 0.202943,-0.5528439 l 0.31385,0.3217054 z m 1.580033,4.121163 c 0.07616,0.01324 0.154874,0.04193 0.224488,0.06198 0.171939,0.04953 0.401287,0.08871 0.473924,0.252239 0.04144,0.09329 -0.123415,0.207489 -0.07445,0.29706 0.03585,0.06558 0.167083,0.01206 0.212463,0.07146 0.04507,0.05899 0.06395,0.133403 0.06763,0.211427 0.07442,0.198866 0.212303,0.618302 0.150458,0.854976 -0.216789,0.829646 -0.941064,1.509787 -1.675996,1.951581 -0.108465,0.0652 -0.258491,0.142448 -0.370397,0.08334 -0.09669,-0.05107 -0.119208,-0.195544 -0.120916,-0.304879 -0.0039,-0.245727 0.05592,-0.513994 0.136986,-0.753977 0.02769,-0.08208 0.139553,-0.44451 0.39965,-0.929907 0.158963,-0.296673 0.360028,-0.596568 0.512431,-0.816092 -0.0515,0.0231 -0.102473,0.04076 -0.142477,0.01693 -0.127064,-0.07569 -0.15056,-0.267165 -0.157104,-0.414919 -0.0084,-0.190375 -0.0016,-0.440899 0.154228,-0.550512 0.05927,-0.04167 0.132901,-0.04392 0.209067,-0.03072 z m -6.0583,-0.442148 0.778327,1.261207 -0.229918,-0.73613 c 0,0 0.870237,1.659062 0.899514,1.854632 0.02928,0.19557 0.03761,-0.440556 0.03761,-0.440556 l 0.26808,1.312858 0.123736,-0.440428 -9.05e-4,1.534104 c 0,0 0.202914,-0.320723 0.216351,-0.386953 0.01344,-0.06622 -0.135573,1.092998 -0.198914,1.235301 l -0.02994,0.06285 0.101914,-0.927432 -0.17298,0.257916 0.03027,-1.338433 -0.189335,0.168339 -0.123105,-1.007621 -0.09673,0.221813 -0.572597,-1.42637 -0.04382,0.301465 -0.48795,-0.909276 0.006,0.225316 -0.456076,-0.38555 c 0,0 0.08555,0.172497 0.105231,0.245447 0.01967,0.07295 -0.61182,-0.382766 -0.61182,-0.382766 l 0.443631,0.107203 -0.158136,-0.325097 0.581755,0.531692 z m 6.944027,1.531518 c -0.0062,0.02804 -0.01278,0.05562 -0.02065,0.08161 -0.03737,0.123 -0.117469,0.250405 -0.232647,0.307489 -0.127069,0.06298 -0.305375,0.07427 -0.425493,-0.0011 -0.08403,-0.05273 -0.117633,-0.169272 -0.130122,-0.267687 -0.01109,-0.08737 0.112722,-0.194546 0.05251,-0.258834 -0.03725,-0.0398 -0.09422,-0.01692 -0.154026,0.01068 -0.356351,0.504122 -0.786983,1.35781 -0.833308,1.560658 0.05237,-0.06292 0.07441,-0.07432 0.134692,-0.121969 0.404473,-0.319872 1.14359,-0.09231 1.465802,-0.494926 0.142014,-0.177462 0.154834,-0.548713 0.143221,-0.815898 z m 2.253402,1.455681 c -0.248152,-0.04874 -0.501558,-0.06333 -0.752984,-0.08837 l 0.635197,0.501668 c 0,0 0.326735,-0.07299 0.48111,-0.02847 0.1311,0.03777 0.230352,0.148144 0.332924,0.238109 0.683791,0.599744 1.297519,1.281221 1.863189,1.993452 0.260917,0.328519 0.508719,0.672414 0.701047,1.045259 0.09589,0.18589 0.222043,0.586893 0.222043,0.586893 l 0.175328,0.02555 0.08726,-0.132799 c 0,0 -0.0423,-0.24447 -0.08778,-0.358931 -0.1124,-0.28282 -0.277193,-0.544028 -0.451056,-0.793815 C 30.167435,16.116508 29.967671,15.911017 29.780354,15.696737 29.568938,15.454887 29.351,15.218776 29.132472,14.98333 28.922765,14.757386 28.713391,14.530957 28.496036,14.312358 28.249839,14.064754 28.036425,13.771939 27.740161,13.587143 27.554519,13.471345 27.336374,13.41315 27.12373,13.361635 Z m -8.736787,0.267891 0.172156,0.473772 0.225559,-0.271077 0.04548,0.496781 0.09298,0.262715 -0.53982,0.378025 0.09903,-0.248036 -0.398731,0.1628 0.103788,-0.271503 c 0,0 -0.468972,0.148748 -0.421801,0.03641 0.04716,-0.112334 0.169313,-0.233929 0.169313,-0.233929 l -0.24804,-0.09904 0.426533,-0.05973 c 0.107902,-0.05124 0.273535,-0.627193 0.273535,-0.627193 z m 5.876017,2.389302 -0.215336,0.294264 -0.119359,-0.186937 -0.07435,0.09741 -0.137608,0.09032 -0.115526,-0.189475 -0.418538,0.72792 -0.195518,-0.421057 0.408674,2.139895 0.463068,-0.106766 -0.07938,0.786628 0.401204,0.0012 0.633995,2.215622 0.207861,0.16252 0.44423,1.173817 0.192639,0.03909 0.150938,1.234651 0.448579,-0.430772 -0.35254,-0.834147 0.185526,-0.122814 -0.629641,-1.050827 0.163103,-0.408465 -0.136892,-0.710014 -0.712782,-1.629594 -0.362676,0.0066 0.217415,-0.477672 -0.398358,-1.190296 -0.165468,-0.67992 z m -1.857692,0.509515 -0.266721,0.314904 -0.0032,0.877185 -0.140808,0.853035 -0.03648,0.571849 0.454892,0.706523 0.145289,0.149823 0.084,0.277937 0.100112,-0.295774 0.08019,0.272187 0.0049,0.347079 0.185427,-0.09781 0.07457,0.250839 -0.06022,0.494485 0.143955,-0.09113 -0.112758,0.629353 0.149458,0.0052 -0.157838,0.976407 -0.09203,0.131827 0.179579,-0.06897 0.392063,0.119814 0.267306,-0.05615 -0.255374,-0.077 -0.212029,-1.081463 0.113655,0.0582 0.03157,-0.254486 -0.09568,-0.270202 0.118572,0.03397 -0.03721,-0.163028 -0.128938,-0.452637 c 0,0 0.0975,-0.0354 0.101412,-0.05467 0.0039,-0.01928 -0.04404,-0.450371 -0.06038,-0.468735 -0.01635,-0.01836 -0.175791,-0.271528 -0.175791,-0.271528 l 0.11855,0.03407 0.02111,-0.3017 -0.671129,-1.390413 -0.475482,-1.276218 z m -4.877683,-0.871575 0.06831,0.450442 c 0.757858,0.448854 0.210477,-0.07277 -0.06831,-0.450442 z m -3.487539,2.897386 -0.729512,1.49802 -0.753422,1.195178 0.113693,0.34941 0.295592,0.570747 -0.08019,0.395276 -0.327253,0.0045 -0.02134,0.804587 0.10881,1.07213 0.379717,0.786429 0.782678,0.967718 0.604186,-0.530248 -0.07898,0.948975 0.05931,0.267345 0.314058,-0.149063 -0.223297,0.820314 0.09207,0.24564 0.227317,-0.351097 -0.263954,0.811912 0.187997,0.05232 -0.458783,1.212432 0.04509,0.40652 0.424171,0.497457 -0.132212,-0.5376 0.231748,0.04702 -0.198145,-0.352368 0.210797,-1.248572 0.201611,0.05507 -0.07975,-0.725565 0.163753,-0.03779 -0.232339,-0.81338 0.163723,-0.03766 -0.310141,-1.269063 0.150331,-0.111406 -0.226165,-1.053414 -0.868771,-2.36143 -0.209421,-0.226925 0.558378,0.255198 -0.440717,-0.41591 0.03042,-0.14991 0.212577,0.07164 0.351744,0.01455 -0.329618,-0.123578 -0.127784,-0.139486 0.286406,-0.01276 -0.165163,-0.445056 0.166092,0.0904 -0.219653,-0.455963 0.315952,0.191682 -0.113691,-0.349408 c 0,0 0.271999,0.268042 0.244938,0.191603 -0.02706,-0.07644 -0.194535,-0.649627 -0.194535,-0.649627 l 0.245136,0.120771 -0.290607,-0.456335 0.220699,0.101473 -0.176242,-0.390451 0.03657,-0.389803 z m -2.871629,4.852062 -0.32277,0.331732 -0.194702,1.379569 -0.371085,0.08079 0.01257,0.357244 0.17582,0.532273 0.259401,-0.08928 -0.210549,0.198569 0.177734,0.802302 0.256693,-0.146531 -0.218835,0.239417 0.04229,0.491001 0.33258,0.03912 -0.308308,0.05085 0.106669,0.873085 0.06165,0.395555 -0.08488,0.13886 0.220747,0.03062 0.768698,0.127614 -0.473778,-0.252209 -0.12736,-0.281304 -0.185545,-0.974144 0.188416,-0.0895 -0.281554,-0.709809 0.294577,-0.05379 -0.195465,-0.294972 -0.249565,-0.518883 0.264927,-0.116507 -0.396063,-0.775721 0.07993,-0.253422 0.253306,0.07976 -0.200564,-0.409562 0.125526,-0.05973 -0.116732,-0.193945 z"
     style="fill:#000000;stroke:none;stroke-width:0.07567022px;stroke-linecap:butt;stroke-linejoin:miter;stroke-opacity:1" />
  <path
     id="path4608"
     d="M 3.7625863,1.2033918 C 3.3450486,1.1160456 2.915171,1.0660386 2.466151,1.0590345 2.1202054,1.053636 1.6993172,1.1666251 1.5060053,1.4535709 0.89223278,2.3646372 0.99065945,3.7707977 1.4903447,4.7490966 2.294468,6.3234282 4.1954114,7.0995716 5.8018183,7.837536 6.1272394,7.9870306 6.499946,8.1310357 6.9022409,8.2693693 5.1954492,8.2644489 3.0761966,8.0675936 2.2122075,9.4281483 1.8574207,9.986843 2.3247856,10.785684 2.6416731,11.366714 c 0.1656616,0.30375 0.4122122,0.60142 0.7303064,0.73752 2.1498027,0.91984 4.6797913,0.270303 7.0138415,0.129018 0.905689,-0.05482 1.793279,-0.28359 2.695709,-0.377941 2.177514,-0.227661 0.752717,-0.468916 3.051921,-0.383287 -2.414928,-0.203767 -1.130943,0.07385 -3.446433,0.153645 -0.0019,6.7e-5 -0.0039,2.45e-4 -0.0059,2.98e-4 -0.03934,-0.253242 0.05292,-0.670504 0.07747,-0.749784 0.374885,-0.126008 0.800199,0.093 1.157654,-0.116962 0.09105,-0.107901 0.181448,-0.216362 0.273051,-0.323796 -0.134618,-0.01734 -0.271208,-0.01404 -0.376405,-0.02472 -0.151514,-0.0157 -0.468219,-0.295083 -0.693333,-0.328137 -0.450229,-0.0661 -0.952937,-0.2881292 -1.506129,-0.3844031 -0.458517,-0.07979 -0.890263,-0.158017 -1.260469,-0.2257395 l 0.781684,-0.1028957 c 0.595195,0.1233801 1.217533,0.2357184 1.714264,0.3260719 l -0.115293,-0.4055648 -0.235929,-0.099977 0.588779,-0.1284132 0.043,-0.1086971 0.08507,0.2780992 0.05583,-0.497339 C 12.855056,8.6039926 12.395552,8.4762898 11.853669,8.3552827 L 12.12868,8.0627215 c 0.519844,0.226162 1.042444,0.4008967 1.567921,0.551112 l -0.03072,-0.055966 C 13.143246,8.396707 12.630478,8.2123049 12.139934,7.9871904 11.699843,7.0678402 10.992146,6.1972767 10.196181,5.3428054 10.887408,5.8828242 11.58003,6.415343 12.287575,6.896064 13.92521,8.0087054 12.853152,7.536816 15.156528,8.2903773 13.570463,7.4536154 14.167897,7.8090842 12.495452,6.6467352 11.214147,5.756228 10.177243,4.8150619 9.0237266,3.9957515 7.1473664,2.6630268 5.5718988,1.5819741 3.7625831,1.2033883 Z M 3.4025181,1.377052 C 4.0793729,1.5211702 4.7280283,1.7547828 5.3570313,2.0500385 L 4.9628826,2.0341604 3.3906249,1.4743224 1.7427103,1.4375066 C 1.9549024,1.2728547 2.2771064,1.2197691 2.5418637,1.2448072 2.8339372,1.2724261 3.12065,1.3170276 3.4025176,1.3770537 Z M 3.3767062,1.5496136 C 3.9059679,1.7149177 4.4345691,1.8816048 4.936166,2.1048948 L 6.5873214,3.5602349 C 6.4366826,3.6595137 6.1211988,3.7253469 5.8822493,3.8067077 L 5.9222092,4.3097571 5.3273441,4.1154688 C 4.5916093,3.9735487 3.8769331,3.7278384 3.1557972,3.5139646 L 1.2673715,3.4859578 C 1.1649675,2.8031501 1.2492549,2.091924 1.6158533,1.5692064 c 0.014296,-0.020387 0.030231,-0.039398 0.047,-0.05772 0.5754361,0.0074 1.1776115,-0.01938 1.7138508,0.038129 z m 2.1550481,0.5832277 c 1.2207049,0.5987065 2.3676263,1.4289843 3.498813,2.3019369 l -0.953526,0.056419 C 7.8148998,4.4152983 7.5824102,4.2618763 7.3433522,4.1256284 6.5417719,3.5258156 5.8215952,2.7844618 5.0607166,2.1138783 Z m 1.1196699,1.4838309 0.6351516,0.5598694 c 0.06131,0.2270649 0.1083808,0.4429898 0.091114,0.6085853 L 6.0031173,4.3361252 C 5.9638967,4.170217 6.0024126,4.023174 5.999065,3.8670518 Z M 9.054246,4.5091037 9.5059381,4.8032804 c 0.033811,0.026427 0.067571,0.05293 0.1013717,0.07938 -0.00833,0.00316 -0.015264,0.00541 -0.024106,0.00883 -0.054878,0.021297 -0.1176115,0.047673 -0.1770115,0.073418 -0.1005241,0.043573 -0.1642719,0.073163 -0.189913,0.084977 -0.00826,-0.00451 -0.017018,-0.00857 -0.026378,-0.01047 C 9.1300139,5.0272722 8.9760518,5.0011513 8.8250548,4.9705149 8.7495564,4.9551966 8.6750786,4.9387712 8.6147001,4.9228578 8.5543234,4.9069345 8.5055791,4.8887116 8.493805,4.8809821 8.4593474,4.8583775 8.3540765,4.7604677 8.2645346,4.6723538 8.2063229,4.6150685 8.1855881,4.5933649 8.1551915,4.5623999 Z M 7.3700969,4.2234985 8.0469385,4.5607935 c 0.00437,0.00448 0.076759,0.07919 0.1644338,0.1654676 0.090278,0.08884 0.1868625,0.1824478 0.2409526,0.2179407 0.032501,0.021322 0.080173,0.035203 0.1430129,0.051786 0.062844,0.016554 0.1383894,0.033195 0.2146724,0.048674 0.1525661,0.030955 0.3090786,0.057594 0.3648407,0.068907 0.00678,0.00137 0.00683,0.00229 0.00817,0.00423 0.00134,0.00194 0.00353,0.00709 0.00412,0.016673 0.00118,0.019174 -0.00558,0.052121 -0.016927,0.084938 -0.017291,0.050039 -0.038509,0.090801 -0.04982,0.1117421 L 8.4762517,5.314602 7.8280172,4.8630705 7.4575446,4.8070534 Z m -4.2250868,-0.6340566 2.1603967,0.5984868 0.65229,0.2130275 0.074284,0.09545 -0.059544,0.4926626 0.568843,0.5566701 L 6.4972228,5.848362 4.6203576,6.0406149 3.1168156,6.212398 C 2.5081009,5.7991648 1.984841,5.3048746 1.6487701,4.6676852 1.4758215,4.3397751 1.3475032,3.9568889 1.2800299,3.5618178 1.900119,3.5581694 2.5138645,3.5026066 3.1450071,3.5894407 Z m 6.532578,1.348196 c 0.099502,0.077913 0.199094,0.1556476 0.2985612,0.233549 L 10.272436,5.5742336 9.914558,5.6070323 9.1968016,5.3487526 c 0.013773,-0.027193 0.030658,-0.063392 0.044901,-0.1045972 0.012913,-0.037508 0.023376,-0.076282 0.02107,-0.1142569 -3.436e-4,-0.00553 -0.00175,-0.011133 -0.00285,-0.01671 0.031405,-0.014425 0.083068,-0.038437 0.1763018,-0.07884 0.058862,-0.025512 0.1208686,-0.051617 0.1742262,-0.072325 0.024705,-0.00959 0.047317,-0.017736 0.067083,-0.024391 z M 6.0863852,4.4430492 7.4707158,4.8952372 7.469269,4.8852918 7.7992037,4.9351986 8.4113644,5.3616153 8.2186353,5.6358837 9.1622365,6.7083376 8.9357734,6.9704833 9.0016937,7.3123109 8.8127719,7.3849659 7.5563305,6.3359026 6.5718793,5.8609437 6.6217586,5.5184823 6.05199,4.9611718 6.1109069,4.4745656 Z m 4.2353128,1.1983329 c 0.773447,0.7119766 1.294525,1.4660177 1.679283,2.2844402 L 9.2355687,6.6769153 8.3147062,5.6306407 8.483457,5.3905645 9.1359156,5.4072791 9.9048375,5.6839319 10.32215,5.6458484 Z M 6.5235073,5.9217067 7.5149922,6.3999017 8.7616007,7.4409383 8.5433888,8.1128364 9.4866495,8.3805272 C 8.7745904,8.3000211 8.1032203,8.2543922 7.5256936,8.2625513 6.9103461,8.0585227 6.3433119,7.8447196 5.8733063,7.6249266 5.0033909,7.2181203 4.0375242,6.8170243 3.2143108,6.2774182 L 4.628608,6.1158786 Z m 2.6990946,0.8325021 2.8306311,1.2782781 -0.338238,0.3596589 c 0.58919,0.1112696 1.081183,0.2486423 1.535467,0.3962486 l -0.05287,0.348229 -0.07413,-0.212366 c -0.004,-0.011289 -0.0099,0.045468 -0.02172,0.043109 C 12.1162,8.7705808 11.021065,8.5766888 9.9725568,8.4397634 L 8.6396165,8.0614828 8.8359887,7.4570878 9.0880203,7.3602849 9.0170464,6.9920966 Z m 3.7365231,2.2987439 -0.586779,0.077293 -0.04842,-0.023067 -1.18622,-0.3367428 c 0.62033,0.085949 1.237568,0.1826383 1.8214,0.2825392 z m -2.34302,-0.3517295 1.5892,0.4510782 -0.974741,0.12827 C 10.26879,9.0543104 9.223124,8.7865103 8.2477931,8.4912509 8.9711293,8.517274 9.7869689,8.5963034 10.616105,8.7012262 Z m 1.743734,0.5070121 0.34341,0.1638508 0.086,0.2575752 C 12.379143,9.5421764 11.922817,9.4415878 11.439612,9.3294764 Z M 7.5643536,8.4837816 c 1.0558735,0.32303 2.2441356,0.6058053 3.3474934,0.838741 L 10.330346,9.3990763 6.9979618,8.9214124 4.9151013,8.6974203 4.0424825,8.5631948 c 1.0487156,-0.1797723 2.3115804,-0.037579 3.3269371,-0.075236 0.063128,-0.00234 0.1293363,-0.00308 0.1949349,-0.00419 z m 6.4687074,2.0191224 -0.163727,0.194498 c -0.357569,0.224305 -0.776109,5e-6 -1.138876,0.108406 -0.443218,-0.03769 -1.676973,-0.251706 -2.648752,-0.464916 L 9.5668566,11.118831 7.00078,10.753378 c -0.3316891,0.203433 -0.841536,0.544957 -1.1648903,0.726223 -0.306029,0.170343 -0.6155197,0.344319 -0.8555838,0.483462 -0.1200312,0.06957 -0.2226202,0.130462 -0.2990965,0.177889 -0.038236,0.02371 -0.069869,0.044 -0.094196,0.06066 -0.022494,0.0154 -0.037274,0.02609 -0.049437,0.03851 C 4.1920647,12.175521 3.8505931,12.085553 3.5142594,11.962683 3.2070273,11.85044 2.9577562,11.582443 2.7877649,11.302993 2.7351643,11.216523 2.6784578,11.122886 2.6216672,11.026801 L 6.550805,9.3411039 8.6601728,9.7611117 9.4464271,9.381512 c 0.011829,0.00224 1.0531969,0.199597 2.1540459,0.3911944 0.553546,0.096346 1.056707,0.3185226 1.508158,0.3848146 0.225732,0.03311 0.543211,0.312624 0.696521,0.328506 0.0949,0.0099 0.169243,0.01571 0.227918,0.01684 z M 9.3644855,9.3371735 8.6493106,9.6823354 6.527058,9.2476021 C 5.2248856,9.9208363 3.8977818,10.389852 2.583149,10.96095 2.3178507,10.50208 2.077764,9.9699456 2.3263728,9.564878 2.6566539,9.026738 3.1934256,8.747821 3.8250014,8.6064049 l 1.080295,0.1660963 2.0831509,0.22405 z M 12.6691,10.888214 12.6048,11.629493 c -1.014658,0.04181 -2.048824,0.20904 -3.082616,0.374691 L 9.6197772,11.1739 10.199758,10.488727 c 1.321826,0.19612 1.355724,0.210118 2.033706,0.32557 z m -3.1276061,0.303582 -0.09689,0.824696 c -1.6307717,0.261037 -3.259124,0.508433 -4.8064368,0.242245 0.022015,-0.01485 0.048744,-0.03224 0.08293,-0.05345 0.07532,-0.04671 0.1775364,-0.107399 0.297209,-0.176762 0.239343,-0.138722 0.5485643,-0.312564 0.8543914,-0.482793 0.6063163,-0.337492 1.1889221,-0.654549 1.1992278,-0.66016 z"
     style="fill:#000000;stroke:none;stroke-width:0.07567022px;stroke-linecap:butt;stroke-linejoin:miter;stroke-opacity:1" />
</svg>
