<?xml version="1.0" encoding="UTF-8" standalone="no"?>
<!-- Generated by IcoMoon.io -->

<svg
   xmlns:dc="http://purl.org/dc/elements/1.1/"
   xmlns:cc="http://creativecommons.org/ns#"
   xmlns:rdf="http://www.w3.org/1999/02/22-rdf-syntax-ns#"
   xmlns:svg="http://www.w3.org/2000/svg"
   xmlns="http://www.w3.org/2000/svg"
   xmlns:sodipodi="http://sodipodi.sourceforge.net/DTD/sodipodi-0.dtd"
   xmlns:inkscape="http://www.inkscape.org/namespaces/inkscape"
   version="1.1"
   width="32"
   height="32"
   viewBox="0 0 32 32"
   id="svg5975"
   sodipodi:docname="ikon-mark.svg"
   inkscape:version="0.92.1 unknown">
  <metadata
     id="metadata5981">
    <rdf:RDF>
      <cc:Work
         rdf:about="">
        <dc:format>image/svg+xml</dc:format>
        <dc:type
           rdf:resource="http://purl.org/dc/dcmitype/StillImage" />
        <dc:title></dc:title>
      </cc:Work>
    </rdf:RDF>
  </metadata>
  <defs
     id="defs5979" />
  <sodipodi:namedview
     pagecolor="#ffffff"
     bordercolor="#666666"
     borderopacity="1"
     objecttolerance="10"
     gridtolerance="10"
     guidetolerance="10"
     inkscape:pageopacity="0"
     inkscape:pageshadow="2"
     inkscape:window-width="1920"
     inkscape:window-height="1176"
     id="namedview5977"
     showgrid="true"
     inkscape:zoom="11.313708"
     inkscape:cx="7.071882"
     inkscape:cy="29.292427"
     inkscape:window-x="1920"
     inkscape:window-y="0"
     inkscape:window-maximized="1"
     inkscape:current-layer="svg5975"
     inkscape:snap-global="false"
     inkscape:snap-grids="true"
     showguides="true">
    <inkscape:grid
       type="xygrid"
       id="grid6555" />
  </sodipodi:namedview>
  <g
     id="icomoon-ignore"
     transform="translate(0,-480)" />
  <path
     style="color:#000000;font-style:normal;font-variant:normal;font-weight:normal;font-stretch:normal;font-size:medium;line-height:normal;font-family:sans-serif;font-variant-ligatures:normal;font-variant-position:normal;font-variant-caps:normal;font-variant-numeric:normal;font-variant-alternates:normal;font-feature-settings:normal;text-indent:0;text-align:start;text-decoration:none;text-decoration-line:none;text-decoration-style:solid;text-decoration-color:#000000;letter-spacing:normal;word-spacing:normal;text-transform:none;writing-mode:lr-tb;direction:ltr;text-orientation:mixed;dominant-baseline:auto;baseline-shift:baseline;text-anchor:start;white-space:normal;shape-padding:0;clip-rule:nonzero;display:inline;overflow:visible;visibility:visible;opacity:1;isolation:auto;mix-blend-mode:normal;color-interpolation:sRGB;color-interpolation-filters:linearRGB;solid-color:#000000;solid-opacity:1;vector-effect:none;fill:#000000;fill-opacity:1;fill-rule:nonzero;stroke:none;stroke-width:2.02411366;stroke-linecap:round;stroke-linejoin:miter;stroke-miterlimit:4;stroke-dasharray:none;stroke-dashoffset:0;stroke-opacity:1;color-rendering:auto;image-rendering:auto;shape-rendering:auto;text-rendering:auto;enable-background:accumulate"
     d="M 7.8847656 6.1914062 C 7.3057216 6.2562081 6.7411813 6.4145698 6.2031635 6.636146 C 5.6280984 6.8855963 5.088697 7.2215246 4.6176135 7.6352976 C 4.1940994 8.0042959 3.8151138 8.4255261 3.4951164 8.8872082 C 3.1297076 9.4124585 2.8199899 9.9762901 2.579646 10.569507 C 2.3576731 11.102406 2.2103224 11.662383 2.0521262 12.216557 C 1.8862871 12.803404 1.7307042 13.396762 1.6684089 14.004905 C 1.5876899 14.627585 1.5325219 15.255125 1.5336852 15.883346 C 1.5238398 16.496274 1.5397007 17.10939 1.5647004 17.721787 C 1.6235938 19.123151 1.7363312 20.521544 1.8144531 21.921875 C 1.8738845 22.391456 1.8018748 22.949303 2.15625 23.318359 C 2.34191 23.509482 2.700935 23.406406 2.7526955 23.14527 C 2.8469783 22.547895 2.8540708 21.932256 2.8786143 21.32577 C 2.9063608 20.566592 2.9445185 19.807833 2.9765625 19.048828 C 3.0422367 18.394469 3.1180818 17.741314 3.2079725 17.089823 C 3.3677217 16.075082 3.5587996 15.06542 3.7722915 14.060617 C 3.9090916 13.410081 4.0598312 12.761661 4.2310185 12.119423 C 4.3917013 11.549369 4.6097973 10.992376 4.9035406 10.477603 C 5.1983745 9.9718584 5.5633159 9.5061487 6.0019531 9.1171875 C 6.3989001 8.7402283 6.8955162 8.4700239 7.4256175 8.3352867 C 7.9829313 8.2076812 8.5627934 8.1683059 9.1326564 8.2158891 C 9.6436655 8.2546636 10.12871 8.5079132 10.428621 8.9284252 C 10.732243 9.3369624 10.897028 9.8262696 11.060547 10.302734 C 11.248804 10.886016 11.340975 11.492906 11.45429 12.093533 C 11.694598 13.383935 11.908367 14.67911 12.141118 15.97089 C 12.245848 16.596005 12.388062 17.214221 12.53536 17.830495 C 12.673735 18.456683 12.873373 19.067579 13.089435 19.670761 C 13.300237 20.302496 13.576014 20.912115 13.916244 21.484766 C 14.247306 22.057987 14.656906 22.585486 15.123679 23.054367 C 15.570045 23.503918 16.077184 23.889754 16.619141 24.216797 C 17.17162 24.535894 17.756027 24.801746 18.368663 24.982349 C 18.938015 25.153026 19.525008 25.262505 20.11681 25.316746 C 20.703012 25.377346 21.293126 25.343507 21.879672 25.305901 C 22.442969 25.263255 22.999641 25.144298 23.54001 24.981379 C 24.087852 24.820283 24.609875 24.576923 25.102788 24.29033 C 25.593015 24.005673 26.04732 23.662219 26.464844 23.279297 C 26.951471 22.813855 27.40121 22.311947 27.871374 21.830188 C 27.953653 21.709488 28.129502 21.775878 28.244241 21.704323 C 28.707218 21.566237 29.092556 21.24359 29.394894 20.875528 C 29.753772 20.44411 30.053748 19.965337 30.291173 19.457055 C 30.533501 18.940802 30.718439 18.395266 30.831043 17.835932 C 30.945494 17.304088 30.997433 16.757554 30.965857 16.213947 C 30.983519 15.648431 30.687295 15.150701 30.43907 14.66228 C 30.163103 14.249068 30.198337 13.740349 30.236328 13.269531 C 30.231097 12.218753 30.227285 11.167968 30.222656 10.117188 C 30.193984 9.6730007 30.203202 9.2005227 29.988281 8.796875 C 29.826135 8.5299927 29.391038 8.6347335 29.324219 8.9277344 C 29.153891 9.4356802 29.180786 9.9843327 29.058828 10.504461 C 28.918125 11.381229 28.777422 12.257997 28.636719 13.134766 C 28.564384 13.46868 28.48335 13.800724 28.388672 14.128906 C 27.838349 14.439993 27.383138 14.896792 27.017201 15.408722 C 26.65751 15.889821 26.396766 16.439383 26.201105 17.005553 C 26.023794 17.515262 25.898297 18.043278 25.839844 18.580078 C 25.789474 19.184501 25.838868 19.790162 25.863281 20.394531 C 25.462054 20.815175 25.017221 21.193222 24.535254 21.518384 C 24.049479 21.818582 23.520852 22.055486 22.961205 22.17684 C 22.402965 22.309829 21.822208 22.350448 21.25036 22.305847 C 20.706069 22.270839 20.164343 22.165054 19.652728 21.97476 C 19.129754 21.788892 18.640433 21.512499 18.220703 21.148438 C 17.781357 20.75426 17.428529 20.271942 17.164471 19.745153 C 16.903429 19.213923 16.714691 18.651077 16.536466 18.087693 C 16.228886 17.132485 15.963501 16.164428 15.676427 15.202976 C 15.43332 14.38258 15.199825 13.559191 14.951016 12.74057 C 14.693802 11.952029 14.429835 11.165408 14.138672 10.388672 C 13.919737 9.8495638 13.655829 9.3287373 13.339844 8.8398438 C 13.002586 8.3303407 12.59356 7.870453 12.12491 7.4782642 C 11.661017 7.0969587 11.134332 6.7939153 10.572819 6.5810415 C 10.021832 6.3702551 9.4361909 6.2483694 8.8479028 6.2077712 C 8.5272691 6.1717303 8.2064815 6.1857502 7.8847656 6.1914062 z "
     id="path6802"
     inkscape:connector-curvature="0" />
</svg>
