<?xml version="1.0" encoding="UTF-8" standalone="no"?>
<svg
   xmlns:dc="http://purl.org/dc/elements/1.1/"
   xmlns:cc="http://creativecommons.org/ns#"
   xmlns:rdf="http://www.w3.org/1999/02/22-rdf-syntax-ns#"
   xmlns:svg="http://www.w3.org/2000/svg"
   xmlns="http://www.w3.org/2000/svg"
   id="svg5975"
   viewBox="0 0 32 32"
   height="32"
   width="32"
   version="1.1">
  <metadata
     id="metadata5981">
    <rdf:RDF>
      <cc:Work
         rdf:about="">
        <dc:format>image/svg+xml</dc:format>
        <dc:type
           rdf:resource="http://purl.org/dc/dcmitype/StillImage" />
        <dc:title></dc:title>
      </cc:Work>
    </rdf:RDF>
  </metadata>
  <defs
     id="defs5979" />
  <g
     transform="translate(0,-480)"
     id="icomoon-ignore" />
  <g
     transform="matrix(0.1,0,0,0.1,0.9,27.9)"
     id="g4553">
    <path
       id="path4503"
       transform="matrix(10,0,0,10,-9,-279)"
       d="M 16 1 C 7.7275734 1 1 7.727573 1 16 C 1 24.272427 7.7275734 31 16 31 C 24.272427 31 31 24.272427 31 16 C 31 7.727573 24.272427 1 16 1 z M 16 3 C 23.191546 3 29 8.808454 29 16 C 29 23.191546 23.191546 29 16 29 C 8.8084536 29 3 23.191546 3 16 C 3 8.808454 8.8084536 3 16 3 z M 15.96875 3.4375 L 15.679688 3.4414062 L 15.675781 3.4414062 L 15.671875 3.4414062 L 15.357422 3.453125 L 15.353516 3.453125 L 15.351562 3.4550781 L 15.037109 3.4746094 L 15.033203 3.4746094 L 15.03125 3.4746094 L 14.71875 3.5019531 L 14.716797 3.5019531 L 14.712891 3.5019531 L 14.404297 3.5390625 L 14.400391 3.5390625 L 14.396484 3.5390625 L 14.089844 3.5820312 L 14.087891 3.5820312 L 14.083984 3.5820312 L 13.779297 3.6328125 L 13.777344 3.6328125 L 13.773438 3.6347656 L 13.470703 3.6914062 L 13.46875 3.6933594 L 13.464844 3.6933594 L 13.166016 3.7578125 L 13.164062 3.7597656 L 13.160156 3.7597656 L 12.863281 3.8320312 L 12.861328 3.8339844 L 12.857422 3.8339844 L 12.564453 3.9140625 L 12.560547 3.9140625 L 12.558594 3.9160156 L 12.267578 4.0019531 L 12.263672 4.0019531 L 12.261719 4.0039062 L 11.974609 4.0976562 L 11.970703 4.0976562 L 11.96875 4.0996094 L 11.958984 4.1015625 L 11.814453 4.2382812 L 11.814453 4.4375 L 11.958984 4.5722656 L 12.126953 4.5742188 L 12.128906 4.5722656 L 12.130859 4.5722656 L 12.134766 4.5703125 L 12.416016 4.4785156 L 12.695312 4.3964844 L 12.701172 4.3945312 L 12.982422 4.3183594 L 12.984375 4.3183594 L 12.988281 4.3164062 L 13.279297 4.2460938 L 13.566406 4.1835938 L 13.867188 4.125 L 14.160156 4.078125 L 14.162109 4.0761719 L 14.166016 4.0761719 L 14.460938 4.0351562 L 14.464844 4.0351562 L 14.466797 4.0351562 L 14.767578 4 L 14.769531 4 L 15.074219 3.9726562 L 15.376953 3.953125 L 15.691406 3.9414062 L 15.974609 3.9375 L 16.15625 3.8554688 L 16.220703 3.6679688 L 16.126953 3.4921875 L 15.96875 3.4375 z M 18.003906 3.5976562 L 17.810547 3.6464844 L 17.714844 3.8203125 L 17.777344 4.0097656 L 17.923828 4.0898438 L 18.132812 4.125 L 18.433594 4.1835938 L 18.720703 4.2460938 L 18.722656 4.2460938 L 18.726562 4.2480469 L 19.011719 4.3164062 L 19.015625 4.3164062 L 19.017578 4.3183594 L 19.298828 4.3945312 L 19.304688 4.3964844 L 19.583984 4.4785156 L 19.865234 4.5703125 L 19.871094 4.5722656 L 20.144531 4.6679688 L 20.148438 4.6699219 L 20.150391 4.6699219 L 20.419922 4.7734375 L 20.691406 4.8847656 L 20.693359 4.8847656 L 20.697266 4.8867188 L 20.960938 5.0019531 L 21.226562 5.125 L 21.488281 5.2558594 L 21.492188 5.2578125 L 21.494141 5.2578125 L 21.623047 5.3261719 L 21.822266 5.3417969 L 21.96875 5.2070312 L 21.970703 5.0078125 L 21.857422 4.8847656 L 21.722656 4.8125 L 21.71875 4.8125 L 21.716797 4.8105469 L 21.449219 4.6777344 L 21.447266 4.6757812 L 21.443359 4.6757812 L 21.173828 4.5488281 L 21.169922 4.546875 L 21.167969 4.546875 L 20.892578 4.4257812 L 20.890625 4.4257812 L 20.886719 4.4238281 L 20.609375 4.3105469 L 20.605469 4.3085938 L 20.603516 4.3085938 L 20.322266 4.2011719 L 20.318359 4.1992188 L 20.316406 4.1992188 L 20.03125 4.0996094 L 20.029297 4.0976562 L 20.025391 4.0976562 L 19.738281 4.0039062 L 19.736328 4.0019531 L 19.732422 4.0019531 L 19.441406 3.9160156 L 19.439453 3.9140625 L 19.435547 3.9140625 L 19.142578 3.8339844 L 19.138672 3.8320312 L 19.136719 3.8320312 L 18.839844 3.7597656 L 18.837891 3.7597656 L 18.833984 3.7578125 L 18.535156 3.6933594 L 18.53125 3.6933594 L 18.529297 3.6914062 L 18.226562 3.6347656 L 18.222656 3.6328125 L 18.220703 3.6328125 L 18.003906 3.5976562 z M 15.996094 4.6875 L 15.859375 4.6894531 L 15.677734 4.7714844 L 15.613281 4.9589844 L 15.708984 5.1347656 L 15.867188 5.1894531 L 15.996094 5.1875 L 16 5.1875 L 16.003906 5.1875 L 16.275391 5.1914062 L 16.353516 5.1933594 L 16.539062 5.1210938 L 16.613281 4.9355469 L 16.527344 4.7558594 L 16.373047 4.6953125 L 16.294922 4.6914062 L 16.291016 4.6914062 L 16.289062 4.6914062 L 16.003906 4.6875 L 16 4.6875 L 15.996094 4.6875 z M 14.333984 4.8105469 L 14.28125 4.8183594 L 14.277344 4.8183594 L 14.275391 4.8183594 L 14.001953 4.8632812 L 13.998047 4.8632812 L 13.994141 4.8652344 L 13.830078 4.8964844 L 13.664062 5.0097656 L 13.634766 5.2050781 L 13.757812 5.3632812 L 13.923828 5.3867188 L 14.089844 5.3554688 L 14.349609 5.3125 L 14.351562 5.3125 L 14.404297 5.3046875 L 14.574219 5.2011719 L 14.613281 5.0058594 L 14.498047 4.84375 L 14.333984 4.8105469 z M 17.894531 4.8457031 L 17.701172 4.8945312 L 17.605469 5.0703125 L 17.667969 5.2578125 L 17.814453 5.3398438 L 17.912109 5.3554688 L 18.181641 5.4082031 L 18.292969 5.4316406 L 18.488281 5.3925781 L 18.591797 5.2246094 L 18.541016 5.03125 L 18.398438 4.9433594 L 18.283203 4.9179688 L 18.279297 4.9179688 L 18.277344 4.9160156 L 18.005859 4.8652344 L 18.001953 4.8632812 L 18 4.8632812 L 17.894531 4.8457031 z M 10.259766 4.8867188 L 10.09375 4.9101562 L 10.013672 4.953125 L 10.011719 4.953125 L 10.009766 4.9550781 L 9.75 5.1015625 L 9.7460938 5.1015625 L 9.7441406 5.1035156 L 9.4882812 5.2558594 L 9.4863281 5.2558594 L 9.4824219 5.2578125 L 9.2304688 5.4160156 L 9.2285156 5.4160156 L 9.2265625 5.4179688 L 8.9785156 5.5820312 L 8.9765625 5.5839844 L 8.9726562 5.5839844 L 8.7304688 5.7539062 L 8.7285156 5.7558594 L 8.7246094 5.7578125 L 8.4863281 5.9316406 L 8.484375 5.9335938 L 8.4804688 5.9355469 L 8.2460938 6.1152344 L 8.2441406 6.1171875 L 8.2421875 6.1191406 L 8.0117188 6.3046875 L 8.0097656 6.3066406 L 8.0058594 6.3085938 L 7.78125 6.4980469 L 7.7792969 6.5 L 7.7753906 6.5019531 L 7.5546875 6.6992188 L 7.5527344 6.7011719 L 7.5507812 6.703125 L 7.3339844 6.9042969 L 7.3320312 6.90625 L 7.3300781 6.9082031 L 7.1191406 7.1152344 L 7.1171875 7.1171875 L 7.1152344 7.1191406 L 6.9082031 7.3300781 L 6.90625 7.3320312 L 6.9042969 7.3339844 L 6.8632812 7.3789062 L 6.796875 7.5683594 L 6.8886719 7.7441406 L 7.0800781 7.796875 L 7.2285156 7.7207031 L 7.265625 7.6796875 L 7.2695312 7.6777344 L 7.2695312 7.6757812 L 7.46875 7.4726562 L 7.4707031 7.4707031 L 7.4726562 7.46875 L 7.6757812 7.2695312 L 7.6777344 7.2675781 L 7.6796875 7.265625 L 7.8867188 7.0722656 L 7.8886719 7.0703125 L 7.890625 7.0683594 L 8.1074219 6.8769531 L 8.3242188 6.6933594 L 8.3261719 6.6914062 L 8.3300781 6.6894531 L 8.5507812 6.5117188 L 8.5527344 6.5097656 L 8.5546875 6.5078125 L 8.7851562 6.3320312 L 9.015625 6.1640625 L 9.0195312 6.1601562 L 9.2578125 5.9960938 L 9.5019531 5.8359375 L 9.7421875 5.6855469 L 9.7441406 5.6835938 L 9.7480469 5.6816406 L 9.9980469 5.5332031 L 10.248047 5.3945312 L 10.253906 5.3925781 L 10.326172 5.3535156 L 10.451172 5.1972656 L 10.421875 5 L 10.259766 4.8867188 z M 12.345703 5.2910156 L 12.113281 5.3730469 L 12.109375 5.375 L 12.107422 5.375 L 11.869141 5.4648438 L 11.726562 5.6054688 L 11.730469 5.8046875 L 11.880859 5.9375 L 12.046875 5.9335938 L 12.279297 5.84375 L 12.28125 5.84375 L 12.285156 5.8417969 L 12.511719 5.7636719 L 12.65625 5.6269531 L 12.658203 5.4277344 L 12.511719 5.2910156 L 12.345703 5.2910156 z M 19.869141 5.3671875 L 19.669922 5.3808594 L 19.544922 5.5351562 L 19.572266 5.7324219 L 19.703125 5.8378906 L 19.720703 5.84375 L 19.960938 5.9355469 L 20.15625 6.015625 L 20.355469 6.0117188 L 20.488281 5.8632812 L 20.470703 5.6640625 L 20.345703 5.5527344 L 20.150391 5.4726562 L 20.148438 5.4726562 L 20.144531 5.4707031 L 19.892578 5.375 L 19.890625 5.3730469 L 19.886719 5.3730469 L 19.869141 5.3671875 z M 23.384766 5.9316406 L 23.216797 6.0410156 L 23.181641 6.2363281 L 23.273438 6.3769531 L 23.445312 6.5078125 L 23.447266 6.5097656 L 23.449219 6.5117188 L 23.669922 6.6894531 L 23.671875 6.6914062 L 23.675781 6.6933594 L 23.892578 6.8769531 L 24.109375 7.0683594 L 24.111328 7.0703125 L 24.113281 7.0722656 L 24.320312 7.265625 L 24.322266 7.2675781 L 24.324219 7.2695312 L 24.527344 7.46875 L 24.529297 7.4707031 L 24.53125 7.4726562 L 24.730469 7.6757812 L 24.732422 7.6777344 L 24.734375 7.6796875 L 24.927734 7.8867188 L 24.929688 7.8886719 L 24.931641 7.8925781 L 25.123047 8.1074219 L 25.306641 8.3242188 L 25.308594 8.328125 L 25.310547 8.3300781 L 25.488281 8.5507812 L 25.490234 8.5527344 L 25.492188 8.5546875 L 25.667969 8.7851562 L 25.835938 9.015625 L 25.839844 9.0195312 L 25.966797 9.2050781 L 26.136719 9.3105469 L 26.328125 9.2578125 L 26.421875 9.0820312 L 26.378906 8.9199219 L 26.246094 8.7304688 L 26.244141 8.7285156 L 26.242188 8.7246094 L 26.068359 8.4863281 L 26.066406 8.484375 L 26.064453 8.4804688 L 25.884766 8.2460938 L 25.882812 8.2441406 L 25.880859 8.2421875 L 25.695312 8.0117188 L 25.693359 8.0097656 L 25.691406 8.0058594 L 25.501953 7.78125 L 25.5 7.7792969 L 25.498047 7.7773438 L 25.300781 7.5546875 L 25.298828 7.5527344 L 25.296875 7.5507812 L 25.095703 7.3339844 L 25.09375 7.3320312 L 25.091797 7.3300781 L 24.884766 7.1191406 L 24.882812 7.1171875 L 24.880859 7.1152344 L 24.669922 6.9082031 L 24.667969 6.90625 L 24.666016 6.9042969 L 24.449219 6.703125 L 24.447266 6.7011719 L 24.445312 6.6992188 L 24.224609 6.5039062 L 24.220703 6.5019531 L 24.21875 6.5 L 23.994141 6.3085938 L 23.990234 6.3066406 L 23.988281 6.3046875 L 23.757812 6.1191406 L 23.755859 6.1171875 L 23.753906 6.1152344 L 23.578125 5.9804688 L 23.384766 5.9316406 z M 10.646484 6.0957031 L 10.482422 6.1230469 L 10.371094 6.1855469 L 10.369141 6.1855469 L 10.367188 6.1875 L 10.136719 6.3242188 L 10.134766 6.3261719 L 10.130859 6.3261719 L 10.041016 6.3828125 L 9.9277344 6.546875 L 9.9707031 6.7421875 L 10.142578 6.84375 L 10.306641 6.8066406 L 10.390625 6.7539062 L 10.392578 6.7539062 L 10.396484 6.7519531 L 10.615234 6.6210938 L 10.617188 6.6191406 L 10.621094 6.6191406 L 10.726562 6.5585938 L 10.847656 6.4003906 L 10.814453 6.2050781 L 10.646484 6.0957031 z M 21.521484 6.2148438 L 21.369141 6.3417969 L 21.357422 6.5410156 L 21.464844 6.6699219 L 21.603516 6.7519531 L 21.607422 6.7539062 L 21.609375 6.7539062 L 21.826172 6.8886719 L 21.830078 6.8925781 L 21.880859 6.9257812 L 22.076172 6.9589844 L 22.236328 6.8398438 L 22.255859 6.640625 L 22.154297 6.5078125 L 22.099609 6.4707031 L 22.097656 6.4707031 L 22.095703 6.46875 L 21.869141 6.3261719 L 21.867188 6.3261719 L 21.863281 6.3242188 L 21.71875 6.2382812 L 21.521484 6.2148438 z M 8.9511719 7.21875 L 8.7949219 7.2792969 L 8.5996094 7.4433594 L 8.5957031 7.4453125 L 8.59375 7.4472656 L 8.4121094 7.609375 L 8.328125 7.7910156 L 8.4023438 7.9746094 L 8.5898438 8.046875 L 8.7441406 7.984375 L 8.921875 7.8261719 L 8.9238281 7.8242188 L 8.9257812 7.8222656 L 9.1171875 7.6601562 L 9.2050781 7.4824219 L 9.1347656 7.2949219 L 8.9511719 7.21875 z M 23.1875 7.3671875 L 23.015625 7.46875 L 22.970703 7.6621094 L 23.054688 7.8066406 L 23.074219 7.8222656 L 23.076172 7.8242188 L 23.078125 7.8261719 L 23.267578 7.9941406 L 23.417969 8.1328125 L 23.605469 8.1992188 L 23.78125 8.1074219 L 23.835938 7.9160156 L 23.757812 7.7675781 L 23.609375 7.6289062 L 23.605469 7.6269531 L 23.603516 7.625 L 23.40625 7.4472656 L 23.402344 7.4453125 L 23.400391 7.4433594 L 23.378906 7.4257812 L 23.1875 7.3671875 z M 7.4902344 8.6308594 L 7.3476562 8.7148438 L 7.2734375 8.8007812 L 7.2714844 8.8046875 L 7.2695312 8.8066406 L 7.1015625 9.0136719 L 7.0996094 9.015625 L 7.0976562 9.0175781 L 7.0253906 9.1132812 L 6.9765625 9.3066406 L 7.0859375 9.4726562 L 7.2832031 9.5078125 L 7.421875 9.4179688 L 7.4921875 9.3261719 L 7.4941406 9.3242188 L 7.4960938 9.3222656 L 7.6582031 9.1191406 L 7.7285156 9.0371094 L 7.7851562 8.8457031 L 7.6855469 8.6738281 L 7.4902344 8.6308594 z M 24.625 8.8007812 L 24.435547 8.8671875 L 24.355469 9.0488281 L 24.412109 9.2070312 L 24.503906 9.3222656 L 24.505859 9.3242188 L 24.507812 9.3261719 L 24.662109 9.5292969 L 24.710938 9.59375 L 24.882812 9.6933594 L 25.072266 9.6367188 L 25.162109 9.4589844 L 25.113281 9.2988281 L 25.066406 9.234375 L 25.064453 9.2324219 L 25.0625 9.2285156 L 24.902344 9.0175781 L 24.900391 9.015625 L 24.898438 9.0136719 L 24.800781 8.8945312 L 24.625 8.8007812 z M 5.7265625 8.8691406 L 5.5898438 8.9648438 L 5.5839844 8.9726562 L 5.5839844 8.9765625 L 5.5820312 8.9785156 L 5.4179688 9.2265625 L 5.4160156 9.2285156 L 5.4160156 9.2304688 L 5.2578125 9.4824219 L 5.2558594 9.4863281 L 5.2539062 9.4882812 L 5.1035156 9.7441406 L 5.1015625 9.7460938 L 5.0996094 9.75 L 4.9550781 10.009766 L 4.953125 10.011719 L 4.953125 10.013672 L 4.8125 10.277344 L 4.8125 10.28125 L 4.8105469 10.283203 L 4.6777344 10.550781 L 4.6757812 10.552734 L 4.6757812 10.556641 L 4.5488281 10.826172 L 4.546875 10.830078 L 4.546875 10.832031 L 4.4257812 11.107422 L 4.4238281 11.109375 L 4.4238281 11.113281 L 4.3105469 11.390625 L 4.3085938 11.392578 L 4.3085938 11.396484 L 4.2011719 11.677734 L 4.1992188 11.679688 L 4.1992188 11.683594 L 4.0976562 11.96875 L 4.0976562 11.970703 L 4.0957031 11.974609 L 4.0039062 12.261719 L 4.0019531 12.263672 L 4.0019531 12.267578 L 3.9140625 12.558594 L 3.9140625 12.560547 L 3.9140625 12.564453 L 3.8867188 12.660156 L 3.9160156 12.857422 L 4.0800781 12.970703 L 4.2753906 12.927734 L 4.3691406 12.791016 L 4.3945312 12.695312 L 4.3964844 12.695312 L 4.4785156 12.416016 L 4.5703125 12.134766 L 4.5703125 12.132812 L 4.5722656 12.128906 L 4.6679688 11.855469 L 4.6699219 11.851562 L 4.6699219 11.849609 L 4.7734375 11.580078 L 4.8847656 11.306641 L 4.8867188 11.302734 L 5.0019531 11.039062 L 5.125 10.773438 L 5.2558594 10.511719 L 5.2578125 10.507812 L 5.2578125 10.505859 L 5.3925781 10.253906 L 5.3945312 10.248047 L 5.5332031 9.9980469 L 5.6816406 9.7480469 L 5.6835938 9.7441406 L 5.6855469 9.7421875 L 5.8359375 9.5019531 L 5.9960938 9.2578125 L 6 9.25 L 6.0390625 9.0546875 L 5.9238281 8.8925781 L 5.7265625 8.8691406 z M 6.3007812 10.279297 L 6.1738281 10.390625 L 6.0546875 10.605469 L 6.0527344 10.607422 L 6.0507812 10.609375 L 5.9335938 10.833984 L 5.9179688 11.033203 L 6.0527344 11.179688 L 6.2519531 11.181641 L 6.375 11.068359 L 6.4902344 10.849609 L 6.4921875 10.847656 L 6.4941406 10.84375 L 6.6113281 10.634766 L 6.6308594 10.435547 L 6.5 10.285156 L 6.3007812 10.279297 z M 25.777344 10.466797 L 25.580078 10.5 L 25.470703 10.666016 L 25.5 10.832031 L 25.505859 10.84375 L 25.507812 10.847656 L 25.509766 10.849609 L 25.628906 11.074219 L 25.722656 11.265625 L 25.875 11.394531 L 26.074219 11.369141 L 26.191406 11.208984 L 26.169922 11.042969 L 26.076172 10.851562 L 26.074219 10.849609 L 26.074219 10.847656 L 25.949219 10.609375 L 25.947266 10.607422 L 25.945312 10.605469 L 25.935547 10.587891 L 25.777344 10.466797 z M 27.238281 10.560547 L 27.041016 10.580078 L 26.919922 10.738281 L 26.935547 10.904297 L 26.998047 11.039062 L 27.113281 11.302734 L 27.115234 11.306641 L 27.226562 11.580078 L 27.330078 11.849609 L 27.330078 11.851562 L 27.332031 11.855469 L 27.427734 12.128906 L 27.429688 12.132812 L 27.429688 12.134766 L 27.521484 12.416016 L 27.603516 12.695312 L 27.605469 12.695312 L 27.605469 12.701172 L 27.681641 12.982422 L 27.683594 12.984375 L 27.683594 12.988281 L 27.753906 13.279297 L 27.816406 13.566406 L 27.875 13.867188 L 27.923828 14.160156 L 27.923828 14.162109 L 27.923828 14.166016 L 27.964844 14.460938 L 27.964844 14.462891 L 27.966797 14.466797 L 27.988281 14.660156 L 28.087891 14.833984 L 28.28125 14.876953 L 28.447266 14.765625 L 28.484375 14.603516 L 28.462891 14.404297 L 28.460938 14.400391 L 28.460938 14.396484 L 28.417969 14.089844 L 28.417969 14.087891 L 28.417969 14.083984 L 28.367188 13.779297 L 28.367188 13.777344 L 28.365234 13.773438 L 28.308594 13.470703 L 28.306641 13.46875 L 28.306641 13.464844 L 28.242188 13.166016 L 28.240234 13.164062 L 28.240234 13.160156 L 28.167969 12.863281 L 28.166016 12.861328 L 28.166016 12.857422 L 28.085938 12.564453 L 28.085938 12.560547 L 28.083984 12.558594 L 27.998047 12.267578 L 27.998047 12.263672 L 27.996094 12.261719 L 27.902344 11.974609 L 27.902344 11.970703 L 27.900391 11.96875 L 27.800781 11.683594 L 27.800781 11.681641 L 27.798828 11.677734 L 27.691406 11.396484 L 27.691406 11.394531 L 27.689453 11.390625 L 27.576172 11.113281 L 27.574219 11.109375 L 27.574219 11.107422 L 27.453125 10.832031 L 27.453125 10.830078 L 27.451172 10.828125 L 27.388672 10.691406 L 27.238281 10.560547 z M 5.6289062 12.087891 L 5.4316406 12.115234 L 5.3261719 12.246094 L 5.2832031 12.369141 L 5.28125 12.371094 L 5.28125 12.375 L 5.1972656 12.632812 L 5.1953125 12.636719 L 5.1953125 12.638672 L 5.1679688 12.732422 L 5.1914062 12.929688 L 5.3515625 13.046875 L 5.5488281 13.009766 L 5.6464844 12.875 L 5.671875 12.787109 L 5.6738281 12.787109 L 5.7539062 12.535156 L 5.7558594 12.533203 L 5.7558594 12.529297 L 5.7988281 12.412109 L 5.7832031 12.212891 L 5.6289062 12.087891 z M 26.417969 12.310547 L 26.277344 12.453125 L 26.273438 12.619141 L 26.328125 12.787109 L 26.402344 13.042969 L 26.416016 13.085938 L 26.539062 13.242188 L 26.738281 13.257812 L 26.884766 13.123047 L 26.898438 12.955078 L 26.884766 12.90625 L 26.882812 12.902344 L 26.882812 12.900391 L 26.804688 12.638672 L 26.804688 12.636719 L 26.802734 12.632812 L 26.748047 12.464844 L 26.617188 12.316406 L 26.417969 12.310547 z M 5.0976562 14.015625 L 4.9082031 14.078125 L 4.8261719 14.224609 L 4.8183594 14.273438 L 4.8183594 14.277344 L 4.8164062 14.28125 L 4.7792969 14.556641 L 4.7773438 14.558594 L 4.7773438 14.5625 L 4.7578125 14.732422 L 4.8164062 14.921875 L 4.9960938 15.009766 L 5.1816406 14.939453 L 5.2558594 14.789062 L 5.2734375 14.625 L 5.2734375 14.623047 L 5.2753906 14.619141 L 5.3105469 14.355469 L 5.3125 14.351562 L 5.3125 14.349609 L 5.3203125 14.306641 L 5.2714844 14.113281 L 5.0976562 14.015625 z M 26.908203 14.244141 L 26.746094 14.359375 L 26.710938 14.523438 L 26.724609 14.619141 L 26.726562 14.623047 L 26.726562 14.625 L 26.757812 14.896484 L 26.767578 15.007812 L 26.861328 15.183594 L 27.054688 15.232422 L 27.222656 15.125 L 27.265625 14.962891 L 27.253906 14.847656 L 27.253906 14.84375 L 27.253906 14.839844 L 27.222656 14.5625 L 27.220703 14.560547 L 27.220703 14.556641 L 27.207031 14.455078 L 27.103516 14.285156 L 26.908203 14.244141 z M 3.7675781 14.4375 L 3.5820312 14.509766 L 3.5097656 14.660156 L 3.5019531 14.712891 L 3.5019531 14.714844 L 3.5019531 14.71875 L 3.4746094 15.03125 L 3.4746094 15.033203 L 3.4746094 15.037109 L 3.453125 15.349609 L 3.453125 15.353516 L 3.453125 15.357422 L 3.4414062 15.671875 L 3.4414062 15.675781 L 3.4414062 15.679688 L 3.4375 15.996094 L 3.4375 16 L 3.4375 16.003906 L 3.4414062 16.320312 L 3.4414062 16.324219 L 3.4414062 16.328125 L 3.453125 16.642578 L 3.453125 16.646484 L 3.453125 16.648438 L 3.4746094 16.962891 L 3.4746094 16.966797 L 3.4746094 16.96875 L 3.5019531 17.28125 L 3.5019531 17.283203 L 3.5019531 17.287109 L 3.5371094 17.595703 L 3.5390625 17.599609 L 3.5390625 17.603516 L 3.5820312 17.910156 L 3.5820312 17.912109 L 3.5820312 17.916016 L 3.6328125 18.220703 L 3.6328125 18.222656 L 3.6347656 18.226562 L 3.6914062 18.529297 L 3.6933594 18.53125 L 3.6933594 18.535156 L 3.7324219 18.716797 L 3.8496094 18.878906 L 4.046875 18.904297 L 4.2011719 18.777344 L 4.2226562 18.611328 L 4.1835938 18.433594 L 4.125 18.132812 L 4.0761719 17.839844 L 4.0761719 17.837891 L 4.0761719 17.833984 L 4.0351562 17.539062 L 4.0351562 17.535156 L 4.0332031 17.533203 L 4 17.232422 L 4 17.230469 L 3.9726562 16.925781 L 3.953125 16.623047 L 3.9414062 16.308594 L 3.9375 16.003906 L 3.9375 16 L 3.9375 15.996094 L 3.9414062 15.691406 L 3.953125 15.376953 L 3.9726562 15.074219 L 4 14.769531 L 4 14.767578 L 4.0058594 14.716797 L 3.9472656 14.525391 L 3.7675781 14.4375 z M 27.048828 15.75 L 26.871094 15.839844 L 26.8125 15.996094 L 26.808594 16.275391 L 26.800781 16.490234 L 26.873047 16.675781 L 27.058594 16.75 L 27.238281 16.664062 L 27.300781 16.509766 L 27.308594 16.294922 L 27.308594 16.291016 L 27.308594 16.289062 L 27.3125 16.003906 L 27.234375 15.820312 L 27.048828 15.75 z M 28.298828 15.75 L 28.121094 15.839844 L 28.0625 15.996094 L 28.058594 16.308594 L 28.046875 16.623047 L 28.046875 16.625 L 28.027344 16.925781 L 28 17.230469 L 28 17.232422 L 27.966797 17.533203 L 27.964844 17.537109 L 27.964844 17.539062 L 27.923828 17.833984 L 27.923828 17.837891 L 27.923828 17.839844 L 27.875 18.132812 L 27.816406 18.433594 L 27.753906 18.720703 L 27.753906 18.722656 L 27.751953 18.726562 L 27.683594 19.011719 L 27.683594 19.015625 L 27.681641 19.017578 L 27.605469 19.298828 L 27.603516 19.304688 L 27.521484 19.583984 L 27.433594 19.853516 L 27.453125 20.052734 L 27.611328 20.173828 L 27.806641 20.140625 L 27.910156 20.007812 L 27.996094 19.738281 L 27.998047 19.736328 L 27.998047 19.732422 L 28.083984 19.441406 L 28.085938 19.439453 L 28.085938 19.435547 L 28.166016 19.142578 L 28.166016 19.138672 L 28.167969 19.136719 L 28.240234 18.839844 L 28.240234 18.837891 L 28.242188 18.833984 L 28.306641 18.535156 L 28.306641 18.53125 L 28.308594 18.529297 L 28.365234 18.226562 L 28.367188 18.222656 L 28.367188 18.220703 L 28.417969 17.916016 L 28.417969 17.912109 L 28.417969 17.910156 L 28.460938 17.603516 L 28.460938 17.599609 L 28.462891 17.595703 L 28.498047 17.287109 L 28.498047 17.285156 L 28.498047 17.28125 L 28.525391 16.96875 L 28.525391 16.966797 L 28.525391 16.962891 L 28.546875 16.650391 L 28.546875 16.646484 L 28.546875 16.642578 L 28.558594 16.328125 L 28.558594 16.324219 L 28.558594 16.320312 L 28.5625 16.003906 L 28.486328 15.820312 L 28.298828 15.75 z M 4.9199219 16.007812 L 4.7441406 16.103516 L 4.6914062 16.261719 L 4.6914062 16.289062 L 4.6914062 16.291016 L 4.6914062 16.294922 L 4.7011719 16.578125 L 4.7011719 16.582031 L 4.703125 16.585938 L 4.7148438 16.773438 L 4.8046875 16.951172 L 4.9960938 17.005859 L 5.1679688 16.902344 L 5.2128906 16.742188 L 5.2011719 16.560547 L 5.2011719 16.558594 L 5.1914062 16.275391 L 5.1914062 16.253906 L 5.109375 16.072266 L 4.9199219 16.007812 z M 26.914062 17.740234 L 26.722656 17.798828 L 26.638672 17.941406 L 26.591797 18.181641 L 26.539062 18.425781 L 26.578125 18.621094 L 26.748047 18.726562 L 26.939453 18.673828 L 27.027344 18.53125 L 27.082031 18.283203 L 27.082031 18.279297 L 27.083984 18.277344 L 27.128906 18.037109 L 27.085938 17.841797 L 26.914062 17.740234 z M 5.0957031 18.001953 L 4.9414062 18.128906 L 4.9199219 18.294922 L 4.9765625 18.550781 L 4.9765625 18.554688 L 4.9785156 18.556641 L 5.0351562 18.789062 L 5.1542969 18.947266 L 5.3535156 18.96875 L 5.5039062 18.835938 L 5.5195312 18.669922 L 5.4648438 18.445312 L 5.4648438 18.441406 L 5.4628906 18.439453 L 5.4101562 18.189453 L 5.2929688 18.027344 L 5.0957031 18.001953 z M 26.421875 19.673828 L 26.224609 19.697266 L 26.115234 19.824219 L 26.064453 19.960938 L 25.964844 20.205078 L 25.962891 20.207031 L 25.960938 20.210938 L 25.933594 20.277344 L 25.931641 20.476562 L 26.078125 20.613281 L 26.277344 20.599609 L 26.390625 20.476562 L 26.421875 20.40625 L 26.423828 20.402344 L 26.423828 20.400391 L 26.527344 20.150391 L 26.527344 20.148438 L 26.529297 20.144531 L 26.582031 20.001953 L 26.574219 19.802734 L 26.421875 19.673828 z M 5.8339844 19.919922 L 5.6347656 19.929688 L 5.5058594 20.082031 L 5.5136719 20.248047 L 5.5761719 20.400391 L 5.5761719 20.402344 L 5.578125 20.40625 L 5.6855469 20.652344 L 5.6875 20.65625 L 5.6875 20.658203 L 5.7167969 20.71875 L 5.8652344 20.849609 L 6.0644531 20.832031 L 6.1855469 20.673828 L 6.1699219 20.507812 L 6.1445312 20.453125 L 6.1425781 20.451172 L 6.0390625 20.210938 L 6.0371094 20.207031 L 6.0351562 20.205078 L 5.9765625 20.058594 L 5.8339844 19.919922 z M 4.6542969 20.339844 L 4.4550781 20.349609 L 4.3261719 20.501953 L 4.3339844 20.667969 L 4.4238281 20.886719 L 4.4257812 20.890625 L 4.4257812 20.892578 L 4.546875 21.167969 L 4.546875 21.169922 L 4.5488281 21.171875 L 4.6757812 21.443359 L 4.6757812 21.447266 L 4.6777344 21.449219 L 4.8105469 21.716797 L 4.8125 21.71875 L 4.8125 21.722656 L 4.953125 21.986328 L 4.953125 21.988281 L 4.9550781 21.990234 L 5.0996094 22.25 L 5.1015625 22.253906 L 5.1035156 22.255859 L 5.2539062 22.511719 L 5.2558594 22.513672 L 5.2578125 22.517578 L 5.4160156 22.769531 L 5.4160156 22.771484 L 5.4179688 22.773438 L 5.5820312 23.021484 L 5.5839844 23.023438 L 5.5839844 23.025391 L 5.7539062 23.269531 L 5.7558594 23.271484 L 5.7578125 23.275391 L 5.9316406 23.513672 L 5.9335938 23.515625 L 5.9355469 23.519531 L 6.1152344 23.753906 L 6.1171875 23.755859 L 6.1191406 23.757812 L 6.3046875 23.988281 L 6.3066406 23.990234 L 6.3085938 23.994141 L 6.4355469 24.142578 L 6.6132812 24.230469 L 6.8007812 24.160156 L 6.875 23.976562 L 6.8164062 23.820312 L 6.6933594 23.675781 L 6.6914062 23.673828 L 6.6894531 23.669922 L 6.5117188 23.449219 L 6.5097656 23.447266 L 6.5078125 23.445312 L 6.3320312 23.214844 L 6.1601562 22.980469 L 5.9960938 22.742188 L 5.8359375 22.498047 L 5.6855469 22.257812 L 5.6835938 22.255859 L 5.6816406 22.251953 L 5.5332031 22.001953 L 5.3945312 21.751953 L 5.3925781 21.746094 L 5.2578125 21.494141 L 5.2578125 21.492188 L 5.2558594 21.488281 L 5.125 21.226562 L 5.0019531 20.960938 L 4.8867188 20.697266 L 4.8847656 20.693359 L 4.8847656 20.691406 L 4.796875 20.478516 L 4.6542969 20.339844 z M 25.388672 21.474609 L 25.261719 21.582031 L 25.248047 21.603516 L 25.246094 21.607422 L 25.246094 21.609375 L 25.111328 21.824219 L 25.107422 21.830078 L 25 21.994141 L 24.964844 22.191406 L 25.085938 22.349609 L 25.283203 22.371094 L 25.416016 22.269531 L 25.529297 22.099609 L 25.529297 22.097656 L 25.53125 22.095703 L 25.673828 21.869141 L 25.673828 21.865234 L 25.675781 21.863281 L 25.691406 21.837891 L 25.716797 21.638672 L 25.587891 21.486328 L 25.388672 21.474609 z M 26.783203 21.535156 L 26.660156 21.648438 L 26.607422 21.746094 L 26.605469 21.751953 L 26.466797 22.001953 L 26.318359 22.251953 L 26.316406 22.255859 L 26.314453 22.257812 L 26.164062 22.498047 L 26.003906 22.742188 L 25.837891 22.980469 L 25.835938 22.984375 L 25.667969 23.214844 L 25.492188 23.445312 L 25.490234 23.447266 L 25.488281 23.449219 L 25.310547 23.669922 L 25.308594 23.673828 L 25.306641 23.675781 L 25.123047 23.892578 L 24.931641 24.109375 L 24.929688 24.111328 L 24.927734 24.113281 L 24.734375 24.320312 L 24.732422 24.322266 L 24.730469 24.324219 L 24.53125 24.527344 L 24.529297 24.529297 L 24.527344 24.53125 L 24.324219 24.730469 L 24.322266 24.732422 L 24.320312 24.734375 L 24.300781 24.751953 L 24.220703 24.935547 L 24.298828 25.117188 L 24.488281 25.185547 L 24.640625 25.119141 L 24.666016 25.095703 L 24.667969 25.09375 L 24.669922 25.091797 L 24.880859 24.884766 L 24.882812 24.882812 L 24.884766 24.880859 L 25.091797 24.669922 L 25.09375 24.667969 L 25.095703 24.666016 L 25.296875 24.449219 L 25.298828 24.447266 L 25.300781 24.445312 L 25.496094 24.224609 L 25.498047 24.220703 L 25.5 24.21875 L 25.691406 23.994141 L 25.693359 23.990234 L 25.695312 23.988281 L 25.880859 23.757812 L 25.882812 23.755859 L 25.884766 23.753906 L 26.064453 23.519531 L 26.066406 23.515625 L 26.068359 23.513672 L 26.242188 23.275391 L 26.244141 23.273438 L 26.246094 23.269531 L 26.416016 23.027344 L 26.416016 23.023438 L 26.417969 23.021484 L 26.582031 22.773438 L 26.583984 22.771484 L 26.583984 22.769531 L 26.742188 22.517578 L 26.744141 22.513672 L 26.744141 22.511719 L 26.896484 22.255859 L 26.898438 22.253906 L 26.898438 22.25 L 27.044922 21.990234 L 27.046875 21.988281 L 27.046875 21.986328 L 27.101562 21.882812 L 27.117188 21.683594 L 26.982422 21.537109 L 26.783203 21.535156 z M 6.7070312 21.683594 L 6.5117188 21.726562 L 6.4121094 21.898438 L 6.4472656 22.060547 L 6.46875 22.095703 L 6.4707031 22.097656 L 6.4707031 22.099609 L 6.6171875 22.322266 L 6.6191406 22.324219 L 6.6210938 22.328125 L 6.7324219 22.486328 L 6.9023438 22.591797 L 7.09375 22.539062 L 7.1875 22.363281 L 7.1425781 22.203125 L 7.0351562 22.046875 L 7.0351562 22.044922 L 7.0332031 22.042969 L 6.8925781 21.830078 L 6.8710938 21.796875 L 6.7070312 21.683594 z M 24.253906 23.072266 L 24.107422 23.154297 L 24.005859 23.267578 L 23.828125 23.457031 L 23.826172 23.458984 L 23.824219 23.462891 L 23.775391 23.511719 L 23.705078 23.699219 L 23.792969 23.876953 L 23.984375 23.935547 L 24.132812 23.861328 L 24.1875 23.806641 L 24.189453 23.804688 L 24.191406 23.802734 L 24.371094 23.609375 L 24.373047 23.605469 L 24.375 23.603516 L 24.480469 23.486328 L 24.542969 23.296875 L 24.447266 23.121094 L 24.253906 23.072266 z M 7.8789062 23.259766 L 7.6972656 23.339844 L 7.6289062 23.527344 L 7.6953125 23.681641 L 7.8085938 23.802734 L 7.8105469 23.804688 L 7.8125 23.806641 L 7.9980469 23.996094 L 8 24 L 8.0019531 24.001953 L 8.0527344 24.048828 L 8.2382812 24.119141 L 8.4179688 24.03125 L 8.4746094 23.841797 L 8.4003906 23.691406 L 8.3554688 23.648438 L 8.3535156 23.644531 L 8.3515625 23.642578 L 8.1757812 23.462891 L 8.1738281 23.458984 L 8.171875 23.457031 L 8.0625 23.339844 L 7.8789062 23.259766 z M 22.84375 24.441406 L 22.685547 24.498047 L 22.677734 24.503906 L 22.675781 24.505859 L 22.673828 24.507812 L 22.470703 24.662109 L 22.296875 24.791016 L 22.195312 24.962891 L 22.251953 25.154297 L 22.431641 25.242188 L 22.591797 25.195312 L 22.765625 25.066406 L 22.769531 25.064453 L 22.771484 25.0625 L 22.982422 24.900391 L 22.984375 24.900391 L 22.986328 24.898438 L 23 24.886719 L 23.091797 24.710938 L 23.027344 24.521484 L 22.84375 24.441406 z M 9.3203125 24.603516 L 9.1523438 24.710938 L 9.1191406 24.908203 L 9.2089844 25.046875 L 9.2285156 25.0625 L 9.2324219 25.064453 L 9.234375 25.066406 L 9.4492188 25.222656 L 9.4511719 25.224609 L 9.453125 25.226562 L 9.625 25.345703 L 9.8203125 25.384766 L 9.9824219 25.267578 L 10.007812 25.070312 L 9.9101562 24.935547 L 9.7441406 24.820312 L 9.7402344 24.816406 L 9.7382812 24.816406 L 9.5292969 24.662109 L 9.5136719 24.650391 L 9.3203125 24.603516 z M 8.0097656 25.144531 L 7.8378906 25.244141 L 7.7949219 25.439453 L 7.8789062 25.583984 L 8.0058594 25.691406 L 8.0097656 25.693359 L 8.0117188 25.695312 L 8.2421875 25.880859 L 8.2441406 25.882812 L 8.2460938 25.884766 L 8.4804688 26.064453 L 8.484375 26.066406 L 8.4863281 26.068359 L 8.7246094 26.242188 L 8.7285156 26.244141 L 8.7304688 26.246094 L 8.9726562 26.416016 L 8.9765625 26.416016 L 8.9785156 26.417969 L 9.2265625 26.582031 L 9.2285156 26.583984 L 9.2304688 26.583984 L 9.4824219 26.742188 L 9.4863281 26.744141 L 9.4882812 26.746094 L 9.7441406 26.896484 L 9.7460938 26.898438 L 9.75 26.900391 L 10.009766 27.044922 L 10.011719 27.046875 L 10.013672 27.046875 L 10.277344 27.1875 L 10.28125 27.1875 L 10.283203 27.189453 L 10.550781 27.322266 L 10.552734 27.324219 L 10.556641 27.324219 L 10.826172 27.451172 L 10.830078 27.453125 L 10.832031 27.453125 L 11.107422 27.574219 L 11.109375 27.576172 L 11.113281 27.576172 L 11.357422 27.675781 L 11.556641 27.671875 L 11.689453 27.523438 L 11.671875 27.324219 L 11.546875 27.212891 L 11.306641 27.115234 L 11.302734 27.113281 L 11.039062 26.998047 L 10.773438 26.875 L 10.511719 26.744141 L 10.507812 26.742188 L 10.505859 26.742188 L 10.253906 26.607422 L 10.248047 26.605469 L 9.9980469 26.466797 L 9.7480469 26.318359 L 9.7441406 26.316406 L 9.7421875 26.314453 L 9.5019531 26.164062 L 9.2578125 26.003906 L 9.0195312 25.839844 L 9.015625 25.835938 L 8.7851562 25.667969 L 8.5546875 25.492188 L 8.5527344 25.490234 L 8.5507812 25.488281 L 8.3300781 25.310547 L 8.3261719 25.308594 L 8.3242188 25.306641 L 8.2011719 25.201172 L 8.0097656 25.144531 z M 21.21875 25.537109 L 21.052734 25.560547 L 20.925781 25.628906 L 20.685547 25.748047 L 20.617188 25.779297 L 20.484375 25.927734 L 20.503906 26.126953 L 20.662109 26.248047 L 20.828125 26.232422 L 20.902344 26.197266 L 20.904297 26.197266 L 20.908203 26.195312 L 21.148438 26.076172 L 21.150391 26.074219 L 21.152344 26.074219 L 21.287109 26.003906 L 21.410156 25.847656 L 21.382812 25.650391 L 21.21875 25.537109 z M 10.972656 25.666016 L 10.828125 25.804688 L 10.832031 26.003906 L 10.949219 26.123047 L 11.091797 26.195312 L 11.095703 26.197266 L 11.097656 26.197266 L 11.341797 26.3125 L 11.34375 26.3125 L 11.347656 26.314453 L 11.412109 26.341797 L 11.611328 26.34375 L 11.748047 26.197266 L 11.734375 25.998047 L 11.611328 25.884766 L 11.548828 25.855469 L 11.546875 25.855469 L 11.314453 25.748047 L 11.171875 25.675781 L 10.972656 25.666016 z M 22.933594 25.939453 L 22.771484 25.982422 L 22.742188 26.003906 L 22.498047 26.164062 L 22.257812 26.314453 L 22.255859 26.316406 L 22.251953 26.318359 L 22.001953 26.466797 L 21.751953 26.605469 L 21.746094 26.607422 L 21.494141 26.742188 L 21.492188 26.742188 L 21.488281 26.744141 L 21.226562 26.875 L 20.960938 26.998047 L 20.697266 27.113281 L 20.693359 27.115234 L 20.691406 27.115234 L 20.419922 27.226562 L 20.150391 27.330078 L 20.148438 27.330078 L 20.144531 27.332031 L 19.871094 27.427734 L 19.865234 27.429688 L 19.583984 27.521484 L 19.304688 27.603516 L 19.304688 27.605469 L 19.298828 27.605469 L 19.236328 27.623047 L 19.080078 27.748047 L 19.066406 27.945312 L 19.201172 28.091797 L 19.367188 28.105469 L 19.435547 28.085938 L 19.439453 28.085938 L 19.441406 28.085938 L 19.732422 27.998047 L 19.736328 27.998047 L 19.738281 27.996094 L 20.025391 27.904297 L 20.029297 27.902344 L 20.03125 27.902344 L 20.316406 27.800781 L 20.318359 27.800781 L 20.322266 27.798828 L 20.603516 27.691406 L 20.605469 27.691406 L 20.609375 27.689453 L 20.886719 27.576172 L 20.890625 27.576172 L 20.892578 27.574219 L 21.167969 27.453125 L 21.169922 27.453125 L 21.171875 27.451172 L 21.443359 27.324219 L 21.447266 27.324219 L 21.449219 27.322266 L 21.716797 27.189453 L 21.71875 27.1875 L 21.722656 27.1875 L 21.986328 27.046875 L 21.988281 27.046875 L 21.990234 27.044922 L 22.25 26.900391 L 22.253906 26.898438 L 22.255859 26.896484 L 22.511719 26.746094 L 22.513672 26.744141 L 22.517578 26.742188 L 22.769531 26.583984 L 22.771484 26.583984 L 22.773438 26.582031 L 23.021484 26.417969 L 23.023438 26.416016 L 23.025391 26.416016 L 23.056641 26.394531 L 23.162109 26.224609 L 23.109375 26.03125 L 22.933594 25.939453 z M 19.25 26.314453 L 19.212891 26.326172 L 19.212891 26.328125 L 18.957031 26.402344 L 18.78125 26.451172 L 18.625 26.576172 L 18.611328 26.773438 L 18.746094 26.919922 L 18.912109 26.933594 L 19.09375 26.884766 L 19.097656 26.882812 L 19.099609 26.882812 L 19.361328 26.804688 L 19.363281 26.804688 L 19.367188 26.802734 L 19.404297 26.791016 L 19.552734 26.658203 L 19.558594 26.458984 L 19.416016 26.320312 L 19.25 26.314453 z M 12.990234 26.388672 L 12.792969 26.412109 L 12.675781 26.572266 L 12.712891 26.767578 L 12.849609 26.867188 L 12.900391 26.882812 L 12.902344 26.882812 L 12.90625 26.884766 L 13.169922 26.955078 L 13.173828 26.957031 L 13.175781 26.957031 L 13.34375 26.998047 L 13.541016 26.964844 L 13.650391 26.796875 L 13.601562 26.603516 L 13.462891 26.511719 L 13.300781 26.472656 L 13.296875 26.472656 L 13.294922 26.470703 L 13.042969 26.402344 L 12.990234 26.388672 z M 17.347656 26.728516 L 17.103516 26.755859 L 17.103516 26.757812 L 16.855469 26.779297 L 16.681641 26.875 L 16.630859 27.066406 L 16.738281 27.234375 L 16.900391 27.277344 L 17.152344 27.253906 L 17.15625 27.253906 L 17.160156 27.253906 L 17.404297 27.226562 L 17.576172 27.126953 L 17.621094 26.931641 L 17.509766 26.767578 L 17.347656 26.728516 z M 14.902344 26.757812 L 14.712891 26.820312 L 14.630859 27.001953 L 14.707031 27.185547 L 14.859375 27.255859 L 15.126953 27.279297 L 15.128906 27.279297 L 15.132812 27.279297 L 15.363281 27.294922 L 15.550781 27.226562 L 15.628906 27.042969 L 15.548828 26.861328 L 15.394531 26.794922 L 15.164062 26.78125 L 14.902344 26.757812 z M 13.416016 27.785156 L 13.220703 27.822266 L 13.115234 27.992188 L 13.167969 28.185547 L 13.310547 28.273438 L 13.464844 28.306641 L 13.46875 28.306641 L 13.470703 28.308594 L 13.773438 28.365234 L 13.777344 28.367188 L 13.779297 28.367188 L 14.083984 28.417969 L 14.087891 28.417969 L 14.089844 28.417969 L 14.396484 28.460938 L 14.400391 28.460938 L 14.404297 28.462891 L 14.712891 28.498047 L 14.714844 28.498047 L 14.71875 28.498047 L 15.03125 28.525391 L 15.033203 28.525391 L 15.037109 28.525391 L 15.349609 28.546875 L 15.353516 28.546875 L 15.357422 28.546875 L 15.671875 28.558594 L 15.675781 28.558594 L 15.679688 28.558594 L 15.996094 28.5625 L 16 28.5625 L 16.003906 28.5625 L 16.320312 28.558594 L 16.324219 28.558594 L 16.328125 28.558594 L 16.642578 28.546875 L 16.646484 28.546875 L 16.648438 28.546875 L 16.962891 28.525391 L 16.966797 28.525391 L 16.96875 28.525391 L 17.28125 28.498047 L 17.283203 28.498047 L 17.287109 28.498047 L 17.369141 28.488281 L 17.541016 28.388672 L 17.585938 28.193359 L 17.474609 28.029297 L 17.3125 27.992188 L 17.232422 28 L 17.230469 28 L 16.925781 28.027344 L 16.623047 28.046875 L 16.308594 28.058594 L 16.003906 28.0625 L 16 28.0625 L 15.996094 28.0625 L 15.691406 28.058594 L 15.376953 28.046875 L 15.074219 28.027344 L 14.769531 28 L 14.767578 28 L 14.466797 27.966797 L 14.462891 27.964844 L 14.460938 27.964844 L 14.166016 27.923828 L 14.162109 27.923828 L 14.160156 27.923828 L 13.867188 27.875 L 13.566406 27.816406 L 13.416016 27.785156 z "
       style="color:#000000;font-style:normal;font-variant:normal;font-weight:normal;font-stretch:normal;font-size:medium;line-height:normal;font-family:sans-serif;font-variant-ligatures:normal;font-variant-position:normal;font-variant-caps:normal;font-variant-numeric:normal;font-variant-alternates:normal;font-feature-settings:normal;text-indent:0;text-align:start;text-decoration:none;text-decoration-line:none;text-decoration-style:solid;text-decoration-color:#000000;letter-spacing:normal;word-spacing:normal;text-transform:none;writing-mode:lr-tb;direction:ltr;text-orientation:mixed;dominant-baseline:auto;baseline-shift:baseline;text-anchor:start;white-space:normal;shape-padding:0;clip-rule:nonzero;display:inline;overflow:visible;visibility:visible;opacity:1;isolation:auto;mix-blend-mode:normal;color-interpolation:sRGB;color-interpolation-filters:linearRGB;solid-color:#000000;solid-opacity:1;vector-effect:none;fill:#000000;fill-opacity:1;fill-rule:nonzero;stroke:none;stroke-width:2;stroke-linecap:butt;stroke-linejoin:miter;stroke-miterlimit:4;stroke-dasharray:none;stroke-dashoffset:0;stroke-opacity:1;color-rendering:auto;image-rendering:auto;shape-rendering:auto;text-rendering:auto;enable-background:accumulate" />
  </g>
</svg>
