<?xml version="1.0" encoding="UTF-8" standalone="no"?>
<svg
   xmlns:dc="http://purl.org/dc/elements/1.1/"
   xmlns:cc="http://creativecommons.org/ns#"
   xmlns:rdf="http://www.w3.org/1999/02/22-rdf-syntax-ns#"
   xmlns:svg="http://www.w3.org/2000/svg"
   xmlns="http://www.w3.org/2000/svg"
   id="svg5975"
   viewBox="0 0 32 32"
   height="32"
   width="32"
   version="1.1">
  <metadata
     id="metadata5981">
    <rdf:RDF>
      <cc:Work
         rdf:about="">
        <dc:format>image/svg+xml</dc:format>
        <dc:type
           rdf:resource="http://purl.org/dc/dcmitype/StillImage" />
        <dc:title></dc:title>
      </cc:Work>
    </rdf:RDF>
  </metadata>
  <defs
     id="defs5979" />
  <g
     id="icomoon-ignore"
     transform="translate(0,-480)" />
  <path
     id="rect4606"
     d="M 15.970703,1.9726562 A 2.0002,2.0002 0 0 0 14,4 V 9 H 10.742188 A 2.0002,2.0002 0 0 0 10.414062,8.5859375 l -5.9999995,-6 A 2.0002,2.0002 0 0 0 2.9785156,1.9804687 2.0002,2.0002 0 0 0 1.5859375,5.4140625 L 5.5996094,9.4277344 C 2.9124815,10.404142 1,12.967246 1,16 H 11.023438 V 13.808594 C 11.023438,13.360286 11.385677,13 11.833984,13 h 8.357422 C 20.639714,13 21,13.360286 21,13.808594 V 16 h 10.023438 c 0,-3.0393 -1.920901,-5.606511 -4.617188,-6.578125 l 4.007812,-4.0078125 a 2.0002,2.0002 0 0 0 -1.453124,-3.4335938 2.0002,2.0002 0 0 0 -1.375,0.6054688 l -6,6 A 2.0002,2.0002 0 0 0 21.257812,9 H 18 V 4 A 2.0002,2.0002 0 0 0 15.970703,1.9726562 Z m 0.01367,1.0136719 A 1.0001,1.0001 0 0 1 17,4 v 6 a 1.0001,1.0001 0 1 1 -2,0 V 4 a 1.0001,1.0001 0 0 1 0.984375,-1.0136719 z m -12.9941406,0.00391 a 1.0001,1.0001 0 0 1 0.7167968,0.3027344 l 6,6 A 1.0001,1.0001 0 1 1 8.2929688,10.707031 l -6,-5.9999998 A 1.0001,1.0001 0 0 1 2.9902344,2.9902344 Z m 25.9902346,0 a 1.0001,1.0001 0 0 1 0.726562,1.7167968 l -6,5.9999998 A 1.0001,1.0001 0 1 1 22.292969,9.2929688 l 6,-6 a 1.0001,1.0001 0 0 1 0.6875,-0.3027344 z M 12.833984,14 c -0.448307,0 -0.810548,0.360286 -0.810546,0.808594 v 3.382812 C 12.023438,18.639714 12.385677,19 12.833984,19 h 6.357422 C 19.639714,19 20,18.639714 20,18.191406 V 14.808594 C 20,14.360286 19.639714,14 19.191406,14 Z M 1.8085938,17 C 1.3602863,17 1,17.360286 1,17.808594 V 30.191406 C 1,30.639714 1.3602862,31 1.8085938,31 H 30.214844 c 0.448307,0 0.808594,-0.360286 0.808594,-0.808594 V 17.808594 C 31.023438,17.360286 30.663151,17 30.214844,17 H 21 v 2.191406 C 21,19.639714 20.639714,20 20.191406,20 h -8.357422 c -0.448307,0 -0.810548,-0.360286 -0.810546,-0.808594 V 17 Z"
     style="opacity:1;vector-effect:none;fill:#000000;fill-opacity:1;stroke:none;stroke-width:0.50429463;stroke-linecap:round;stroke-linejoin:miter;stroke-miterlimit:4;stroke-dasharray:none;stroke-dashoffset:0;stroke-opacity:1;paint-order:markers stroke fill" />
</svg>
