<?xml version="1.0" encoding="UTF-8" standalone="no"?>
<svg
   xmlns:dc="http://purl.org/dc/elements/1.1/"
   xmlns:cc="http://creativecommons.org/ns#"
   xmlns:rdf="http://www.w3.org/1999/02/22-rdf-syntax-ns#"
   xmlns:svg="http://www.w3.org/2000/svg"
   xmlns="http://www.w3.org/2000/svg"
   version="1.1"
   width="32"
   height="32"
   viewBox="0 0 32 32"
   id="svg5975">
  <metadata
     id="metadata5981">
    <rdf:RDF>
      <cc:Work
         rdf:about="">
        <dc:format>image/svg+xml</dc:format>
        <dc:type
           rdf:resource="http://purl.org/dc/dcmitype/StillImage" />
        <dc:title></dc:title>
      </cc:Work>
    </rdf:RDF>
  </metadata>
  <defs
     id="defs5979" />
  <g
     transform="translate(0,-480)"
     id="icomoon-ignore" />
  <path
     id="path4526"
     d="M 10.637054,6.8319976 C 5.5725049,9.7590985 3.4665251,15.59394 6.3912629,20.660476 c 0.239618,0.361388 0.6849979,0.710852 1.4741161,0.831989 2.297455,0.261012 5.932361,-0.760955 9.579702,-2.868619 3.648959,-2.104857 6.351463,-4.741795 7.274147,-6.861955 0.289651,-0.743965 0.209697,-1.304407 0.01653,-1.692617 C 21.810382,5.0031093 15.704271,3.9095206 10.637054,6.8319976 Z m 0.0072,0.1517185 A 2.531257,5.4663905 60 0 1 16.644925,6.4420914 2.531257,5.4663905 60 0 1 13.175547,11.367982 2.531257,5.4663905 60 0 1 7.1767374,11.908552 2.531257,5.4663905 60 0 1 10.64429,6.9837161 Z m 0.03375,0.058457 A 1.6537546,3.5713752 60 0 0 8.4121628,10.259957 1.6537546,3.5713752 60 0 0 12.331775,9.90656 1.6537546,3.5713752 60 0 0 14.599458,6.6877208 1.6537546,3.5713752 60 0 0 10.67802,7.042173 Z M 4.9886082,16.956941 C 2.1127806,19.977277 7.2866742e-4,22.765312 1.064588,24.605378 2.8473933,27.688492 11.695099,26.63463 19.474305,22.138565 27.257613,17.649609 32.594138,10.514202 30.815485,7.4286898 29.75387,5.5873273 26.283336,6.0224007 22.229734,7.0027719 c 0.702956,0.4422223 1.005938,0.5702471 1.601491,1.1749549 1.606905,0.00827 3.422814,0.089203 3.948928,1.0009773 1.394533,2.4212329 -3.029698,8.0005269 -9.13589,11.5221879 C 12.541319,24.228178 5.4973928,25.270028 4.0978107,22.85171 3.5712477,21.940195 4.4091141,20.327106 5.2054028,18.93135 4.9794866,18.113233 5.0201055,17.78683 4.9886082,16.956941 Z m 0.4134767,2.369917 C 4.8735728,20.453111 4.4026432,21.664 4.841309,22.422451 c 1.3462887,2.329102 7.546207,1.014978 13.422211,-2.381026 5.879027,-3.390766 10.117051,-8.102991 8.773134,-10.4334621 -0.437506,-0.7591217 -1.721629,-0.9567287 -2.96125,-1.0621508 0.390562,0.4307045 0.590726,0.5742487 0.943049,1.0216874 0.177197,0.1449375 0.820734,0.4718515 0.932041,0.6651235 1.207654,2.092741 -2.789782,6.100151 -8.069827,9.145681 C 12.603138,22.428194 7.1339008,23.886369 5.9253602,21.794139 5.8136354,21.601108 5.8522881,20.880332 5.8153679,20.654405 5.6040359,20.125566 5.5798046,19.880447 5.4020849,19.326858 Z m 6.0012331,6.584898 c 3.19362,1.634475 6.853993,1.293672 9.964156,-0.494125 3.103359,-1.799582 5.228689,-4.799156 5.410002,-8.382149 -1.88167,1.847821 -4.241894,3.851066 -7.080631,5.488534 -2.837459,1.639685 -5.752432,2.682077 -8.293527,3.38774 z"
     style="opacity:1;vector-effect:none;fill:#000000;fill-opacity:1;stroke:none;stroke-width:2;stroke-linecap:round;stroke-linejoin:miter;stroke-miterlimit:4;stroke-dasharray:none;stroke-dashoffset:0;stroke-opacity:1;paint-order:markers stroke fill" />
</svg>
