<?xml version="1.0" encoding="UTF-8" standalone="no"?>
<svg
   xmlns:dc="http://purl.org/dc/elements/1.1/"
   xmlns:cc="http://creativecommons.org/ns#"
   xmlns:rdf="http://www.w3.org/1999/02/22-rdf-syntax-ns#"
   xmlns:svg="http://www.w3.org/2000/svg"
   xmlns="http://www.w3.org/2000/svg"
   id="svg5975"
   viewBox="0 0 32 32"
   height="32"
   width="32"
   version="1.1">
  <metadata
     id="metadata5981">
    <rdf:RDF>
      <cc:Work
         rdf:about="">
        <dc:format>image/svg+xml</dc:format>
        <dc:type
           rdf:resource="http://purl.org/dc/dcmitype/StillImage" />
        <dc:title></dc:title>
      </cc:Work>
    </rdf:RDF>
  </metadata>
  <defs
     id="defs5979" />
  <g
     id="icomoon-ignore"
     transform="translate(0,-480)" />
  <path
     id="path4646"
     d="m 15.015625,0.97004584 c -0.165008,0.0152022 -0.307294,0.11041016 -0.425781,0.25659186 -0.436142,0.5380809 0.535079,1.4171207 0.246094,2.0421534 -0.572474,1.2381766 -3.098368,1.0093472 -3.433594,2.3273704 -0.197228,0.7754524 -0.4035,2.0434612 0.14048,2.773237 0.433854,0.5820366 0.566535,0.6600506 0.841942,0.7140157 -2.314478,1.1261028 -3.7553015,3.2877478 -3.7578129,5.6377888 0.00111,2.601614 1.7611569,4.946288 4.4589849,5.940118 0.04467,0.180547 0.102098,0.367519 0.140624,0.526701 0.08512,0.351675 0.326042,0.90059 0.613282,1.129377 0.590965,0.470704 1.005346,0.6012 1.748047,0.773725 0.761674,0.126119 1.527453,-0.377865 1.953125,-0.02637 0.421938,0.348408 0.748576,0.951419 0.660156,1.483128 -0.06894,0.414611 -0.882537,0.538666 -1.259783,0.887213 -0.295402,0.272929 -0.566021,0.582182 -0.770451,0.928535 -0.427657,0.72455 -0.292723,1.790911 -0.921666,2.349744 -0.520985,0.462909 -1.333339,0.426821 -2.02271,0.529179 -0.418905,0.0622 -0.846037,0.04764 -1.269531,0.04944 -0.541912,0.0023 -1.090602,-0.139403 -1.625,-0.04944 -0.4108353,0.06916 -0.79157,0.266352 -1.1679685,0.444939 -0.3881466,0.184161 -0.703603,0.519796 -1.1171875,0.642688 -0.2756174,0.0819 -0.7478139,-0.208423 -0.8613281,0.04943 -0.1135144,0.257862 0.2765493,0.585153 0.5585937,0.642689 0.9036665,0.184338 1.5792616,-1.043253 2.4863284,-1.186503 1.113192,-0.175803 2.228039,0.533253 3.351562,0.444938 0.96486,-0.07584 1.945034,-0.343206 2.783203,-0.827127 0.481782,-0.278159 0.871398,-0.707604 1.211627,-1.147752 0.564015,-0.729657 0.705859,-2.139304 1.335248,-2.423165 0.182945,-0.08251 -0.117636,0.493957 -0.08984,0.741313 0.03464,0.308221 0.0778,0.675014 0.314167,0.875841 0.813688,0.691347 2.098642,0.395106 3.150179,0.580359 0.403462,0.07108 0.81956,0.08625 1.212012,0.203787 0.482633,0.144547 0.948019,0.355581 1.382896,0.609964 0.325453,0.190373 0.583052,0.874375 0.90514,0.678362 0.04401,-0.02678 0.0031,-0.10961 -0.0255,-0.152433 -0.413471,-0.618262 -1.224372,-1.067565 -1.925575,-1.466723 -0.378244,-0.215314 -0.797611,-0.351817 -1.210588,-0.489216 -0.471475,-0.156862 -1.113082,-0.0077 -1.441195,-0.380799 -0.463949,-0.527623 0.141685,-1.523089 -0.273382,-2.08997 -0.198961,-0.271733 -0.562096,-0.452602 -0.915472,-0.427469 -0.02381,0.0017 -0.01977,-0.03566 -0.02268,-0.0554 -0.106958,-0.724522 0.375468,-1.473835 0.209368,-2.187126 -0.109633,-0.470802 -0.400401,-0.91291 -0.761719,-1.234039 -0.24151,-0.214647 -0.56479,-0.313453 -0.878906,-0.408811 2.727246,-0.980619 4.51377,-3.338238 4.515626,-5.959128 2.81e-4,-3.551359 -3.229932,-6.4304933 -7.214844,-6.4306919 -0.463673,0.00156 -0.926098,0.04295 -1.380859,0.123594 C 14.58805,7.9578505 14.492507,7.7036921 14.252055,7.4425559 13.79592,6.947192 12.759213,6.4544922 12.886719,5.9536375 c 0.309669,-1.2164065 2.64158,-1.0039454 3.169922,-2.146733 0.08721,-0.1886392 0.15008,-0.4067942 0.195312,-0.6312802 0.310764,0.3556313 1.2164,0.2232987 1.709446,0.5655471 0.174018,0.1207953 0.222018,0.554548 0.397976,0.49546 0.152612,-0.00574 0.3184,-0.1784735 0.3125,-0.3270488 C 18.624887,2.7268375 16.863888,1.0851399 16.025391,1.4338953 15.846381,1.3689922 15.67883,1.2659311 15.558594,1.1735629 15.408439,1.0582105 15.208096,0.95231351 15.015625,0.97004584 Z"
     style="fill:#000000;fill-opacity:1;stroke:none;stroke-width:22.66794395;stroke-linecap:round;stroke-miterlimit:4;stroke-dasharray:none;stroke-dashoffset:0" />
</svg>
